<svg width="16" height="20" viewBox="0 0 16 20" fill="none" xmlns="http://www.w3.org/2000/svg">
<path d="M7.80699 19.989C8.12699 19.9499 8.49909 19.7899 8.7577 19.5797C8.83212 19.5202 10.22 18.1415 11.8442 16.5155C15.0368 13.3192 14.9196 13.4438 15.061 13.1015C15.1634 12.8559 15.1968 12.6792 15.195 12.3889C15.195 12.1675 15.1875 12.1006 15.1448 11.9424C14.8266 10.7368 13.435 10.1973 12.3875 10.8764C12.2684 10.9526 11.9763 11.2354 10.8321 12.3778L9.42189 13.7824L9.41631 7.66328L9.41259 1.54228L9.37166 1.39348C9.16142 0.617578 8.55119 0.0873793 7.78095 0.00927925C6.81536 -0.0875207 5.95023 0.585979 5.80325 1.55158C5.77907 1.70228 5.77534 2.58598 5.77534 7.75628L5.77534 13.7843L4.3651 12.3759C2.86182 10.8745 2.83949 10.854 2.52879 10.7257C2.26832 10.6159 2.12878 10.588 1.8311 10.5861C1.46831 10.5843 1.21714 10.6457 0.925055 10.8094C-0.0182163 11.3359 -0.287986 12.5582 0.338997 13.4587C0.428301 13.589 6.21069 19.3918 6.42837 19.5704C6.56232 19.682 6.83209 19.8383 6.96977 19.8848C7.26187 19.9834 7.55954 20.0206 7.80699 19.989Z" fill="#071A3E" fill-opacity="0.9"/>
</svg>
