<svg width="14" height="18" viewBox="0 0 14 18" fill="none" xmlns="http://www.w3.org/2000/svg">
<path d="M6.40199 0.356905C5.58205 2.04319 4.46958 3.8209 3.1588 5.53954C2.88315 5.90239 2.37402 6.5409 2.12368 6.84047C1.91694 7.08659 1.17717 8.08233 1.04356 8.29329C0.777746 8.71381 0.451458 9.31997 0.361448 9.55906C0.237684 9.88816 0.132203 10.3031 0.0450052 10.8037L0 11.0569L0.00703206 11.5843C0.0140641 12.1103 0.023909 12.2425 0.0815719 12.573C0.35301 14.1412 1.28405 15.6545 2.60186 16.6755C3.35008 17.2521 4.21924 17.6558 5.08981 17.8274C5.16575 17.8428 5.25436 17.8653 5.28811 17.8766C5.37531 17.9075 5.54127 17.9371 5.82255 17.9694C6.17415 18.0102 6.93924 18.0102 7.29084 17.9694C7.57072 17.9371 7.73808 17.9075 7.82528 17.8766C7.85903 17.8653 7.9617 17.84 8.05593 17.8217C9.34421 17.5601 10.6001 16.7922 11.5579 15.6812C12.2808 14.843 12.8026 13.7685 12.9826 12.7516C12.9995 12.663 13.022 12.5322 13.0346 12.4633C13.0459 12.393 13.0628 12.2763 13.0698 12.2031C13.0768 12.13 13.0895 12.0189 13.0979 11.957C13.1078 11.8881 13.1106 11.6771 13.1078 11.4155C13.1007 10.9261 13.081 10.7756 12.9615 10.2904C12.8434 9.808 12.7266 9.52109 12.4538 9.03869C12.2189 8.62521 11.8997 8.12733 11.7534 7.94872C11.6507 7.82214 11.4707 7.58587 11.2949 7.34115C11.2611 7.29333 11.1247 7.12597 10.9925 6.96845C9.1684 4.79414 7.91107 2.85469 7.1052 0.972914C7.05175 0.84915 6.9308 0.580524 6.83376 0.375187C6.60029 -0.122683 6.63405 -0.121275 6.40199 0.356905Z" fill="black"/>
</svg>
