<svg width="145" height="162" viewBox="0 0 145 162" fill="none" xmlns="http://www.w3.org/2000/svg">
<g clip-path="url(#clip0_158_85)" filter="url(#filter0_dddd_158_85)">
<g filter="url(#filter1_dd_158_85)">
<g filter="url(#filter2_dd_158_85)">
<mask id="path-1-inside-1_158_85" fill="white">
<path d="M72.8633 4.0703C72.0312 4.21092 70.5781 4.72655 69.8164 5.17186C67.8476 6.33202 66.5703 7.91405 65.7617 10.2109C65.5039 10.9258 65.4922 11.1836 65.4453 14.6875C65.4219 16.7383 65.3867 18.414 65.3516 18.414C65.3281 18.414 65.0586 18.2265 64.7539 17.9805C64.0625 17.4648 62.8086 16.8672 61.7891 16.5859C60.7695 16.3047 58.6133 16.3047 57.5703 16.5742C55.2148 17.1953 53.0703 18.8945 52.0039 20.9922C51.2773 22.4453 51.0664 23.3242 51.0664 25.0351C51.0781 26.7109 51.2422 27.5547 51.8281 28.7851C52.0156 29.1719 55.1445 33.8125 58.7891 39.0976L65.4101 48.707L65.4219 56.2891C65.4219 60.4726 65.3984 63.8828 65.375 63.8828C65.2578 63.8828 52.4492 56.4531 52.2734 56.2773C52.168 56.1719 50.0117 51.7422 47.4922 46.4336C42.0898 35.0664 42.1601 35.207 41.4805 34.2695C40.4375 32.8516 38.5508 31.6094 36.7109 31.1172C35.668 30.8359 33.4062 30.8242 32.3984 31.1055C29.3047 31.9492 26.9961 34.2461 26.1641 37.3164C25.9766 37.9961 25.9062 38.5703 25.9062 39.5664C25.9062 40.3047 25.9414 40.9609 25.9883 41.0312C26.0234 41.0898 26.0352 41.1484 26 41.1484C25.9766 41.1484 24.6992 40.4336 23.1758 39.5547C20.2812 37.8789 19.4023 37.4922 17.9609 37.2695C14.1523 36.6836 10.1211 38.9336 8.67968 42.4609C7.29687 45.8711 8.10546 49.6328 10.7656 52.1523C11.5625 52.9023 12.1484 53.3008 14.4805 54.625C16.0039 55.4922 17.2461 56.2305 17.2578 56.2656C17.2578 56.3008 17.0117 56.418 16.707 56.5234C15.9219 56.8047 14.7969 57.5781 14 58.375C12.6055 59.7695 11.75 61.5508 11.5039 63.5781C11.1172 66.6367 12.582 69.7891 15.2187 71.6172C16.3437 72.3906 17.5977 72.8945 18.9453 73.0937C20.1172 73.2695 18.9922 73.3398 35.4336 72.0273L43.4726 71.3828L50.0469 75.1562C53.668 77.2422 56.6211 78.9648 56.6211 79C56.6211 79.0351 53.668 80.7578 50.0469 82.8437L43.4726 86.6172L35.4336 85.9726C18.9922 84.6601 20.1172 84.7305 18.9453 84.9062C15.125 85.4805 12.207 88.3516 11.5625 92.1836C11 95.5117 12.5352 98.8867 15.4648 100.809C15.957 101.125 16.5547 101.441 16.8008 101.523C17.0586 101.594 17.2578 101.687 17.2578 101.723C17.2461 101.758 16.0039 102.508 14.4687 103.375C12.1133 104.723 11.5508 105.086 10.7539 105.859C6.2539 110.16 7.47265 117.473 13.1211 120.027C14.0352 120.449 15.7344 120.836 16.6719 120.836C18.6172 120.836 19.7773 120.414 23.1758 118.445C24.6875 117.566 25.9648 116.852 26 116.852C26.0352 116.852 26.0234 116.91 25.9883 116.969C25.9414 117.039 25.9062 117.695 25.9062 118.434C25.9062 120.543 26.5039 122.289 27.7695 123.895C28.8477 125.277 30.5937 126.414 32.375 126.895C33.418 127.176 35.5391 127.176 36.6523 126.883C38.5391 126.402 40.4023 125.172 41.4805 123.73C42.0781 122.922 42.8164 121.434 48.3594 109.762L52.2031 101.676L58.707 97.9258C62.2812 95.8633 65.2578 94.1523 65.3164 94.1406C65.375 94.1172 65.4219 97.2695 65.4219 101.699L65.4101 109.293L58.7891 118.902C55.1445 124.187 52.0156 128.828 51.8281 129.215C51.2422 130.445 51.0781 131.289 51.0664 132.965C51.0664 134.676 51.2773 135.555 52.0039 137.008C53.0703 139.105 55.2148 140.805 57.5703 141.426C58.6133 141.695 60.7695 141.695 61.7891 141.414C62.8086 141.133 64.0625 140.535 64.7539 140.02C65.0586 139.773 65.3281 139.586 65.3516 139.586C65.3867 139.586 65.4219 141.262 65.4453 143.312C65.4922 146.816 65.5039 147.074 65.7617 147.789C66.8047 150.73 68.8203 152.723 71.6328 153.613C72.5 153.895 72.8281 153.93 74.0937 153.93C75.2891 153.93 75.7226 153.883 76.4375 153.66C79.332 152.758 81.3828 150.754 82.4258 147.789C82.6836 147.074 82.6953 146.816 82.7422 143.312C82.7656 141.262 82.8008 139.586 82.8359 139.586C82.8594 139.586 83.1289 139.773 83.4336 140.02C84.1016 140.523 85.3437 141.109 86.3984 141.414C87.418 141.695 89.5508 141.707 90.6172 141.426C92.9844 140.805 95.0937 139.129 96.1836 137.008C96.9101 135.566 97.1211 134.676 97.1211 132.965C97.1211 131.277 96.9453 130.445 96.3594 129.227C96.1719 128.84 93.043 124.187 89.3984 118.902L82.7773 109.293L82.7656 101.699C82.7656 97.3164 82.8125 94.1172 82.8711 94.1406C82.9297 94.1523 85.9062 95.8633 89.4805 97.9258L95.9844 101.676L99.8281 109.762C105.559 121.832 106.203 123.133 106.859 123.941C108.84 126.344 112.18 127.586 115.18 127.012C119.656 126.156 122.703 122.113 122.246 117.637C122.211 117.238 122.188 116.898 122.199 116.875C122.211 116.863 123.477 117.566 125 118.445C127.906 120.121 128.785 120.508 130.227 120.73C134.035 121.316 138.066 119.066 139.508 115.539C140.891 112.129 140.082 108.367 137.422 105.848C136.625 105.098 136.039 104.699 133.707 103.375C132.184 102.508 130.941 101.758 130.93 101.723C130.93 101.687 131.129 101.594 131.387 101.523C132.031 101.324 133.473 100.352 134.199 99.6133C136.051 97.75 137.012 95.0078 136.672 92.5117C136.145 88.5156 133.203 85.5156 129.242 84.9062C128.07 84.7305 129.219 84.6601 112.754 85.9726L104.715 86.6172L98.1406 82.8437C94.5195 80.7578 91.5664 79.0351 91.5664 79C91.5664 78.9648 94.5195 77.2422 98.1406 75.1562L104.715 71.3828L112.754 72.0273C129.219 73.3398 128.07 73.2695 129.242 73.0937C131.492 72.7539 133.543 71.5703 134.844 69.8711C135.922 68.4648 136.449 67.1992 136.672 65.4883C137.012 62.9922 136.051 60.25 134.199 58.3867C133.473 57.6484 132.031 56.6758 131.387 56.4766C131.129 56.4062 130.93 56.3125 130.93 56.2773C130.941 56.2422 132.195 55.4922 133.719 54.625C136.285 53.1601 136.578 52.9609 137.562 51.9883C138.477 51.0859 138.711 50.7695 139.18 49.8203C139.824 48.4844 140.059 47.6523 140.152 46.2461C140.34 43.375 138.992 40.5508 136.59 38.8516C134.152 37.1055 130.941 36.707 128.234 37.7969C127.871 37.9492 126.371 38.7578 124.906 39.6133C123.43 40.457 122.211 41.1367 122.199 41.125C122.188 41.1016 122.211 40.7617 122.246 40.3516C122.645 36.5078 120.371 32.8164 116.762 31.4336C113.27 30.0976 109.227 31.1641 106.871 34.0586C106.145 34.9492 106.074 35.1016 100.637 46.5391C98.1523 51.7891 96.0195 56.1719 95.9141 56.2773C95.7383 56.4531 82.9297 63.8828 82.8125 63.8828C82.7891 63.8828 82.7656 60.4726 82.7656 56.2891L82.7773 48.707L89.3984 39.0976C93.043 33.8125 96.1719 29.1601 96.3594 28.7734C96.9453 27.5547 97.1211 26.7226 97.1211 25.0351C97.1211 23.3242 96.9101 22.4336 96.1836 20.9922C95.0937 18.8711 92.9844 17.1953 90.6172 16.5742C89.5508 16.293 87.418 16.3047 86.3984 16.5859C85.3437 16.8906 84.1016 17.4765 83.4336 17.9805C83.1289 18.2265 82.8594 18.414 82.8359 18.414C82.8008 18.414 82.7656 16.7383 82.7422 14.6875C82.6953 11.1836 82.6836 10.9258 82.4258 10.2109C81.1133 6.49608 78.0781 4.16405 74.3867 4.05858C73.7422 4.03514 73.0625 4.04686 72.8633 4.0703ZM75.7109 8.82811C76.5195 9.1328 77.5156 10.0937 77.9375 10.9961L78.2539 11.6758L78.3125 22L78.3711 32.3359L81.7695 27.4023C83.6445 24.6836 85.3672 22.2695 85.6016 22.0234C87.1133 20.5 89.6914 20.4648 91.3789 21.9414C92.5976 23.0195 93.0664 25.1406 92.4101 26.6172C92.2812 26.9101 89.0586 31.6797 85.25 37.2109L78.3125 47.2656V59.4414C78.3125 66.1445 78.3476 71.6172 78.4062 71.6172C78.4531 71.6055 83.2109 68.8867 88.9766 65.5469L99.4531 59.4883L104.68 48.5078C107.551 42.4609 110.07 37.293 110.27 37C111.043 35.8984 112.613 35.1953 113.961 35.3359C115.438 35.4883 116.902 36.5195 117.477 37.832C117.77 38.5117 117.887 39.7773 117.699 40.4922C117.629 40.7734 116.41 43.457 114.992 46.4336C113.574 49.4101 112.414 51.8945 112.414 51.9531C112.414 52.0117 112.613 51.9297 112.859 51.7773C114.312 50.8633 129.746 42.0156 130.156 41.875C130.871 41.5937 132.242 41.6406 133.062 41.957C134 42.3203 134.82 43.1055 135.289 44.0547C135.629 44.7578 135.664 44.9453 135.664 45.8359C135.652 46.6914 135.605 46.9375 135.301 47.5937C135.102 48.0273 134.727 48.5664 134.434 48.8476C134.105 49.1523 130.895 51.0742 125.551 54.1562C120.957 56.8047 117.066 59.0312 116.914 59.1016C116.762 59.1719 116.633 59.2656 116.633 59.3008C116.633 59.3359 119.387 59.5937 122.762 59.8633C127.953 60.2734 128.984 60.3906 129.547 60.6016C130.438 60.9297 131.41 61.8203 131.832 62.6875C132.125 63.2851 132.16 63.4844 132.16 64.5273C132.16 65.582 132.125 65.7578 131.832 66.3203C131.105 67.7031 129.875 68.5586 128.48 68.6641C128.047 68.6875 122.492 68.3008 115.684 67.75L103.66 66.7891L93.1836 72.8359C87.418 76.1641 82.6953 78.9297 82.6719 78.9766C82.6601 79.0234 87.3711 81.8008 93.1601 85.1406L103.672 91.2109L115.684 90.25C122.41 89.7109 128.047 89.3125 128.469 89.3359C129.84 89.4414 131.047 90.25 131.762 91.5625C132.137 92.2656 132.16 92.3594 132.16 93.4727C132.16 94.5156 132.125 94.7148 131.832 95.3125C131.633 95.7109 131.246 96.2148 130.871 96.5664C129.758 97.5742 129.711 97.5859 122.727 98.1484L116.574 98.6406L117.688 99.2969C118.297 99.6602 122.199 101.91 126.359 104.312C131.199 107.102 134.105 108.848 134.434 109.152C134.727 109.434 135.102 109.973 135.301 110.406C135.605 111.062 135.652 111.309 135.664 112.164C135.664 113.055 135.629 113.242 135.289 113.945C134.82 114.895 134 115.68 133.062 116.043C132.254 116.359 130.871 116.406 130.156 116.137C129.781 115.996 117.324 108.859 113.27 106.469C112.801 106.187 112.414 106 112.414 106.047C112.414 106.094 113.574 108.578 114.992 111.566C116.41 114.543 117.629 117.227 117.699 117.508C117.887 118.223 117.77 119.488 117.477 120.168C117.113 120.988 116.176 121.914 115.309 122.312C114.324 122.758 113.152 122.781 112.074 122.371C110.949 121.937 110.258 121.199 109.496 119.605C109.156 118.891 107.141 114.672 105.031 110.23C102.922 105.777 100.801 101.324 100.32 100.316L99.4414 98.5L88.9531 92.4414C83.1875 89.1133 78.4297 86.3828 78.3828 86.3828C78.3476 86.3828 78.3125 91.8555 78.3125 98.5586V110.734L85.25 120.789C89.0586 126.32 92.2812 131.09 92.4101 131.383C93.0664 132.859 92.5976 134.98 91.3789 136.059C89.6914 137.535 87.1133 137.5 85.6016 135.977C85.3672 135.73 83.6445 133.316 81.7695 130.598L78.3711 125.664L78.3125 136L78.2539 146.324L77.9375 147.004C77.5039 147.93 76.5312 148.867 75.6523 149.195C74.7266 149.547 73.4609 149.547 72.5351 149.195C71.6562 148.867 70.6836 147.93 70.25 147.004L69.9336 146.324L69.875 136L69.8164 125.664L66.418 130.598C64.5547 133.316 62.8203 135.73 62.5859 135.977C61.0742 137.5 58.4961 137.535 56.8086 136.059C55.5898 134.98 55.1211 132.859 55.7773 131.383C55.9062 131.09 59.1289 126.32 62.9375 120.789L69.875 110.734V98.5469C69.875 88.1055 69.8516 86.3711 69.7109 86.418C69.4297 86.5234 48.9687 98.3594 48.8164 98.5C48.7344 98.5703 46.4492 103.293 43.7422 109C41.0234 114.707 38.6445 119.711 38.4453 120.133C37.1094 122.922 33.6172 123.531 31.5547 121.352C31.2266 121 30.8398 120.473 30.7109 120.168C30.4062 119.488 30.3008 118.223 30.4883 117.484C30.5703 117.191 31.7891 114.508 33.1953 111.543C34.6133 108.566 35.7734 106.094 35.7734 106.059C35.7734 106.012 31.8594 108.238 27.0664 111.004C22.2852 113.77 18.1602 116.102 17.9023 116.184C17.6445 116.254 17.0703 116.312 16.6133 116.312C14.9727 116.289 13.6133 115.422 12.8984 113.945C12.5586 113.242 12.5234 113.055 12.5234 112.164C12.5234 110.922 12.8984 110.008 13.7187 109.199C14.1172 108.812 16.3906 107.441 21.8281 104.312C25.9883 101.91 29.8906 99.6602 30.5 99.2969L31.6133 98.6406L25.4609 98.1484C18.4766 97.5859 18.4297 97.5742 17.3164 96.5664C16.9414 96.2148 16.5547 95.7109 16.3555 95.3125C16.0625 94.7148 16.0273 94.5156 16.0273 93.4727C16.0273 92.4883 16.0742 92.2187 16.3086 91.75C16.9766 90.3789 18.3125 89.4414 19.707 89.3359C20.1406 89.3125 25.6836 89.6992 32.4922 90.25L44.5156 91.2109L55.0273 85.1406C60.8164 81.8008 65.5273 79.0351 65.5156 78.9766C65.4922 78.9297 60.7695 76.1641 55.0039 72.8359L44.5156 66.7891L32.5039 67.75C25.6953 68.3008 20.1406 68.6875 19.707 68.6641C18.3125 68.5586 16.9766 67.6211 16.3086 66.25C16.0742 65.7812 16.0273 65.5117 16.0273 64.5273C16.0273 63.4844 16.0625 63.2851 16.3555 62.6875C16.5547 62.2891 16.9414 61.7851 17.3164 61.4336C18.4297 60.4258 18.4766 60.4141 25.4609 59.8516L31.6133 59.3594L30.5 58.7031C29.8906 58.3398 25.9883 56.0898 21.8281 53.6875C16.4023 50.5586 14.1172 49.1875 13.7187 48.8008C12.8984 47.9922 12.5234 47.0781 12.5234 45.8359C12.5234 44.9453 12.5586 44.7578 12.8984 44.0547C13.3672 43.1055 14.1875 42.3203 15.125 41.957C15.9336 41.6406 17.3164 41.5937 18.0312 41.8633C18.4062 42.0039 30.793 49.0937 34.918 51.5312C35.3867 51.8125 35.7734 52 35.7734 51.9531C35.7734 51.9062 34.6133 49.4336 33.1953 46.457C31.7773 43.4805 30.5586 40.7969 30.4883 40.5039C30.3008 39.7773 30.4062 38.5117 30.7109 37.832C31.2852 36.5195 32.75 35.4883 34.2266 35.3359C35.5859 35.1836 37.3203 36.0039 38.0117 37.1172C38.1641 37.3633 40.6367 42.4961 43.5078 48.5312L48.7226 59.4883L59.2109 65.5469C64.9766 68.8867 69.7344 71.6055 69.793 71.6172C69.8398 71.6172 69.875 66.1445 69.875 59.4414V47.2656L62.9375 37.2109C59.1289 31.6797 55.9062 26.9101 55.7773 26.6172C55.1211 25.1406 55.5898 23.0195 56.8086 21.9414C58.4961 20.4648 61.0742 20.5 62.5859 22.0234C62.8203 22.2695 64.5547 24.6836 66.418 27.4023L69.8164 32.3359L69.875 22L69.9336 11.6758L70.25 11.0078C71.2226 8.92186 73.4961 8.01952 75.7109 8.82811Z"/>
</mask>
<path d="M72.8633 4.0703C72.0312 4.21092 70.5781 4.72655 69.8164 5.17186C67.8476 6.33202 66.5703 7.91405 65.7617 10.2109C65.5039 10.9258 65.4922 11.1836 65.4453 14.6875C65.4219 16.7383 65.3867 18.414 65.3516 18.414C65.3281 18.414 65.0586 18.2265 64.7539 17.9805C64.0625 17.4648 62.8086 16.8672 61.7891 16.5859C60.7695 16.3047 58.6133 16.3047 57.5703 16.5742C55.2148 17.1953 53.0703 18.8945 52.0039 20.9922C51.2773 22.4453 51.0664 23.3242 51.0664 25.0351C51.0781 26.7109 51.2422 27.5547 51.8281 28.7851C52.0156 29.1719 55.1445 33.8125 58.7891 39.0976L65.4101 48.707L65.4219 56.2891C65.4219 60.4726 65.3984 63.8828 65.375 63.8828C65.2578 63.8828 52.4492 56.4531 52.2734 56.2773C52.168 56.1719 50.0117 51.7422 47.4922 46.4336C42.0898 35.0664 42.1601 35.207 41.4805 34.2695C40.4375 32.8516 38.5508 31.6094 36.7109 31.1172C35.668 30.8359 33.4062 30.8242 32.3984 31.1055C29.3047 31.9492 26.9961 34.2461 26.1641 37.3164C25.9766 37.9961 25.9062 38.5703 25.9062 39.5664C25.9062 40.3047 25.9414 40.9609 25.9883 41.0312C26.0234 41.0898 26.0352 41.1484 26 41.1484C25.9766 41.1484 24.6992 40.4336 23.1758 39.5547C20.2812 37.8789 19.4023 37.4922 17.9609 37.2695C14.1523 36.6836 10.1211 38.9336 8.67968 42.4609C7.29687 45.8711 8.10546 49.6328 10.7656 52.1523C11.5625 52.9023 12.1484 53.3008 14.4805 54.625C16.0039 55.4922 17.2461 56.2305 17.2578 56.2656C17.2578 56.3008 17.0117 56.418 16.707 56.5234C15.9219 56.8047 14.7969 57.5781 14 58.375C12.6055 59.7695 11.75 61.5508 11.5039 63.5781C11.1172 66.6367 12.582 69.7891 15.2187 71.6172C16.3437 72.3906 17.5977 72.8945 18.9453 73.0937C20.1172 73.2695 18.9922 73.3398 35.4336 72.0273L43.4726 71.3828L50.0469 75.1562C53.668 77.2422 56.6211 78.9648 56.6211 79C56.6211 79.0351 53.668 80.7578 50.0469 82.8437L43.4726 86.6172L35.4336 85.9726C18.9922 84.6601 20.1172 84.7305 18.9453 84.9062C15.125 85.4805 12.207 88.3516 11.5625 92.1836C11 95.5117 12.5352 98.8867 15.4648 100.809C15.957 101.125 16.5547 101.441 16.8008 101.523C17.0586 101.594 17.2578 101.687 17.2578 101.723C17.2461 101.758 16.0039 102.508 14.4687 103.375C12.1133 104.723 11.5508 105.086 10.7539 105.859C6.2539 110.16 7.47265 117.473 13.1211 120.027C14.0352 120.449 15.7344 120.836 16.6719 120.836C18.6172 120.836 19.7773 120.414 23.1758 118.445C24.6875 117.566 25.9648 116.852 26 116.852C26.0352 116.852 26.0234 116.91 25.9883 116.969C25.9414 117.039 25.9062 117.695 25.9062 118.434C25.9062 120.543 26.5039 122.289 27.7695 123.895C28.8477 125.277 30.5937 126.414 32.375 126.895C33.418 127.176 35.5391 127.176 36.6523 126.883C38.5391 126.402 40.4023 125.172 41.4805 123.73C42.0781 122.922 42.8164 121.434 48.3594 109.762L52.2031 101.676L58.707 97.9258C62.2812 95.8633 65.2578 94.1523 65.3164 94.1406C65.375 94.1172 65.4219 97.2695 65.4219 101.699L65.4101 109.293L58.7891 118.902C55.1445 124.187 52.0156 128.828 51.8281 129.215C51.2422 130.445 51.0781 131.289 51.0664 132.965C51.0664 134.676 51.2773 135.555 52.0039 137.008C53.0703 139.105 55.2148 140.805 57.5703 141.426C58.6133 141.695 60.7695 141.695 61.7891 141.414C62.8086 141.133 64.0625 140.535 64.7539 140.02C65.0586 139.773 65.3281 139.586 65.3516 139.586C65.3867 139.586 65.4219 141.262 65.4453 143.312C65.4922 146.816 65.5039 147.074 65.7617 147.789C66.8047 150.73 68.8203 152.723 71.6328 153.613C72.5 153.895 72.8281 153.93 74.0937 153.93C75.2891 153.93 75.7226 153.883 76.4375 153.66C79.332 152.758 81.3828 150.754 82.4258 147.789C82.6836 147.074 82.6953 146.816 82.7422 143.312C82.7656 141.262 82.8008 139.586 82.8359 139.586C82.8594 139.586 83.1289 139.773 83.4336 140.02C84.1016 140.523 85.3437 141.109 86.3984 141.414C87.418 141.695 89.5508 141.707 90.6172 141.426C92.9844 140.805 95.0937 139.129 96.1836 137.008C96.9101 135.566 97.1211 134.676 97.1211 132.965C97.1211 131.277 96.9453 130.445 96.3594 129.227C96.1719 128.84 93.043 124.187 89.3984 118.902L82.7773 109.293L82.7656 101.699C82.7656 97.3164 82.8125 94.1172 82.8711 94.1406C82.9297 94.1523 85.9062 95.8633 89.4805 97.9258L95.9844 101.676L99.8281 109.762C105.559 121.832 106.203 123.133 106.859 123.941C108.84 126.344 112.18 127.586 115.18 127.012C119.656 126.156 122.703 122.113 122.246 117.637C122.211 117.238 122.188 116.898 122.199 116.875C122.211 116.863 123.477 117.566 125 118.445C127.906 120.121 128.785 120.508 130.227 120.73C134.035 121.316 138.066 119.066 139.508 115.539C140.891 112.129 140.082 108.367 137.422 105.848C136.625 105.098 136.039 104.699 133.707 103.375C132.184 102.508 130.941 101.758 130.93 101.723C130.93 101.687 131.129 101.594 131.387 101.523C132.031 101.324 133.473 100.352 134.199 99.6133C136.051 97.75 137.012 95.0078 136.672 92.5117C136.145 88.5156 133.203 85.5156 129.242 84.9062C128.07 84.7305 129.219 84.6601 112.754 85.9726L104.715 86.6172L98.1406 82.8437C94.5195 80.7578 91.5664 79.0351 91.5664 79C91.5664 78.9648 94.5195 77.2422 98.1406 75.1562L104.715 71.3828L112.754 72.0273C129.219 73.3398 128.07 73.2695 129.242 73.0937C131.492 72.7539 133.543 71.5703 134.844 69.8711C135.922 68.4648 136.449 67.1992 136.672 65.4883C137.012 62.9922 136.051 60.25 134.199 58.3867C133.473 57.6484 132.031 56.6758 131.387 56.4766C131.129 56.4062 130.93 56.3125 130.93 56.2773C130.941 56.2422 132.195 55.4922 133.719 54.625C136.285 53.1601 136.578 52.9609 137.562 51.9883C138.477 51.0859 138.711 50.7695 139.18 49.8203C139.824 48.4844 140.059 47.6523 140.152 46.2461C140.34 43.375 138.992 40.5508 136.59 38.8516C134.152 37.1055 130.941 36.707 128.234 37.7969C127.871 37.9492 126.371 38.7578 124.906 39.6133C123.43 40.457 122.211 41.1367 122.199 41.125C122.188 41.1016 122.211 40.7617 122.246 40.3516C122.645 36.5078 120.371 32.8164 116.762 31.4336C113.27 30.0976 109.227 31.1641 106.871 34.0586C106.145 34.9492 106.074 35.1016 100.637 46.5391C98.1523 51.7891 96.0195 56.1719 95.9141 56.2773C95.7383 56.4531 82.9297 63.8828 82.8125 63.8828C82.7891 63.8828 82.7656 60.4726 82.7656 56.2891L82.7773 48.707L89.3984 39.0976C93.043 33.8125 96.1719 29.1601 96.3594 28.7734C96.9453 27.5547 97.1211 26.7226 97.1211 25.0351C97.1211 23.3242 96.9101 22.4336 96.1836 20.9922C95.0937 18.8711 92.9844 17.1953 90.6172 16.5742C89.5508 16.293 87.418 16.3047 86.3984 16.5859C85.3437 16.8906 84.1016 17.4765 83.4336 17.9805C83.1289 18.2265 82.8594 18.414 82.8359 18.414C82.8008 18.414 82.7656 16.7383 82.7422 14.6875C82.6953 11.1836 82.6836 10.9258 82.4258 10.2109C81.1133 6.49608 78.0781 4.16405 74.3867 4.05858C73.7422 4.03514 73.0625 4.04686 72.8633 4.0703ZM75.7109 8.82811C76.5195 9.1328 77.5156 10.0937 77.9375 10.9961L78.2539 11.6758L78.3125 22L78.3711 32.3359L81.7695 27.4023C83.6445 24.6836 85.3672 22.2695 85.6016 22.0234C87.1133 20.5 89.6914 20.4648 91.3789 21.9414C92.5976 23.0195 93.0664 25.1406 92.4101 26.6172C92.2812 26.9101 89.0586 31.6797 85.25 37.2109L78.3125 47.2656V59.4414C78.3125 66.1445 78.3476 71.6172 78.4062 71.6172C78.4531 71.6055 83.2109 68.8867 88.9766 65.5469L99.4531 59.4883L104.68 48.5078C107.551 42.4609 110.07 37.293 110.27 37C111.043 35.8984 112.613 35.1953 113.961 35.3359C115.438 35.4883 116.902 36.5195 117.477 37.832C117.77 38.5117 117.887 39.7773 117.699 40.4922C117.629 40.7734 116.41 43.457 114.992 46.4336C113.574 49.4101 112.414 51.8945 112.414 51.9531C112.414 52.0117 112.613 51.9297 112.859 51.7773C114.312 50.8633 129.746 42.0156 130.156 41.875C130.871 41.5937 132.242 41.6406 133.062 41.957C134 42.3203 134.82 43.1055 135.289 44.0547C135.629 44.7578 135.664 44.9453 135.664 45.8359C135.652 46.6914 135.605 46.9375 135.301 47.5937C135.102 48.0273 134.727 48.5664 134.434 48.8476C134.105 49.1523 130.895 51.0742 125.551 54.1562C120.957 56.8047 117.066 59.0312 116.914 59.1016C116.762 59.1719 116.633 59.2656 116.633 59.3008C116.633 59.3359 119.387 59.5937 122.762 59.8633C127.953 60.2734 128.984 60.3906 129.547 60.6016C130.438 60.9297 131.41 61.8203 131.832 62.6875C132.125 63.2851 132.16 63.4844 132.16 64.5273C132.16 65.582 132.125 65.7578 131.832 66.3203C131.105 67.7031 129.875 68.5586 128.48 68.6641C128.047 68.6875 122.492 68.3008 115.684 67.75L103.66 66.7891L93.1836 72.8359C87.418 76.1641 82.6953 78.9297 82.6719 78.9766C82.6601 79.0234 87.3711 81.8008 93.1601 85.1406L103.672 91.2109L115.684 90.25C122.41 89.7109 128.047 89.3125 128.469 89.3359C129.84 89.4414 131.047 90.25 131.762 91.5625C132.137 92.2656 132.16 92.3594 132.16 93.4727C132.16 94.5156 132.125 94.7148 131.832 95.3125C131.633 95.7109 131.246 96.2148 130.871 96.5664C129.758 97.5742 129.711 97.5859 122.727 98.1484L116.574 98.6406L117.688 99.2969C118.297 99.6602 122.199 101.91 126.359 104.312C131.199 107.102 134.105 108.848 134.434 109.152C134.727 109.434 135.102 109.973 135.301 110.406C135.605 111.062 135.652 111.309 135.664 112.164C135.664 113.055 135.629 113.242 135.289 113.945C134.82 114.895 134 115.68 133.062 116.043C132.254 116.359 130.871 116.406 130.156 116.137C129.781 115.996 117.324 108.859 113.27 106.469C112.801 106.187 112.414 106 112.414 106.047C112.414 106.094 113.574 108.578 114.992 111.566C116.41 114.543 117.629 117.227 117.699 117.508C117.887 118.223 117.77 119.488 117.477 120.168C117.113 120.988 116.176 121.914 115.309 122.312C114.324 122.758 113.152 122.781 112.074 122.371C110.949 121.937 110.258 121.199 109.496 119.605C109.156 118.891 107.141 114.672 105.031 110.23C102.922 105.777 100.801 101.324 100.32 100.316L99.4414 98.5L88.9531 92.4414C83.1875 89.1133 78.4297 86.3828 78.3828 86.3828C78.3476 86.3828 78.3125 91.8555 78.3125 98.5586V110.734L85.25 120.789C89.0586 126.32 92.2812 131.09 92.4101 131.383C93.0664 132.859 92.5976 134.98 91.3789 136.059C89.6914 137.535 87.1133 137.5 85.6016 135.977C85.3672 135.73 83.6445 133.316 81.7695 130.598L78.3711 125.664L78.3125 136L78.2539 146.324L77.9375 147.004C77.5039 147.93 76.5312 148.867 75.6523 149.195C74.7266 149.547 73.4609 149.547 72.5351 149.195C71.6562 148.867 70.6836 147.93 70.25 147.004L69.9336 146.324L69.875 136L69.8164 125.664L66.418 130.598C64.5547 133.316 62.8203 135.73 62.5859 135.977C61.0742 137.5 58.4961 137.535 56.8086 136.059C55.5898 134.98 55.1211 132.859 55.7773 131.383C55.9062 131.09 59.1289 126.32 62.9375 120.789L69.875 110.734V98.5469C69.875 88.1055 69.8516 86.3711 69.7109 86.418C69.4297 86.5234 48.9687 98.3594 48.8164 98.5C48.7344 98.5703 46.4492 103.293 43.7422 109C41.0234 114.707 38.6445 119.711 38.4453 120.133C37.1094 122.922 33.6172 123.531 31.5547 121.352C31.2266 121 30.8398 120.473 30.7109 120.168C30.4062 119.488 30.3008 118.223 30.4883 117.484C30.5703 117.191 31.7891 114.508 33.1953 111.543C34.6133 108.566 35.7734 106.094 35.7734 106.059C35.7734 106.012 31.8594 108.238 27.0664 111.004C22.2852 113.77 18.1602 116.102 17.9023 116.184C17.6445 116.254 17.0703 116.312 16.6133 116.312C14.9727 116.289 13.6133 115.422 12.8984 113.945C12.5586 113.242 12.5234 113.055 12.5234 112.164C12.5234 110.922 12.8984 110.008 13.7187 109.199C14.1172 108.812 16.3906 107.441 21.8281 104.312C25.9883 101.91 29.8906 99.6602 30.5 99.2969L31.6133 98.6406L25.4609 98.1484C18.4766 97.5859 18.4297 97.5742 17.3164 96.5664C16.9414 96.2148 16.5547 95.7109 16.3555 95.3125C16.0625 94.7148 16.0273 94.5156 16.0273 93.4727C16.0273 92.4883 16.0742 92.2187 16.3086 91.75C16.9766 90.3789 18.3125 89.4414 19.707 89.3359C20.1406 89.3125 25.6836 89.6992 32.4922 90.25L44.5156 91.2109L55.0273 85.1406C60.8164 81.8008 65.5273 79.0351 65.5156 78.9766C65.4922 78.9297 60.7695 76.1641 55.0039 72.8359L44.5156 66.7891L32.5039 67.75C25.6953 68.3008 20.1406 68.6875 19.707 68.6641C18.3125 68.5586 16.9766 67.6211 16.3086 66.25C16.0742 65.7812 16.0273 65.5117 16.0273 64.5273C16.0273 63.4844 16.0625 63.2851 16.3555 62.6875C16.5547 62.2891 16.9414 61.7851 17.3164 61.4336C18.4297 60.4258 18.4766 60.4141 25.4609 59.8516L31.6133 59.3594L30.5 58.7031C29.8906 58.3398 25.9883 56.0898 21.8281 53.6875C16.4023 50.5586 14.1172 49.1875 13.7187 48.8008C12.8984 47.9922 12.5234 47.0781 12.5234 45.8359C12.5234 44.9453 12.5586 44.7578 12.8984 44.0547C13.3672 43.1055 14.1875 42.3203 15.125 41.957C15.9336 41.6406 17.3164 41.5937 18.0312 41.8633C18.4062 42.0039 30.793 49.0937 34.918 51.5312C35.3867 51.8125 35.7734 52 35.7734 51.9531C35.7734 51.9062 34.6133 49.4336 33.1953 46.457C31.7773 43.4805 30.5586 40.7969 30.4883 40.5039C30.3008 39.7773 30.4062 38.5117 30.7109 37.832C31.2852 36.5195 32.75 35.4883 34.2266 35.3359C35.5859 35.1836 37.3203 36.0039 38.0117 37.1172C38.1641 37.3633 40.6367 42.4961 43.5078 48.5312L48.7226 59.4883L59.2109 65.5469C64.9766 68.8867 69.7344 71.6055 69.793 71.6172C69.8398 71.6172 69.875 66.1445 69.875 59.4414V47.2656L62.9375 37.2109C59.1289 31.6797 55.9062 26.9101 55.7773 26.6172C55.1211 25.1406 55.5898 23.0195 56.8086 21.9414C58.4961 20.4648 61.0742 20.5 62.5859 22.0234C62.8203 22.2695 64.5547 24.6836 66.418 27.4023L69.8164 32.3359L69.875 22L69.9336 11.6758L70.25 11.0078C71.2226 8.92186 73.4961 8.01952 75.7109 8.82811Z" stroke="black" stroke-opacity="0.8" stroke-width="2" shape-rendering="crispEdges" mask="url(#path-1-inside-1_158_85)"/>
</g>
</g>
</g>
<defs>
<filter id="filter0_dddd_158_85" x="0" y="0" width="144.188" height="162" filterUnits="userSpaceOnUse" color-interpolation-filters="sRGB">
<feFlood flood-opacity="0" result="BackgroundImageFix"/>
<feColorMatrix in="SourceAlpha" type="matrix" values="0 0 0 0 0 0 0 0 0 0 0 0 0 0 0 0 0 0 127 0" result="hardAlpha"/>
<feOffset dx="-4"/>
<feGaussianBlur stdDeviation="2"/>
<feComposite in2="hardAlpha" operator="out"/>
<feColorMatrix type="matrix" values="0 0 0 0 1 0 0 0 0 1 0 0 0 0 1 0 0 0 0.5 0"/>
<feBlend mode="normal" in2="BackgroundImageFix" result="effect1_dropShadow_158_85"/>
<feColorMatrix in="SourceAlpha" type="matrix" values="0 0 0 0 0 0 0 0 0 0 0 0 0 0 0 0 0 0 127 0" result="hardAlpha"/>
<feOffset dy="4"/>
<feGaussianBlur stdDeviation="2"/>
<feComposite in2="hardAlpha" operator="out"/>
<feColorMatrix type="matrix" values="0 0 0 0 1 0 0 0 0 1 0 0 0 0 1 0 0 0 0.5 0"/>
<feBlend mode="normal" in2="effect1_dropShadow_158_85" result="effect2_dropShadow_158_85"/>
<feColorMatrix in="SourceAlpha" type="matrix" values="0 0 0 0 0 0 0 0 0 0 0 0 0 0 0 0 0 0 127 0" result="hardAlpha"/>
<feOffset dy="4"/>
<feGaussianBlur stdDeviation="2"/>
<feComposite in2="hardAlpha" operator="out"/>
<feColorMatrix type="matrix" values="0 0 0 0 0 0 0 0 0 0 0 0 0 0 0 0 0 0 0.25 0"/>
<feBlend mode="normal" in2="effect2_dropShadow_158_85" result="effect3_dropShadow_158_85"/>
<feColorMatrix in="SourceAlpha" type="matrix" values="0 0 0 0 0 0 0 0 0 0 0 0 0 0 0 0 0 0 127 0" result="hardAlpha"/>
<feOffset dy="4"/>
<feGaussianBlur stdDeviation="2"/>
<feComposite in2="hardAlpha" operator="out"/>
<feColorMatrix type="matrix" values="0 0 0 0 0 0 0 0 0 0 0 0 0 0 0 0 0 0 0.25 0"/>
<feBlend mode="normal" in2="effect3_dropShadow_158_85" result="effect4_dropShadow_158_85"/>
<feBlend mode="normal" in="SourceGraphic" in2="effect4_dropShadow_158_85" result="shape"/>
</filter>
<filter id="filter1_dd_158_85" x="4.01392" y="4.0459" width="140.159" height="157.884" filterUnits="userSpaceOnUse" color-interpolation-filters="sRGB">
<feFlood flood-opacity="0" result="BackgroundImageFix"/>
<feColorMatrix in="SourceAlpha" type="matrix" values="0 0 0 0 0 0 0 0 0 0 0 0 0 0 0 0 0 0 127 0" result="hardAlpha"/>
<feOffset dy="4"/>
<feGaussianBlur stdDeviation="2"/>
<feComposite in2="hardAlpha" operator="out"/>
<feColorMatrix type="matrix" values="0 0 0 0 0 0 0 0 0 0 0 0 0 0 0 0 0 0 0.25 0"/>
<feBlend mode="normal" in2="BackgroundImageFix" result="effect1_dropShadow_158_85"/>
<feColorMatrix in="SourceAlpha" type="matrix" values="0 0 0 0 0 0 0 0 0 0 0 0 0 0 0 0 0 0 127 0" result="hardAlpha"/>
<feOffset dy="4"/>
<feGaussianBlur stdDeviation="2"/>
<feComposite in2="hardAlpha" operator="out"/>
<feColorMatrix type="matrix" values="0 0 0 0 0 0 0 0 0 0 0 0 0 0 0 0 0 0 0.25 0"/>
<feBlend mode="normal" in2="effect1_dropShadow_158_85" result="effect2_dropShadow_158_85"/>
<feBlend mode="normal" in="SourceGraphic" in2="effect2_dropShadow_158_85" result="shape"/>
</filter>
<filter id="filter2_dd_158_85" x="-11.9861" y="-15.9541" width="172.159" height="189.884" filterUnits="userSpaceOnUse" color-interpolation-filters="sRGB">
<feFlood flood-opacity="0" result="BackgroundImageFix"/>
<feColorMatrix in="SourceAlpha" type="matrix" values="0 0 0 0 0 0 0 0 0 0 0 0 0 0 0 0 0 0 127 0" result="hardAlpha"/>
<feOffset dx="10" dy="10"/>
<feGaussianBlur stdDeviation="5"/>
<feComposite in2="hardAlpha" operator="out"/>
<feColorMatrix type="matrix" values="0 0 0 0 1 0 0 0 0 1 0 0 0 0 1 0 0 0 0.5 0"/>
<feBlend mode="normal" in2="BackgroundImageFix" result="effect1_dropShadow_158_85"/>
<feColorMatrix in="SourceAlpha" type="matrix" values="0 0 0 0 0 0 0 0 0 0 0 0 0 0 0 0 0 0 127 0" result="hardAlpha"/>
<feOffset dx="-10" dy="-10"/>
<feGaussianBlur stdDeviation="5"/>
<feComposite in2="hardAlpha" operator="out"/>
<feColorMatrix type="matrix" values="0 0 0 0 1 0 0 0 0 1 0 0 0 0 1 0 0 0 0.5 0"/>
<feBlend mode="normal" in2="effect1_dropShadow_158_85" result="effect2_dropShadow_158_85"/>
<feBlend mode="normal" in="SourceGraphic" in2="effect2_dropShadow_158_85" result="shape"/>
</filter>
<clipPath id="clip0_158_85">
<rect width="132.188" height="150" fill="white" transform="translate(8 4)"/>
</clipPath>
</defs>
</svg>
