<svg width="43" height="30" viewBox="0 0 43 30" fill="none" xmlns="http://www.w3.org/2000/svg">
<path d="M8.80496 0.5H33.5904C38.1771 0.5 41.8953 4.21825 41.8953 8.80496V21.195C41.8953 25.7817 38.1771 29.5 33.5904 29.5H8.80496C4.21826 29.5 0.5 25.7817 0.5 21.195V8.80496C0.5 4.21825 4.21826 0.5 8.80496 0.5ZM16.2579 21.5832L27.8508 16.0541C28.5742 15.7092 28.5866 14.6839 27.8717 14.3216C27.8716 14.3216 27.8716 14.3216 27.8716 14.3216L16.2787 8.44689C15.6366 8.12142 14.877 8.58807 14.877 9.308V20.7119C14.877 21.4216 15.6171 21.8889 16.2579 21.5832Z" fill="#F61C0D" fill-opacity="0.7" stroke="black"/>
</svg>
