<svg width="40" height="40" viewBox="0 0 40 40" fill="none" xmlns="http://www.w3.org/2000/svg">
<g id="parameters-icon 1" opacity="0.8" clip-path="url(#clip0_223_1965)">
<g id="Group">
<path id="Vector" d="M18.4688 0.0313339C17.8969 0.10321 17.4188 0.287586 17.1282 0.550083C16.8344 0.815708 16.6188 1.27196 16.5125 1.85946C16.4438 2.24696 16.4344 3.38134 16.4969 4.15321C16.5188 4.43134 16.5407 4.81884 16.5407 5.01258C16.5438 5.31571 16.5375 5.37508 16.475 5.49071C16.3657 5.70008 16.2157 5.76571 15.5282 5.90946C14.8219 6.05634 14.7938 6.06571 13.6969 6.57196C12.8282 6.97196 12.2188 7.22821 12.0438 7.26571C11.9469 7.28446 11.9313 7.26883 11.3719 6.61884C10.6813 5.81571 10.075 5.19071 9.72503 4.91571C8.71878 4.12508 7.90315 4.06884 7.01565 4.73133C6.68753 4.97821 6.48128 5.17821 5.95628 5.74696C5.6969 6.03133 5.36253 6.39383 5.21565 6.55321C4.7969 7.00008 4.56253 7.35946 4.4219 7.76571C4.35003 7.97196 4.32503 8.39071 4.3719 8.63446C4.41878 8.87196 4.66565 9.38758 4.85315 9.63446C5.05315 9.89384 5.5344 10.4345 5.74378 10.6282C5.84065 10.7188 6.18128 11.047 6.4969 11.3563C7.0344 11.8813 7.06878 11.922 7.02815 11.9813C6.75628 12.4095 6.35315 13.1188 6.14378 13.547C5.75628 14.3345 5.54065 14.8938 5.20628 15.9688C5.10628 16.2907 5.04378 16.447 4.98753 16.497C4.8719 16.6063 4.58128 16.6251 3.56253 16.5876C2.21253 16.5407 1.63753 16.5845 1.17815 16.7657C0.556278 17.0157 0.212528 17.5095 0.0562777 18.3751C-0.00934733 18.747 0.00315267 20.9782 0.0750277 21.3876C0.243778 22.372 0.690653 22.9563 1.4719 23.2032C1.9969 23.3688 2.26565 23.3876 3.7969 23.3813L5.20315 23.372L5.35315 23.8501C5.5719 24.5438 5.80628 25.1188 6.1594 25.8282C6.50003 26.5188 6.75628 26.947 7.06878 27.3407C7.18128 27.4813 7.28128 27.6313 7.28753 27.672C7.31253 27.8032 7.22815 27.9313 6.90003 28.2438C4.84065 30.2095 4.66253 30.397 4.3969 30.922C4.13128 31.4501 4.1469 32.0032 4.44378 32.5282C4.6844 32.9595 5.19065 33.5626 5.86253 34.2282C6.40628 34.7626 6.7469 35.0501 7.15628 35.3282C7.8344 35.7845 8.37503 35.8313 9.0469 35.5001C9.53753 35.2563 9.94065 34.9001 10.7813 33.9657C11.2875 33.4063 12.3625 32.2751 12.4063 32.2563C12.4188 32.2532 12.6219 32.347 12.8625 32.4657C13.7657 32.9157 14.9 33.3313 15.9375 33.5938C16.2188 33.6657 16.4907 33.7438 16.5375 33.7688C16.6375 33.822 16.6438 33.8751 16.5938 34.3126C16.5625 34.6095 16.4938 36.6063 16.4938 37.4063C16.4907 38.0063 16.55 38.4251 16.6907 38.7751C16.9594 39.4532 17.4188 39.772 18.3594 39.9282C19.0282 40.0376 21.3282 39.9751 21.8813 39.8282C22.7188 39.6095 23.1907 38.9657 23.3782 37.7813C23.4375 37.4188 23.4313 36.2813 23.3657 35.422C23.2375 33.747 23.2375 33.7845 23.2844 33.7313C23.3375 33.6657 23.3907 33.647 24 33.4688C24.975 33.1845 25.7219 32.8907 26.6782 32.4188L27.3407 32.0907L27.4625 32.2251C27.5282 32.3001 27.6594 32.4438 27.7532 32.5501C28.4969 33.3876 29.4188 34.3782 29.6782 34.6251C30.4032 35.3126 31.0157 35.6251 31.6438 35.6251C32.1094 35.6251 32.5375 35.4532 32.9625 35.1001C33.7813 34.4126 34.9094 33.2938 35.1813 32.9001C35.4688 32.4813 35.6563 31.997 35.6563 31.672C35.6563 31.472 35.5594 31.1282 35.425 30.8595C35.1594 30.3251 34.7907 29.9095 33.7063 28.9407C33.3282 28.6032 32.9125 28.2376 32.7844 28.1251C32.2594 27.6782 32.2594 27.6626 32.7063 26.9188C33.225 26.0501 33.7344 24.9563 34.0313 24.0657C34.1563 23.6876 34.1907 23.622 34.3438 23.4907C34.5563 23.3095 34.7688 23.2657 35.3907 23.2688C35.6844 23.272 36.1532 23.2938 36.4375 23.322C37.2969 23.4063 37.6157 23.4157 38 23.3751C38.9438 23.2751 39.475 22.9063 39.7032 22.1876C39.9188 21.497 40.0032 19.5907 39.8594 18.5938C39.7657 17.9313 39.5907 17.4501 39.3594 17.1907C39.0938 16.897 38.6282 16.6813 38.0469 16.5782C37.6782 16.5126 36.6625 16.5032 35.95 16.5626C35.7063 16.5813 35.3282 16.6001 35.1063 16.6032C34.4219 16.6126 34.3032 16.5126 34.1282 15.7595C33.95 15.0001 33.8625 14.7657 33.525 14.1501C33.0875 13.3532 32.8625 12.897 32.7782 12.6407C32.6969 12.3907 32.6813 12.0782 32.7469 11.9595C32.7688 11.9157 33.0375 11.6563 33.3407 11.3845C34.7 10.1626 35.2469 9.48133 35.4219 8.79696C35.4813 8.55946 35.4813 8.09696 35.4219 7.85946C35.3594 7.61571 35.1313 7.15633 34.9532 6.92196C34.8125 6.73446 34.0969 5.95008 33.5157 5.35009C32.7875 4.59383 32.2125 4.26883 31.6219 4.27509C31.3125 4.28133 31.1407 4.32196 30.8282 4.46883C30.275 4.72821 29.6563 5.27509 28.7657 6.29696C28.0094 7.16571 27.875 7.29071 27.6407 7.34383C27.4563 7.38446 27.2657 7.31884 26.8344 7.05634C26.2344 6.69071 26.0688 6.61571 25.4813 6.43758C24.35 6.09383 24.1313 6.02196 23.8907 5.90633C23.5782 5.75946 23.3938 5.62508 23.325 5.49696C23.2813 5.40633 23.2782 5.34383 23.3094 4.90946C23.425 3.26571 23.4282 2.74696 23.3282 2.12508C23.1782 1.20321 22.825 0.650085 22.1782 0.325085C21.8407 0.15321 21.5407 0.0969582 20.7969 0.0625839C19.7532 0.0125847 18.7219 8.39233e-05 18.4688 0.0313339ZM20.6282 14.5188C21.9969 14.6876 23.3188 15.347 24.1282 16.2657C24.8657 17.1001 25.2657 18.0907 25.3438 19.2657C25.5375 22.197 23.725 24.3657 20.6875 24.8345C20.2094 24.9063 19.2125 24.9063 18.7532 24.8345C18.0844 24.7282 17.5125 24.5532 16.9688 24.2938C16.3282 23.9876 15.8844 23.6688 15.4157 23.1782C14.5532 22.2751 14.0938 21.0595 14.0938 19.672C14.0938 17.4626 15.2719 15.7188 17.3125 14.9095C18.3407 14.5032 19.4469 14.372 20.6282 14.5188Z" fill="#071A3E"/>
</g>
</g>
<defs>
<clipPath id="clip0_223_1965">
<rect width="39.9375" height="40" fill="white"/>
</clipPath>
</defs>
</svg>
