<svg width="49" height="48" viewBox="0 0 49 48" fill="none" xmlns="http://www.w3.org/2000/svg">
<g filter="url(#filter0_d_156_46)">
<path d="M24.7779 0.57185L24.7779 0.571882L24.7723 0.572737C23.2071 0.810596 21.835 1.55411 20.7563 2.75325C20.7561 2.75348 20.7559 2.75372 20.7557 2.75395L20.5523 2.98246L20.2902 3.27682L19.9427 3.0907L19.6777 2.94872L19.6759 2.94777C17.1318 1.57179 13.9358 2.04974 11.8619 4.12028C10.9394 5.04585 10.358 6.1175 10.0429 7.49539C10.0332 7.53953 10.0138 7.61025 9.96963 7.68543C9.92055 7.76894 9.85598 7.83274 9.78606 7.87998C9.67833 7.95278 9.55233 7.98616 9.48571 8.00381L9.48456 8.00412C9.08161 8.11694 8.57609 8.30482 8.22565 8.47561C6.25935 9.43822 4.89068 11.299 4.55268 13.4828L4.55267 13.4828C4.52379 13.6692 4.50407 14.0264 4.50056 14.4064C4.49704 14.787 4.51031 15.1357 4.53459 15.3075C4.96168 18.2628 7.12393 20.5028 10.0501 21.0263L10.0501 21.0263L10.0534 21.0269C10.3629 21.0844 10.4799 21.0942 11.1588 21.091V21.091H11.1611C11.9716 21.091 12.1773 21.0683 12.7572 20.9204L12.7579 20.9202C13.4291 20.7502 14.2108 20.409 14.7557 20.0525L15.0486 19.8604L15.2283 19.7425L15.4374 19.7917L15.5983 19.8296L15.5986 19.8297C16.4604 20.033 16.8866 20.0801 17.6088 20.0595L17.6093 20.0595C18.1458 20.0446 18.5953 19.983 19.053 19.8694L19.2718 19.8131L19.5137 19.7509L19.7087 19.9069L19.9441 20.0953C19.9443 20.0954 19.9445 20.0956 19.9447 20.0958C20.8434 20.8099 21.9564 21.292 23.1224 21.4623L23.1259 21.4628C23.5536 21.5284 24.4375 21.5404 24.8416 21.4923C26.0656 21.339 27.31 20.8159 28.2078 20.084C28.2081 20.0838 28.2083 20.0836 28.2085 20.0834L28.4374 19.8953L28.704 19.6762L29.0035 19.8478L29.2836 20.0083C29.2838 20.0084 29.284 20.0085 29.2842 20.0086C30.0723 20.4585 30.9517 20.7526 31.8568 20.8644C32.0101 20.8826 32.3133 20.8938 32.6355 20.8938C32.9593 20.8938 33.2522 20.8825 33.388 20.865C34.0547 20.776 34.8289 20.5579 35.3492 20.3193L35.3495 20.3192L35.6114 20.1993L35.7465 20.1374L35.8935 20.1594L36.293 20.2192C36.2932 20.2192 36.2934 20.2193 36.2935 20.2193C36.7829 20.2911 37.6788 20.2907 38.1417 20.2197C39.6593 19.9869 40.9936 19.2937 42.0297 18.2047C42.9829 17.2016 43.5703 16.0014 43.801 14.5729L43.801 14.5728C43.8292 14.3981 43.849 14.0477 43.8526 13.6686C43.8561 13.2903 43.8428 12.9405 43.8185 12.7667C43.5264 10.7479 42.4246 9.03836 40.7334 7.96961C39.7956 7.3777 38.4545 6.97079 37.4651 6.96468H37.2394H37.0323L36.8858 6.81823L36.5293 6.4617L36.527 6.45942C35.3872 5.30493 33.9705 4.63907 32.3183 4.48566L32.3147 4.48531L32.0939 4.46322L31.832 4.43704L31.7053 4.20634L31.5301 3.88723C31.5299 3.88678 31.5297 3.88634 31.5294 3.8859C30.7451 2.47911 29.3879 1.35617 27.8337 0.840065L27.8326 0.83971C27.0392 0.574247 26.04 0.452642 25.1935 0.51696C25.1313 0.522028 24.9418 0.545029 24.7779 0.57185Z" fill="#B5AD94" stroke="black"/>
<path d="M14.5794 25.403L14.5789 25.4038C14.3957 25.6808 14.3041 25.8569 14.256 26.0027C14.2119 26.1367 14.1967 26.2686 14.2096 26.4686L14.2096 26.4696C14.2497 27.1155 14.6945 27.6462 15.3222 27.7969C15.5488 27.8506 15.898 27.8329 16.1123 27.7582C16.5447 27.6033 16.8725 27.2739 17.021 26.8426L17.021 26.8426L17.0224 26.8385C17.0467 26.77 17.0725 26.6102 17.0699 26.3569C17.0674 26.1159 17.0399 25.8285 16.9859 25.5292L16.9857 25.5281C16.8646 24.8484 16.6509 23.9285 16.4341 23.1662C16.4295 23.1708 16.425 23.1755 16.4203 23.1803C16.2478 23.3577 16.0251 23.6035 15.7891 23.8758C15.3125 24.4258 14.8126 25.0488 14.5794 25.403Z" fill="#B5AD94" stroke="black"/>
<path d="M26.2217 25.0603L26.2216 25.0604C25.9349 25.4458 25.7876 25.6781 25.7067 25.8652C25.6349 26.0313 25.6093 26.1761 25.6105 26.4016C25.6133 26.6417 25.6222 26.6858 25.6683 26.8202C25.8395 27.3139 26.2324 27.677 26.7121 27.7983C26.7767 27.8144 26.9001 27.8282 27.0478 27.8282C27.1953 27.8282 27.3184 27.8145 27.3832 27.7984C27.6491 27.7306 27.8507 27.6151 28.0648 27.3985C28.2825 27.1783 28.379 27.0063 28.4436 26.7506L28.4435 26.7506L28.4444 26.7474C28.4836 26.5959 28.4909 26.2712 28.4099 25.7107C28.3316 25.1696 28.1804 24.4663 27.9524 23.5949C27.9059 23.4175 27.8689 23.2772 27.8373 23.1645C27.7063 23.2999 27.5427 23.4776 27.3652 23.6774C26.9643 24.1285 26.511 24.671 26.2217 25.0603Z" fill="#B5AD94" stroke="black"/>
<path d="M37.6857 24.9782L37.6854 24.9786C37.3368 25.4393 37.1485 25.7501 37.0677 25.9569L37.0678 25.9569L37.0656 25.9623C37.0492 26.0028 37.0451 26.0187 37.0409 26.0534C37.0345 26.1075 37.0311 26.1926 37.0295 26.3765C37.0295 26.561 37.0323 26.648 37.039 26.7069C37.0438 26.7502 37.0507 26.7802 37.0738 26.8462L37.0739 26.8462L37.0748 26.8489C37.2696 27.4144 37.7757 27.794 38.3781 27.8249C39.0508 27.8574 39.6069 27.4817 39.8454 26.7819C39.8592 26.7406 39.8783 26.6324 39.8754 26.4287C39.8726 26.2338 39.8505 25.9848 39.8065 25.6835C39.7185 25.0815 39.548 24.3037 39.2973 23.3928L39.297 23.3915C39.2739 23.3066 39.2534 23.2332 39.235 23.1694C39.1079 23.3021 38.9505 23.4737 38.7805 23.6649C38.3927 24.1011 37.9568 24.6193 37.6857 24.9782Z" fill="#B5AD94" stroke="black"/>
<path d="M20.9302 25.8732C20.9302 25.873 20.9279 25.8744 20.923 25.878C20.9277 25.8752 20.9301 25.8734 20.9302 25.8732ZM20.7043 26.0847C20.5779 26.215 20.4073 26.401 20.1765 26.6598L20.1763 26.66C19.3081 27.6325 18.7929 28.3316 18.5971 28.7528L18.5971 28.7528L18.5963 28.7544C18.2345 29.5256 18.6874 30.4906 19.5905 30.7185C19.5924 30.7189 19.5958 30.7196 19.601 30.7205C19.6093 30.7219 19.62 30.7235 19.6332 30.7253C19.6598 30.7289 19.6926 30.7326 19.7292 30.7358C19.8024 30.7421 19.8811 30.746 19.9455 30.7461C20.5426 30.7379 21.0716 30.3626 21.2828 29.7833C21.3334 29.6399 21.362 29.3582 21.3087 28.8639C21.2566 28.3818 21.1334 27.7517 20.9308 26.9477C20.8397 26.5873 20.7722 26.3233 20.7166 26.1275C20.7124 26.1127 20.7083 26.0984 20.7043 26.0847ZM20.5959 25.7751C20.5959 25.7751 20.5962 25.7756 20.5968 25.7766L20.5959 25.7751Z" fill="#B5AD94" stroke="black"/>
<path d="M30.2566 28.3078L30.2566 28.3078L30.2552 28.3098C30.0757 28.5768 29.9902 28.7336 29.9437 28.8631C29.9015 28.9808 29.8828 29.1001 29.8828 29.3056C29.8828 29.7002 30.0034 30.0039 30.2799 30.2973L30.2799 30.2973L30.2811 30.2986C30.5589 30.5954 30.8905 30.7413 31.2813 30.7461C31.5522 30.7485 31.6898 30.7194 31.933 30.6065L31.933 30.6064L31.9372 30.6045C32.3048 30.4378 32.6195 30.0602 32.7186 29.6614L32.7186 29.6614L32.719 29.66C32.7547 29.518 32.7648 29.2409 32.7007 28.759C32.6384 28.2906 32.5132 27.6768 32.3179 26.8895C32.2258 26.5211 32.1591 26.2638 32.1076 26.0829C31.9388 26.2538 31.7222 26.4899 31.4911 26.7543C31.0182 27.2953 30.5141 27.9208 30.2566 28.3078ZM32.004 25.7722C32.004 25.7723 32.0045 25.7732 32.0055 25.775C32.0045 25.773 32.004 25.7722 32.004 25.7722Z" fill="#B5AD94" stroke="black"/>
<path d="M25.5113 33.6316C24.8203 34.2879 23.7917 34.3478 23.006 33.7735C22.7063 33.5527 22.4507 33.1835 22.3308 32.8049C22.2361 32.502 22.2203 32.0129 22.3024 31.7352L25.5113 33.6316ZM25.5113 33.6316C25.9972 33.1709 26.1739 32.6534 26.0982 31.9151L25.5113 33.6316ZM22.7501 32.2464C22.7548 32.4102 22.7781 32.5596 22.8078 32.6549C22.8986 32.9412 23.0951 33.2178 23.3019 33.3705C23.8974 33.8052 24.6559 33.7544 25.167 33.269L25.1673 33.2687C25.362 33.0841 25.4772 32.906 25.5422 32.7157C25.6083 32.5224 25.6334 32.2845 25.6008 31.9661L25.6006 31.9642C25.5334 31.2833 25.2756 30.06 24.9716 28.9996C24.9591 29.013 24.946 29.0271 24.9322 29.0421C24.2332 29.8007 23.7237 30.3973 23.3705 30.8707C23.0107 31.353 22.8419 31.6704 22.7826 31.8746L22.7826 31.8746L22.7819 31.8769C22.7616 31.9455 22.7454 32.0788 22.7501 32.2464Z" fill="#B5AD94" stroke="black"/>
<path d="M34.1512 32.2958L34.1511 32.2937C34.1395 32.0913 34.1563 31.9522 34.202 31.8139C34.2509 31.6659 34.3418 31.4913 34.5183 31.228L34.1512 32.2958ZM34.1512 32.2958C34.1773 32.7918 34.4355 33.2189 34.8468 33.4631C35.7735 34.0097 36.9496 33.3823 37.0148 32.3425C37.0254 32.1587 36.9976 31.8236 36.9172 31.3475C36.8384 30.8812 36.7148 30.31 36.5501 29.67L36.5501 29.67M34.1512 32.2958L36.5501 29.67M36.5501 29.67C36.473 29.3703 36.4173 29.1578 36.3745 29.005M36.5501 29.67L36.3745 29.005M36.3745 29.005C36.3366 29.0445 36.2927 29.0909 36.2415 29.1456C35.5273 29.9096 34.8567 30.7234 34.5184 31.228L36.3745 29.005Z" fill="#B5AD94" stroke="black"/>
<path d="M12.4598 33.631C13.2013 33.8071 13.991 33.3312 14.1856 32.582C14.2138 32.4722 14.2259 32.2311 14.1824 31.8274C14.1407 31.4396 14.0536 30.9492 13.9206 30.3711C13.826 29.9632 13.7159 29.5335 13.6221 29.1975C13.6031 29.1295 13.585 29.0659 13.568 29.0076C13.5528 29.0234 13.5372 29.0397 13.5212 29.0565C13.3369 29.25 13.1059 29.5027 12.8911 29.7484L12.891 29.7484C12.3692 30.3453 12.0028 30.8055 11.7557 31.1738C11.5062 31.5456 11.3995 31.793 11.3634 31.9666L11.3634 31.9666L11.3631 31.9681C11.2136 32.6748 11.7079 33.4537 12.459 33.6308L12.4598 33.631ZM13.4545 28.658C13.4545 28.6582 13.4557 28.6612 13.4581 28.6661C13.4557 28.6603 13.4545 28.6578 13.4545 28.658Z" fill="#B5AD94" stroke="black"/>
<path d="M16.0831 33.9948L16.0829 33.995C15.8671 34.2965 15.7079 34.6008 15.6578 34.7599L15.6578 34.7599L15.657 34.7624C15.6376 34.8229 15.6175 34.9531 15.6154 35.1187C15.6134 35.2822 15.6296 35.423 15.6507 35.5003L15.6507 35.5003L15.6515 35.5035C15.7782 35.9803 16.2137 36.4127 16.6928 36.5389C16.7654 36.5566 16.8982 36.5716 17.0523 36.5719C17.21 36.5722 17.3366 36.5572 17.3985 36.5406L17.3985 36.5406L17.4019 36.5397C17.9088 36.407 18.2993 36.0286 18.4424 35.529L18.4424 35.529L18.4432 35.5263C18.4755 35.4156 18.494 35.1914 18.4558 34.8011C18.4188 34.4229 18.3337 33.9334 18.1955 33.3187C18.131 33.0346 18.0301 32.6315 17.9371 32.2787C17.903 32.1493 17.8703 32.0279 17.8411 31.9226C17.6871 32.0807 17.4923 32.2925 17.2837 32.5283C16.8363 33.034 16.3488 33.623 16.0831 33.9948Z" fill="#B5AD94" stroke="black"/>
<path d="M29.2401 31.92C29.2908 32.0943 29.354 32.3317 29.4344 32.6497L29.2401 31.92ZM29.2401 31.92C29.214 31.9473 29.1858 31.9772 29.1551 32.0101L29.1541 32.0111C28.5831 32.6196 28.1063 33.1747 27.7478 33.6417C27.3827 34.1174 27.1658 34.4694 27.0817 34.6804C27.0491 34.7661 27.0434 34.7907 27.0391 34.8202C27.0325 34.8661 27.0289 34.9364 27.0273 35.1167C27.0273 35.2814 27.0308 35.3615 27.0378 35.4187C27.0435 35.4657 27.0526 35.5059 27.0786 35.588C27.1982 35.9464 27.4837 36.2718 27.8133 36.4292C27.9652 36.5 28.0525 36.5314 28.1307 36.549C28.2081 36.5663 28.3004 36.5754 28.4666 36.5739L28.468 36.5739C28.873 36.5716 29.1746 36.4464 29.4755 36.1479C29.7854 35.8404 29.913 35.5067 29.884 35.0393C29.8491 34.514 29.7066 33.729 29.4344 32.6498L29.2401 31.92ZM29.1278 31.5882C29.1278 31.5883 29.1285 31.5896 29.1298 31.592C29.1285 31.5893 29.1278 31.5882 29.1278 31.5882ZM29.2503 31.2556C29.1871 31.2651 29.0546 31.385 28.7896 31.669L29.2503 31.2556Z" fill="#B5AD94" stroke="black"/>
<path d="M10.7144 34.8486C10.7126 34.8425 10.7109 34.8365 10.7092 34.8305C10.5786 34.9657 10.3999 35.1626 10.151 35.445L10.1504 35.4457C9.65852 36.0016 9.28646 36.4548 9.02051 36.8189C8.74872 37.1911 8.61012 37.4404 8.5563 37.5933C8.40836 38.0142 8.46511 38.4687 8.72753 38.8626C9.00887 39.2819 9.50823 39.5288 9.99832 39.4967C10.6316 39.454 11.1721 39.003 11.3232 38.4058L11.3232 38.4058L11.3237 38.4039C11.3236 38.4038 11.3257 38.395 11.3284 38.3743C11.3312 38.3527 11.3339 38.3242 11.3362 38.2889C11.3408 38.2183 11.3427 38.1307 11.3415 38.0336C11.3389 37.8373 11.3235 37.6253 11.2982 37.4638L11.2982 37.4638L11.2977 37.4608C11.2331 37.0325 11.0824 36.32 10.9293 35.6819C10.8531 35.3646 10.7779 35.0721 10.7144 34.8486ZM10.9319 34.6224C10.9319 34.6224 10.9306 34.6231 10.928 34.6249C10.9305 34.6234 10.9319 34.6225 10.9319 34.6224Z" fill="#B5AD94" stroke="black"/>
<path d="M19.9116 37.7241L19.9116 37.7241L19.911 37.7265C19.8955 37.7848 19.8814 37.9012 19.8821 38.0477C19.8828 38.191 19.8973 38.3201 19.9166 38.3996C20.0114 38.7793 20.341 39.1851 20.6755 39.3459C21.0422 39.5206 21.4243 39.5436 21.7652 39.4279C22.0068 39.3449 22.1241 39.2733 22.3156 39.0893L22.3156 39.0893L22.3169 39.0881C22.5781 38.8389 22.727 38.5244 22.7539 38.2148C22.7709 38.0091 22.7207 37.5283 22.594 36.8602C22.4784 36.2509 22.3092 35.535 22.1089 34.8318C22.0648 34.8786 22.0117 34.9357 21.9474 35.0053C21.2988 35.7102 20.811 36.2888 20.4704 36.7532C20.1203 37.2305 19.9589 37.5435 19.9116 37.7241ZM22.1383 34.1742C22.0215 34.1995 21.9584 34.2563 21.5798 34.6665C20.2703 36.0895 19.573 37.0424 19.4279 37.5977C19.3648 37.8343 19.3679 38.2603 19.431 38.519L22.1383 34.1742Z" fill="#B5AD94" stroke="black"/>
<path d="M31.3023 37.7736L31.3023 37.7736L31.3017 37.7763C31.2314 38.0724 31.3063 38.5131 31.497 38.8173C31.8982 39.4515 32.6716 39.6751 33.3484 39.355C33.6767 39.1974 33.9707 38.8686 34.0875 38.5275L34.0874 38.5275L34.0886 38.5242C34.1148 38.4493 34.121 38.4222 34.1257 38.3787C34.1324 38.3158 34.1347 38.2196 34.1331 38.0053L34.1331 38.0042C34.1303 37.4785 34.0332 36.8748 33.7224 35.6474L33.7221 35.6459C33.6318 35.2849 33.5631 35.024 33.5085 34.8372C33.3895 34.9596 33.229 35.1346 33.0059 35.3841C32.4181 36.0455 32.0119 36.5406 31.7388 36.932C31.4639 37.326 31.3461 37.5844 31.3023 37.7736ZM33.3957 34.5127C33.3957 34.5128 33.3967 34.5146 33.3986 34.5178C33.3967 34.5142 33.3958 34.5126 33.3957 34.5127Z" fill="#B5AD94" stroke="black"/>
</g>
<defs>
<filter id="filter0_d_156_46" x="0" y="0" width="48.3531" height="48" filterUnits="userSpaceOnUse" color-interpolation-filters="sRGB">
<feFlood flood-opacity="0" result="BackgroundImageFix"/>
<feColorMatrix in="SourceAlpha" type="matrix" values="0 0 0 0 0 0 0 0 0 0 0 0 0 0 0 0 0 0 127 0" result="hardAlpha"/>
<feOffset dy="4"/>
<feGaussianBlur stdDeviation="2"/>
<feComposite in2="hardAlpha" operator="out"/>
<feColorMatrix type="matrix" values="0 0 0 0 0 0 0 0 0 0 0 0 0 0 0 0 0 0 1 0"/>
<feBlend mode="normal" in2="BackgroundImageFix" result="effect1_dropShadow_156_46"/>
<feBlend mode="normal" in="SourceGraphic" in2="effect1_dropShadow_156_46" result="shape"/>
</filter>
</defs>
</svg>
