<svg width="27" height="20" viewBox="0 0 27 20" fill="none" xmlns="http://www.w3.org/2000/svg">
<path d="M18.3925 0.0117903C18.3925 0.0428963 18.5853 0.210868 18.6911 0.27308C18.8362 0.358103 19.0436 0.424462 19.4418 0.513633C20.8789 0.837135 22.4964 1.52561 23.2865 2.14981C23.7614 2.52515 24.0703 2.93782 24.1678 3.32354C24.2196 3.52469 24.2114 3.80879 24.1471 4.02861C24.0206 4.46409 23.7531 4.81248 23.104 5.38483L22.9547 5.51547V5.4263C22.9547 5.30395 22.9049 5.03437 22.851 4.8581C22.4881 3.69474 21.163 2.89013 18.9337 2.47331C18.5563 2.4028 17.9715 2.31778 17.9591 2.33022C17.9362 2.35096 18.2183 2.59773 18.407 2.71801C18.6724 2.89013 18.7533 2.93368 19.4335 3.28414C20.0349 3.5952 20.4019 3.80672 20.6362 3.98091C20.8415 4.13229 21.0676 4.38114 21.1505 4.54911C21.2169 4.68183 21.2231 4.70672 21.221 4.87884C21.221 5.04473 21.2148 5.08206 21.1547 5.20856C20.966 5.61501 20.4828 6.04427 19.8565 6.36363C19.5289 6.5316 19.5268 6.5316 19.5413 6.47353C19.5683 6.35118 19.5786 5.97584 19.5558 5.85764C19.4459 5.26455 18.8881 4.74197 18.1664 4.55741C17.8782 4.48275 17.4966 4.45165 17.3162 4.4869C17.227 4.50556 17.2374 4.51593 17.6231 4.79174C18.0462 5.09243 18.2411 5.28529 18.3448 5.50303C18.4153 5.65026 18.4236 5.68344 18.4236 5.83275C18.4236 5.97999 18.4153 6.01524 18.3531 6.14174C18.0897 6.67883 17.1171 7.1475 15.7547 7.39634C14.9107 7.5498 14.2015 7.60994 13.2081 7.61201C11.4102 7.61201 9.73464 7.33828 8.88856 6.90694C8.50077 6.70787 8.25814 6.47561 8.18971 6.22883C8.14824 6.07745 8.17105 5.868 8.24985 5.70833C8.38464 5.4346 8.66252 5.26248 9.37174 5.01363C9.85699 4.84358 10.1038 4.72331 10.2531 4.58851C10.3547 4.49727 10.3547 4.49312 10.2945 4.50349C10.2614 4.50971 10.1245 4.53045 9.99386 4.54704C9.65999 4.59473 9.18095 4.69013 8.86367 4.77515C7.77082 5.0634 7.1881 5.45948 7.09271 5.97584C7.05331 6.18736 7.11967 6.46317 7.26483 6.69335C7.30423 6.75556 7.33326 6.80948 7.33119 6.81363C7.31874 6.82399 6.80239 6.66846 6.62404 6.59588C6.03303 6.36363 5.45653 5.94059 5.29686 5.62538C5.24294 5.51547 5.23465 5.48022 5.23465 5.32469C5.23465 5.16294 5.24087 5.13805 5.30723 5.01363C5.45446 4.7399 5.83603 4.43091 6.4063 4.11985C6.68418 3.96847 6.86875 3.88137 7.66921 3.51639C7.99478 3.36916 8.34317 3.20534 8.44685 3.14934L8.63142 3.04773L8.50907 3.02077C8.35146 2.98552 7.66506 2.98552 7.40169 3.0187C5.62451 3.25096 4.14386 4.02653 3.72912 4.94312C3.63787 5.1422 3.60055 5.32676 3.60055 5.57561V5.79542L3.4388 5.70625C2.79801 5.36201 2.38949 4.9286 2.26714 4.46824C2.22981 4.32722 2.22981 4.0369 2.26921 3.89381C2.39364 3.4293 2.79179 2.99796 3.4699 2.59358C4.66644 1.88229 6.35653 1.35557 8.34524 1.07561C8.82013 1.00718 8.77036 1.03207 8.77036 0.864094C8.77036 0.741743 8.76413 0.721006 8.7351 0.721006C8.58787 0.721006 7.72105 0.793587 7.33948 0.837135C5.23465 1.07354 3.32267 1.59197 1.77152 2.34888C1.22405 2.6164 0.873591 2.85073 0.566679 3.15557C-0.165348 3.88759 -0.188159 4.64036 0.498246 5.35579C1.11622 5.99865 1.92705 6.39473 3.55492 6.84888C3.67727 6.88413 3.67935 6.88621 3.77889 7.04796C4.12313 7.61616 4.78672 8.16362 5.65561 8.59911C6.53902 9.04081 8.2934 9.64219 10.0457 10.1026C12.7975 10.8242 15.5846 11.1768 17.8948 11.0938C18.7222 11.0648 19.0415 11.0357 20.2173 10.8927C21.3309 10.7579 21.6192 10.7143 22.0526 10.621C23.5498 10.3016 24.3835 9.72514 24.7567 8.74842C24.7941 8.65302 24.821 8.57215 24.8169 8.57008C24.8127 8.56593 24.709 8.60948 24.5826 8.66754C21.8286 9.91385 18.3655 10.3804 14.639 10.0113C12.4699 9.79565 10.3091 9.32906 8.15861 8.61155C7.04294 8.24035 6.42082 7.98321 5.76967 7.62445C5.6017 7.52906 5.41299 7.42538 5.35492 7.39427C5.29478 7.36109 5.24087 7.32584 5.23672 7.31754C5.2305 7.31132 5.31345 7.32584 5.41713 7.35072C6.86667 7.71155 8.79731 7.98736 10.6678 8.10349C12.7934 8.23413 15.765 8.19266 17.5837 8.00809C19.9208 7.77169 22.2268 7.22008 24.033 6.46524C25.439 5.87837 26.2415 5.1816 26.4842 4.33967C26.5422 4.13851 26.5484 3.74865 26.4966 3.56202C26.2643 2.72838 25.4494 2.01916 23.9501 1.34105C22.9879 0.907641 21.8597 0.555107 20.6694 0.318703C19.9975 0.183909 19.4915 0.111329 18.5024 0.00349522C18.436 -0.0027256 18.3925 -0.000652313 18.3925 0.0117903Z" fill="black"/>
<path d="M12.6379 5.60663C11.6052 5.70824 11.1635 5.7746 10.699 5.89488C10.4004 5.97368 10.0934 6.07737 10.0831 6.10433C10.0706 6.13958 10.1868 6.3594 10.2739 6.46516C10.5974 6.85294 11.2402 7.0935 12.1651 7.1723C12.5384 7.2034 13.625 7.18474 14.0294 7.14119C14.4566 7.09557 15.2197 6.98774 15.452 6.94004C15.8315 6.86539 16.0865 6.74718 16.2255 6.58336C16.5241 6.23497 16.1902 5.93843 15.3027 5.76216C14.9232 5.68751 13.9527 5.61078 13.3015 5.60456C12.9822 5.60041 12.6835 5.60248 12.6379 5.60663Z" fill="black"/>
<path d="M25.3436 6.04006C24.7754 6.44443 23.8112 6.97116 23.048 7.29259C21.1298 8.10342 18.9877 8.53061 15.8314 8.73591C13.9858 8.85411 13.5711 8.85411 12.4513 8.72761C11.4372 8.61563 11.1303 8.59282 10.6886 8.60733C10.2904 8.61978 10.0499 8.65296 9.76578 8.73383C9.42569 8.82922 9.42569 8.8313 9.75541 8.87277C12.5923 9.23153 14.1517 9.34766 16.0699 9.34766C18.013 9.34766 19.5434 9.20042 21.2542 8.85203C22.0651 8.68614 22.598 8.5389 23.1517 8.32738C24.3275 7.87946 25.0948 7.20549 25.3893 6.36149C25.4515 6.18107 25.5075 5.94674 25.4888 5.94674C25.4805 5.94881 25.4162 5.99029 25.3436 6.04006Z" fill="black"/>
<path d="M5.34875 8.71517C5.34875 8.72347 5.41511 8.81471 5.49392 8.9184C6.19898 9.83706 7.22755 10.623 8.46142 11.1871C10.5974 12.1596 13.2746 12.6449 17.0757 12.7486C18.0586 12.7755 19.9001 12.7755 20.3418 12.7486C22.0464 12.647 22.9962 12.2073 23.3757 11.3447C23.4338 11.2161 23.498 10.9859 23.5229 10.8262L23.5354 10.7371L23.2098 10.903C22.1294 11.4442 20.9059 11.7822 19.4812 11.9295C18.4941 12.0311 17.1752 12.0228 16.0285 11.9087C14.0481 11.7096 11.8333 11.2161 9.58746 10.4716C8.9529 10.2601 8.8264 10.2062 7.71281 9.65872C6.49968 9.06356 6.087 8.88937 5.5976 8.76702C5.50014 8.74421 5.40475 8.71932 5.38608 8.7131C5.36534 8.70688 5.34875 8.70895 5.34875 8.71517Z" fill="black"/>
<path d="M9.82799 12.6676C10.9478 13.7335 13.0091 14.5007 15.1678 14.6583C15.6324 14.6915 16.5261 14.6708 16.9326 14.6169C18.0503 14.4655 18.9586 14.1067 19.5745 13.5717L19.6658 13.495H19.5102C19.2676 13.495 18.5356 13.5323 17.6771 13.5904C16.7169 13.6526 15.651 13.6754 15.1886 13.6422C14.3197 13.58 13.9132 13.4929 12.7001 13.1176C11.545 12.7588 11.2485 12.6759 10.84 12.5929C10.4667 12.5162 10.1453 12.4788 9.87361 12.4788L9.63098 12.4809L9.82799 12.6676Z" fill="black"/>
<path d="M10.2136 13.8642C10.2675 14.2748 10.5102 14.6107 11.0307 15.0048C11.2899 15.2018 11.7482 15.4983 11.9597 15.6082C12.4885 15.8778 13.1002 16.0582 13.8509 16.164C14.05 16.1909 14.2512 16.1992 14.7219 16.1992C15.2528 16.1992 15.3731 16.193 15.6343 16.1536C16.5509 16.0105 17.2954 15.6932 17.8014 15.2308L17.9466 15.0981L16.5675 15.0856C15.2486 15.0732 14.7219 15.0524 14.1413 14.9882C12.7249 14.8326 11.6072 14.5133 10.5413 13.9637L10.2053 13.7895L10.2136 13.8642Z" fill="black"/>
<path d="M10.3506 15.7201C10.3568 15.9005 10.3651 15.9316 10.4397 16.0768C10.5745 16.3443 10.8503 16.6097 11.3107 16.9187C11.9785 17.3645 12.5529 17.5512 13.3347 17.574C14.1538 17.5989 14.7925 17.433 15.3711 17.0493C15.566 16.9187 15.9455 16.5765 15.9206 16.5537C15.8957 16.5288 15.3752 16.4998 14.413 16.4708C13.8593 16.4542 13.2994 16.4293 13.1688 16.4189C12.1444 16.3277 11.3335 16.0809 10.4833 15.6019L10.3402 15.521L10.3506 15.7201Z" fill="black"/>
<path d="M9.93164 17.5783C9.93164 17.628 10.0913 17.9806 10.195 18.1631C10.5351 18.7582 11.1717 19.4177 11.8519 19.8822C12.0759 20.0356 12.0883 20.0356 12.0883 19.9029C12.0883 19.8697 12.1153 19.764 12.1464 19.6686C12.2418 19.3866 12.3807 19.2041 12.8535 18.7354C13.2351 18.3559 13.3678 18.2087 13.4694 18.049L13.5068 17.9909L13.3201 18.0075C13.0339 18.0324 12.2086 18.0262 11.9535 17.9972C11.4102 17.9349 10.9063 17.8333 10.2883 17.6633C10.1204 17.6177 9.97104 17.5741 9.9586 17.57C9.94408 17.5658 9.93164 17.5679 9.93164 17.5783Z" fill="black"/>
</svg>
