<svg width="50" height="48" viewBox="0 0 50 48" fill="none" xmlns="http://www.w3.org/2000/svg">
<g filter="url(#filter0_ddd_126_253)">
<mask id="path-1-inside-1_126_253" fill="white">
<path d="M25.7139 0.106438C25.158 0.262943 24.7475 0.416321 24.211 0.669861C22.1522 1.6402 21.1891 3.08319 21.4283 4.83607C21.5899 6.03178 22.0714 6.76423 23.138 7.43408C23.3804 7.58746 23.7294 7.80344 23.9104 7.91612C24.2983 8.15714 24.6279 8.45764 24.7701 8.70179C24.9156 8.94907 25.0028 9.3059 25.0028 9.64083C25.0028 10.5298 24.5439 11.4876 23.6002 12.5769C23.3351 12.8805 23.3739 12.9118 23.2608 12.3108C23.041 11.1496 22.4463 9.95697 21.6125 8.99602C21.1342 8.44511 20.5201 8.09767 19.78 7.95995C19.376 7.88482 18.6197 7.89421 17.844 7.98185C17.0683 8.0695 16.3767 8.07576 16.0826 8.00064C15.6236 7.88169 15.3101 7.60311 15.0451 7.08664C14.8577 6.71728 14.7704 6.41053 14.7219 5.92223C14.6185 4.94249 14.9417 3.51515 15.5816 2.10972L15.6656 1.92191L15.4039 2.17233C14.3147 3.20527 13.5164 4.54184 13.316 5.66243C13.2449 6.06934 13.2675 6.76423 13.3612 7.12107C13.5099 7.66258 13.7782 8.14775 14.2016 8.63605C14.8156 9.34346 15.4879 9.70656 16.3993 9.82237C16.5351 9.84115 16.9908 9.86933 17.4077 9.88498C18.5033 9.9288 18.8427 10.029 19.2531 10.4202C19.8446 10.9837 20.1258 11.9759 20.0288 13.1466C19.9965 13.5347 19.8931 14.2233 19.8446 14.3705C19.8317 14.4112 19.7703 14.3579 19.5925 14.1514C18.875 13.3281 18.0541 12.7084 17.0683 12.2482C16.3056 11.8914 15.8272 11.7662 15.252 11.7662C14.4666 11.7693 13.7846 12.0322 12.8183 12.7084C11.9327 13.3281 11.7776 13.4314 11.5481 13.5504C10.9017 13.8884 10.4977 13.9072 9.92565 13.6286C8.68457 13.0214 7.83455 11.328 7.56307 8.91776C7.53721 8.67361 7.52752 8.6924 7.38531 9.24643C7.20755 9.94758 7.14937 10.4234 7.14937 11.2028C7.14614 11.6566 7.1623 11.9978 7.19139 12.1575C7.34976 13.0715 7.66972 13.7444 8.21593 14.2985C8.52297 14.6115 8.82354 14.8243 9.24693 15.0309C10.1066 15.4472 10.9437 15.5536 11.7679 15.3533C12.0329 15.2876 12.2624 15.1906 13.0284 14.8181C14.027 14.3329 14.208 14.2703 14.612 14.2703C15.5202 14.2703 16.4252 15.0027 17.0845 16.2736C17.2493 16.5897 17.621 17.4912 17.5951 17.51C17.5887 17.5131 17.4335 17.463 17.2493 17.3942C16.4284 17.0937 15.6139 16.9528 14.6605 16.9528C13.0574 16.9497 12.1589 17.2721 11.435 18.111C11.0956 18.5022 10.8791 18.881 10.4428 19.8451C9.91595 21.0063 9.59598 21.3976 9.04332 21.5635C8.63932 21.6856 7.93798 21.6386 7.44025 21.4571C6.38986 21.0721 5.23604 20.1299 4.26321 18.8591C4.12747 18.6838 4.01435 18.5367 4.00466 18.5273C3.96264 18.4835 4.21473 19.3036 4.36987 19.7167C4.43451 19.8795 4.58964 20.2269 4.72216 20.4836C5.76609 22.5495 7.34653 23.4635 9.26309 23.1098C10.0582 22.9658 10.6335 22.6778 11.1247 22.1864C11.4253 21.8828 11.5513 21.7106 11.9456 21.094C12.3399 20.4742 12.5532 20.2113 12.815 20.0204C13.1706 19.7606 13.5358 19.6698 14.1111 19.6948C14.6831 19.7199 15.2229 19.8951 15.8693 20.2614C16.186 20.4429 16.8033 20.8811 17.1006 21.1347L17.259 21.2724L17.0198 21.31C16.632 21.3694 15.9307 21.5447 15.5816 21.6731C14.5668 22.0362 13.4582 22.7248 12.9282 23.3195C12.2365 24.0989 12.0491 24.9754 12.2365 26.5717C12.3755 27.7487 12.3529 28.2244 12.146 28.6282C11.923 29.0539 11.4221 29.3795 10.7013 29.5673C10.404 29.6455 10.3296 29.6518 9.73173 29.6518C9.19845 29.6518 9.01423 29.6393 8.66841 29.5798C7.95091 29.4577 7.07181 29.1916 6.30583 28.8692L5.98263 28.7315L6.35431 29.0852C7.82486 30.475 9.52811 31.2137 10.9017 31.0509C11.742 30.9508 12.4951 30.5783 13.1576 29.9366C13.623 29.489 13.8654 29.1071 14.027 28.5687C14.1369 28.1963 14.1692 27.9239 14.208 27.0569C14.2306 26.4841 14.2533 26.2462 14.3018 26.0615C14.4601 25.473 14.7962 25.1006 15.4394 24.8032C16.2086 24.4495 17.5143 24.3963 18.7393 24.6655L18.8912 24.6999L18.61 24.9253C17.7826 25.5951 17.0974 26.4528 16.6288 27.4012C16.2474 28.1775 16.1311 28.6376 16.1569 29.2636C16.1892 30.0869 16.4446 30.6096 17.4853 31.9994C18.2933 33.073 18.429 33.5707 18.1026 34.2343C17.6242 35.2109 16.4704 35.934 14.7575 36.3377C14.2694 36.4504 13.6683 36.5537 13.3257 36.5788C13.1867 36.5882 13.0671 36.6069 13.0607 36.6195C13.0284 36.6695 13.8881 36.8605 14.5151 36.945C15.3295 37.0545 16.1601 37.0389 16.8486 36.9012C18.1834 36.632 19.14 35.8776 19.6378 34.6976C20.0902 33.6208 20.0547 32.7224 19.5149 31.7051C19.4438 31.5768 19.2661 31.2388 19.1142 30.9539C18.8071 30.3748 18.7328 30.1401 18.7328 29.7551C18.7328 28.9068 19.4309 28.0585 20.6429 27.4356C21.0857 27.2071 22.0068 26.8503 22.0488 26.891C22.0553 26.9004 22.01 27.0381 21.9486 27.1978C21.8032 27.5608 21.6319 28.2025 21.5576 28.6689C21.4768 29.1729 21.4735 30.2684 21.5543 30.7598C21.6965 31.6332 21.9712 32.1809 22.5175 32.6943C22.9311 33.0761 23.3675 33.3297 24.3241 33.7397C25.6492 34.3063 26.0274 34.5786 26.231 35.1076C26.4249 35.6147 26.3086 36.441 25.9434 37.1422C25.4941 38.0061 24.5795 38.9858 23.4709 39.7903C23.1994 39.9875 23.1897 40 23.2867 40C23.487 40 24.5471 39.6338 25.0836 39.3771C26.3861 38.7573 27.2135 38.0092 27.6272 37.0827C27.8114 36.6695 27.8793 36.3597 27.9019 35.8651C27.9504 34.7445 27.5949 33.7992 26.8709 33.1262C26.6156 32.8883 26.3926 32.7381 25.4359 32.1434C24.6926 31.6832 24.4114 31.3076 24.3241 30.6628C24.1981 29.7488 24.7055 28.5875 25.7462 27.4169L25.953 27.1852L26.008 27.5139C26.1954 28.6533 26.6867 29.7582 27.4398 30.7348C27.8761 31.2982 28.3286 31.6676 28.8424 31.8773C29.5341 32.159 30.1966 32.1997 31.5638 32.0495C31.874 32.015 32.3265 31.9869 32.5657 31.9869C33.2509 31.9869 33.545 32.0839 33.8908 32.4219C34.1494 32.6755 34.3724 33.0824 34.4952 33.5363C34.576 33.8274 34.5824 33.8994 34.5824 34.5066C34.5824 35.0638 34.5727 35.2203 34.5113 35.5396C34.3691 36.2626 34.1687 36.9074 33.8682 37.6023C33.7712 37.8277 33.684 38.0343 33.6743 38.0593C33.6419 38.1438 34.117 37.6743 34.437 37.3081C34.8281 36.8542 35.0511 36.5475 35.3355 36.0686C35.9981 34.9448 36.2049 33.8117 35.9237 32.832C35.6393 31.8397 34.7376 30.8162 33.8359 30.4531C33.3317 30.2496 32.9891 30.1995 31.7254 30.1432C30.843 30.1025 30.5651 30.0274 30.1772 29.7332C29.7474 29.4014 29.4307 28.7847 29.3111 28.0272C29.2529 27.6422 29.2691 26.7094 29.3466 26.2587C29.4177 25.8581 29.4694 25.6327 29.4921 25.6358C29.5018 25.6358 29.5923 25.7328 29.6892 25.8549C29.9316 26.1523 30.5457 26.7314 30.9109 27.0037C31.5961 27.5139 32.5948 28.0147 33.2606 28.1806C34.2043 28.4154 35.0996 28.2307 36.095 27.5953C36.2437 27.5014 36.6251 27.2416 36.945 27.0131C37.5332 26.5968 38.0277 26.3276 38.3251 26.2556C38.5481 26.2055 38.9779 26.2337 39.1977 26.3182C39.6664 26.4935 40.2158 26.9536 40.5616 27.4544C40.7749 27.7674 41.0852 28.3841 41.2274 28.7785C41.4536 29.4108 41.6766 30.4124 41.7316 31.0447C41.7445 31.1824 41.7639 31.2888 41.7801 31.2826C41.793 31.2732 41.8479 31.0885 41.9029 30.8663C42.323 29.1823 42.2616 27.708 41.7284 26.6187C41.3922 25.9332 40.8234 25.3791 40.0962 25.0223C39.3852 24.6749 38.6386 24.5215 38.0213 24.5966C37.4524 24.6686 37.0808 24.8095 35.8946 25.4136C35.691 25.5169 35.4066 25.6389 35.2644 25.6828C34.0783 26.0553 32.8307 25.1726 32.055 23.4103C31.8805 23.0159 31.7157 22.5652 31.7351 22.5432C31.7415 22.537 31.8643 22.5745 32.0033 22.6278C32.4041 22.778 32.8953 22.9063 33.406 22.994C33.8165 23.066 33.9651 23.0754 34.618 23.0785C36.1532 23.0848 36.9192 22.85 37.6431 22.1582C38.0891 21.7325 38.3897 21.2536 38.8196 20.2958C39.2753 19.2754 39.55 18.8653 39.9443 18.6181C40.581 18.2174 41.7413 18.3833 42.7529 19.0124C43.5253 19.4976 44.3883 20.3146 45.0638 21.2004C45.193 21.3726 45.2997 21.5009 45.2997 21.4884C45.2997 21.4195 45.1543 20.9312 45.025 20.5681C44.5887 19.3317 43.9002 18.2737 43.1407 17.6728C42.4426 17.1187 41.7284 16.8683 40.8363 16.8683C39.7375 16.8683 38.8551 17.1876 38.2023 17.8293C37.9469 18.0828 37.7336 18.3645 37.3393 18.9811C36.9676 19.5602 36.7737 19.7981 36.5249 19.9922C36.1855 20.252 35.8623 20.349 35.3452 20.349C34.5986 20.3521 33.8294 20.0673 32.96 19.4757C32.6626 19.2691 32.1035 18.8278 32.0874 18.7808C32.0809 18.7652 32.1552 18.7433 32.249 18.7307C33.6516 18.5586 35.3581 17.751 36.2695 16.8307C36.7026 16.3957 36.945 15.948 37.0808 15.3314C37.1616 14.9589 37.1551 14.0981 37.0646 13.3344C36.8836 11.8444 37.0226 11.2935 37.6851 10.8647C38.868 10.0978 40.7588 10.2199 43.1181 11.2153L43.312 11.2998L42.9403 10.9461C41.8641 9.92254 40.7038 9.27147 39.5468 9.04297C39.0975 8.9522 38.3186 8.96785 37.9146 9.07427C37.3458 9.22139 36.7155 9.57822 36.2243 10.0258C35.8914 10.3326 35.7072 10.5611 35.5229 10.8991C35.2418 11.4156 35.161 11.7787 35.1189 12.7835C35.0834 13.613 35.0511 13.8696 34.9541 14.1576C34.7343 14.7962 34.0783 15.2719 33.1474 15.4629C32.6691 15.563 31.7092 15.563 31.0951 15.466C30.4423 15.3627 30.4293 15.3596 30.439 15.3345C30.4455 15.322 30.5586 15.2281 30.6911 15.1248C31.024 14.865 31.5961 14.2859 31.8773 13.9228C32.4526 13.181 32.9341 12.2388 33.1022 11.5314C33.1862 11.1777 33.1798 10.558 33.086 10.223C32.9212 9.61892 32.6723 9.17444 31.9969 8.27609C31.2147 7.23375 31.0628 6.93013 31.0628 6.41366C31.0628 6.08812 31.121 5.90971 31.3408 5.54348C31.4927 5.29933 32.0421 4.76721 32.3556 4.57001C33.2218 4.0191 34.521 3.62158 35.9593 3.46194L36.3309 3.42125L36.137 3.36491C35.8429 3.28039 35.3096 3.16771 34.9121 3.10511C34.395 3.02685 33.0311 3.02685 32.598 3.10511C31.2923 3.34613 30.3582 3.99719 29.8153 5.04579C29.4791 5.6906 29.3499 6.23524 29.3757 6.86753C29.4016 7.49981 29.5244 7.85039 30.0286 8.76126C30.3776 9.39355 30.5101 9.70343 30.5651 10.0008C30.6394 10.4108 30.5328 10.8491 30.2613 11.2748C29.8864 11.8538 29.3046 12.3108 28.4126 12.724C28.0215 12.9056 27.2717 13.1904 27.2458 13.1685C27.2426 13.1622 27.2846 13.0308 27.346 12.8743C27.708 11.9446 27.8341 11.1871 27.805 10.1103C27.7727 8.73622 27.5109 8.02255 26.8063 7.35583C26.4282 6.99586 25.8819 6.68285 24.8897 6.25715C23.8393 5.80641 23.4483 5.55913 23.2059 5.18665C22.9182 4.74842 22.9214 3.97841 23.2091 3.23344C23.5678 2.30692 24.5795 1.15503 25.8108 0.269203C25.9789 0.147129 26.1308 0.0375748 26.1502 0.0219231C26.2019 -0.0219002 26.0953 -0.00311661 25.7139 0.106438ZM25.4456 14.0355C26.8321 14.2108 28.07 14.8055 29.0719 15.7759C30.717 17.3754 31.2987 19.7699 30.5586 21.9203C29.8476 23.9768 28.1023 25.4762 25.8916 25.9332C25.3616 26.0427 24.3629 26.074 23.807 25.9958C22.372 25.7923 21.1729 25.1976 20.171 24.1866C19.2014 23.21 18.6391 22.0455 18.471 20.6745C18.3967 20.0704 18.4613 19.1627 18.6197 18.5586C19.2435 16.1609 21.3087 14.3705 23.8361 14.0355C24.266 13.9792 24.9931 13.9792 25.4456 14.0355Z"/>
</mask>
<path d="M25.7139 0.106438C25.158 0.262943 24.7475 0.416321 24.211 0.669861C22.1522 1.6402 21.1891 3.08319 21.4283 4.83607C21.5899 6.03178 22.0714 6.76423 23.138 7.43408C23.3804 7.58746 23.7294 7.80344 23.9104 7.91612C24.2983 8.15714 24.6279 8.45764 24.7701 8.70179C24.9156 8.94907 25.0028 9.3059 25.0028 9.64083C25.0028 10.5298 24.5439 11.4876 23.6002 12.5769C23.3351 12.8805 23.3739 12.9118 23.2608 12.3108C23.041 11.1496 22.4463 9.95697 21.6125 8.99602C21.1342 8.44511 20.5201 8.09767 19.78 7.95995C19.376 7.88482 18.6197 7.89421 17.844 7.98185C17.0683 8.0695 16.3767 8.07576 16.0826 8.00064C15.6236 7.88169 15.3101 7.60311 15.0451 7.08664C14.8577 6.71728 14.7704 6.41053 14.7219 5.92223C14.6185 4.94249 14.9417 3.51515 15.5816 2.10972L15.6656 1.92191L15.4039 2.17233C14.3147 3.20527 13.5164 4.54184 13.316 5.66243C13.2449 6.06934 13.2675 6.76423 13.3612 7.12107C13.5099 7.66258 13.7782 8.14775 14.2016 8.63605C14.8156 9.34346 15.4879 9.70656 16.3993 9.82237C16.5351 9.84115 16.9908 9.86933 17.4077 9.88498C18.5033 9.9288 18.8427 10.029 19.2531 10.4202C19.8446 10.9837 20.1258 11.9759 20.0288 13.1466C19.9965 13.5347 19.8931 14.2233 19.8446 14.3705C19.8317 14.4112 19.7703 14.3579 19.5925 14.1514C18.875 13.3281 18.0541 12.7084 17.0683 12.2482C16.3056 11.8914 15.8272 11.7662 15.252 11.7662C14.4666 11.7693 13.7846 12.0322 12.8183 12.7084C11.9327 13.3281 11.7776 13.4314 11.5481 13.5504C10.9017 13.8884 10.4977 13.9072 9.92565 13.6286C8.68457 13.0214 7.83455 11.328 7.56307 8.91776C7.53721 8.67361 7.52752 8.6924 7.38531 9.24643C7.20755 9.94758 7.14937 10.4234 7.14937 11.2028C7.14614 11.6566 7.1623 11.9978 7.19139 12.1575C7.34976 13.0715 7.66972 13.7444 8.21593 14.2985C8.52297 14.6115 8.82354 14.8243 9.24693 15.0309C10.1066 15.4472 10.9437 15.5536 11.7679 15.3533C12.0329 15.2876 12.2624 15.1906 13.0284 14.8181C14.027 14.3329 14.208 14.2703 14.612 14.2703C15.5202 14.2703 16.4252 15.0027 17.0845 16.2736C17.2493 16.5897 17.621 17.4912 17.5951 17.51C17.5887 17.5131 17.4335 17.463 17.2493 17.3942C16.4284 17.0937 15.6139 16.9528 14.6605 16.9528C13.0574 16.9497 12.1589 17.2721 11.435 18.111C11.0956 18.5022 10.8791 18.881 10.4428 19.8451C9.91595 21.0063 9.59598 21.3976 9.04332 21.5635C8.63932 21.6856 7.93798 21.6386 7.44025 21.4571C6.38986 21.0721 5.23604 20.1299 4.26321 18.8591C4.12747 18.6838 4.01435 18.5367 4.00466 18.5273C3.96264 18.4835 4.21473 19.3036 4.36987 19.7167C4.43451 19.8795 4.58964 20.2269 4.72216 20.4836C5.76609 22.5495 7.34653 23.4635 9.26309 23.1098C10.0582 22.9658 10.6335 22.6778 11.1247 22.1864C11.4253 21.8828 11.5513 21.7106 11.9456 21.094C12.3399 20.4742 12.5532 20.2113 12.815 20.0204C13.1706 19.7606 13.5358 19.6698 14.1111 19.6948C14.6831 19.7199 15.2229 19.8951 15.8693 20.2614C16.186 20.4429 16.8033 20.8811 17.1006 21.1347L17.259 21.2724L17.0198 21.31C16.632 21.3694 15.9307 21.5447 15.5816 21.6731C14.5668 22.0362 13.4582 22.7248 12.9282 23.3195C12.2365 24.0989 12.0491 24.9754 12.2365 26.5717C12.3755 27.7487 12.3529 28.2244 12.146 28.6282C11.923 29.0539 11.4221 29.3795 10.7013 29.5673C10.404 29.6455 10.3296 29.6518 9.73173 29.6518C9.19845 29.6518 9.01423 29.6393 8.66841 29.5798C7.95091 29.4577 7.07181 29.1916 6.30583 28.8692L5.98263 28.7315L6.35431 29.0852C7.82486 30.475 9.52811 31.2137 10.9017 31.0509C11.742 30.9508 12.4951 30.5783 13.1576 29.9366C13.623 29.489 13.8654 29.1071 14.027 28.5687C14.1369 28.1963 14.1692 27.9239 14.208 27.0569C14.2306 26.4841 14.2533 26.2462 14.3018 26.0615C14.4601 25.473 14.7962 25.1006 15.4394 24.8032C16.2086 24.4495 17.5143 24.3963 18.7393 24.6655L18.8912 24.6999L18.61 24.9253C17.7826 25.5951 17.0974 26.4528 16.6288 27.4012C16.2474 28.1775 16.1311 28.6376 16.1569 29.2636C16.1892 30.0869 16.4446 30.6096 17.4853 31.9994C18.2933 33.073 18.429 33.5707 18.1026 34.2343C17.6242 35.2109 16.4704 35.934 14.7575 36.3377C14.2694 36.4504 13.6683 36.5537 13.3257 36.5788C13.1867 36.5882 13.0671 36.6069 13.0607 36.6195C13.0284 36.6695 13.8881 36.8605 14.5151 36.945C15.3295 37.0545 16.1601 37.0389 16.8486 36.9012C18.1834 36.632 19.14 35.8776 19.6378 34.6976C20.0902 33.6208 20.0547 32.7224 19.5149 31.7051C19.4438 31.5768 19.2661 31.2388 19.1142 30.9539C18.8071 30.3748 18.7328 30.1401 18.7328 29.7551C18.7328 28.9068 19.4309 28.0585 20.6429 27.4356C21.0857 27.2071 22.0068 26.8503 22.0488 26.891C22.0553 26.9004 22.01 27.0381 21.9486 27.1978C21.8032 27.5608 21.6319 28.2025 21.5576 28.6689C21.4768 29.1729 21.4735 30.2684 21.5543 30.7598C21.6965 31.6332 21.9712 32.1809 22.5175 32.6943C22.9311 33.0761 23.3675 33.3297 24.3241 33.7397C25.6492 34.3063 26.0274 34.5786 26.231 35.1076C26.4249 35.6147 26.3086 36.441 25.9434 37.1422C25.4941 38.0061 24.5795 38.9858 23.4709 39.7903C23.1994 39.9875 23.1897 40 23.2867 40C23.487 40 24.5471 39.6338 25.0836 39.3771C26.3861 38.7573 27.2135 38.0092 27.6272 37.0827C27.8114 36.6695 27.8793 36.3597 27.9019 35.8651C27.9504 34.7445 27.5949 33.7992 26.8709 33.1262C26.6156 32.8883 26.3926 32.7381 25.4359 32.1434C24.6926 31.6832 24.4114 31.3076 24.3241 30.6628C24.1981 29.7488 24.7055 28.5875 25.7462 27.4169L25.953 27.1852L26.008 27.5139C26.1954 28.6533 26.6867 29.7582 27.4398 30.7348C27.8761 31.2982 28.3286 31.6676 28.8424 31.8773C29.5341 32.159 30.1966 32.1997 31.5638 32.0495C31.874 32.015 32.3265 31.9869 32.5657 31.9869C33.2509 31.9869 33.545 32.0839 33.8908 32.4219C34.1494 32.6755 34.3724 33.0824 34.4952 33.5363C34.576 33.8274 34.5824 33.8994 34.5824 34.5066C34.5824 35.0638 34.5727 35.2203 34.5113 35.5396C34.3691 36.2626 34.1687 36.9074 33.8682 37.6023C33.7712 37.8277 33.684 38.0343 33.6743 38.0593C33.6419 38.1438 34.117 37.6743 34.437 37.3081C34.8281 36.8542 35.0511 36.5475 35.3355 36.0686C35.9981 34.9448 36.2049 33.8117 35.9237 32.832C35.6393 31.8397 34.7376 30.8162 33.8359 30.4531C33.3317 30.2496 32.9891 30.1995 31.7254 30.1432C30.843 30.1025 30.5651 30.0274 30.1772 29.7332C29.7474 29.4014 29.4307 28.7847 29.3111 28.0272C29.2529 27.6422 29.2691 26.7094 29.3466 26.2587C29.4177 25.8581 29.4694 25.6327 29.4921 25.6358C29.5018 25.6358 29.5923 25.7328 29.6892 25.8549C29.9316 26.1523 30.5457 26.7314 30.9109 27.0037C31.5961 27.5139 32.5948 28.0147 33.2606 28.1806C34.2043 28.4154 35.0996 28.2307 36.095 27.5953C36.2437 27.5014 36.6251 27.2416 36.945 27.0131C37.5332 26.5968 38.0277 26.3276 38.3251 26.2556C38.5481 26.2055 38.9779 26.2337 39.1977 26.3182C39.6664 26.4935 40.2158 26.9536 40.5616 27.4544C40.7749 27.7674 41.0852 28.3841 41.2274 28.7785C41.4536 29.4108 41.6766 30.4124 41.7316 31.0447C41.7445 31.1824 41.7639 31.2888 41.7801 31.2826C41.793 31.2732 41.8479 31.0885 41.9029 30.8663C42.323 29.1823 42.2616 27.708 41.7284 26.6187C41.3922 25.9332 40.8234 25.3791 40.0962 25.0223C39.3852 24.6749 38.6386 24.5215 38.0213 24.5966C37.4524 24.6686 37.0808 24.8095 35.8946 25.4136C35.691 25.5169 35.4066 25.6389 35.2644 25.6828C34.0783 26.0553 32.8307 25.1726 32.055 23.4103C31.8805 23.0159 31.7157 22.5652 31.7351 22.5432C31.7415 22.537 31.8643 22.5745 32.0033 22.6278C32.4041 22.778 32.8953 22.9063 33.406 22.994C33.8165 23.066 33.9651 23.0754 34.618 23.0785C36.1532 23.0848 36.9192 22.85 37.6431 22.1582C38.0891 21.7325 38.3897 21.2536 38.8196 20.2958C39.2753 19.2754 39.55 18.8653 39.9443 18.6181C40.581 18.2174 41.7413 18.3833 42.7529 19.0124C43.5253 19.4976 44.3883 20.3146 45.0638 21.2004C45.193 21.3726 45.2997 21.5009 45.2997 21.4884C45.2997 21.4195 45.1543 20.9312 45.025 20.5681C44.5887 19.3317 43.9002 18.2737 43.1407 17.6728C42.4426 17.1187 41.7284 16.8683 40.8363 16.8683C39.7375 16.8683 38.8551 17.1876 38.2023 17.8293C37.9469 18.0828 37.7336 18.3645 37.3393 18.9811C36.9676 19.5602 36.7737 19.7981 36.5249 19.9922C36.1855 20.252 35.8623 20.349 35.3452 20.349C34.5986 20.3521 33.8294 20.0673 32.96 19.4757C32.6626 19.2691 32.1035 18.8278 32.0874 18.7808C32.0809 18.7652 32.1552 18.7433 32.249 18.7307C33.6516 18.5586 35.3581 17.751 36.2695 16.8307C36.7026 16.3957 36.945 15.948 37.0808 15.3314C37.1616 14.9589 37.1551 14.0981 37.0646 13.3344C36.8836 11.8444 37.0226 11.2935 37.6851 10.8647C38.868 10.0978 40.7588 10.2199 43.1181 11.2153L43.312 11.2998L42.9403 10.9461C41.8641 9.92254 40.7038 9.27147 39.5468 9.04297C39.0975 8.9522 38.3186 8.96785 37.9146 9.07427C37.3458 9.22139 36.7155 9.57822 36.2243 10.0258C35.8914 10.3326 35.7072 10.5611 35.5229 10.8991C35.2418 11.4156 35.161 11.7787 35.1189 12.7835C35.0834 13.613 35.0511 13.8696 34.9541 14.1576C34.7343 14.7962 34.0783 15.2719 33.1474 15.4629C32.6691 15.563 31.7092 15.563 31.0951 15.466C30.4423 15.3627 30.4293 15.3596 30.439 15.3345C30.4455 15.322 30.5586 15.2281 30.6911 15.1248C31.024 14.865 31.5961 14.2859 31.8773 13.9228C32.4526 13.181 32.9341 12.2388 33.1022 11.5314C33.1862 11.1777 33.1798 10.558 33.086 10.223C32.9212 9.61892 32.6723 9.17444 31.9969 8.27609C31.2147 7.23375 31.0628 6.93013 31.0628 6.41366C31.0628 6.08812 31.121 5.90971 31.3408 5.54348C31.4927 5.29933 32.0421 4.76721 32.3556 4.57001C33.2218 4.0191 34.521 3.62158 35.9593 3.46194L36.3309 3.42125L36.137 3.36491C35.8429 3.28039 35.3096 3.16771 34.9121 3.10511C34.395 3.02685 33.0311 3.02685 32.598 3.10511C31.2923 3.34613 30.3582 3.99719 29.8153 5.04579C29.4791 5.6906 29.3499 6.23524 29.3757 6.86753C29.4016 7.49981 29.5244 7.85039 30.0286 8.76126C30.3776 9.39355 30.5101 9.70343 30.5651 10.0008C30.6394 10.4108 30.5328 10.8491 30.2613 11.2748C29.8864 11.8538 29.3046 12.3108 28.4126 12.724C28.0215 12.9056 27.2717 13.1904 27.2458 13.1685C27.2426 13.1622 27.2846 13.0308 27.346 12.8743C27.708 11.9446 27.8341 11.1871 27.805 10.1103C27.7727 8.73622 27.5109 8.02255 26.8063 7.35583C26.4282 6.99586 25.8819 6.68285 24.8897 6.25715C23.8393 5.80641 23.4483 5.55913 23.2059 5.18665C22.9182 4.74842 22.9214 3.97841 23.2091 3.23344C23.5678 2.30692 24.5795 1.15503 25.8108 0.269203C25.9789 0.147129 26.1308 0.0375748 26.1502 0.0219231C26.2019 -0.0219002 26.0953 -0.00311661 25.7139 0.106438ZM25.4456 14.0355C26.8321 14.2108 28.07 14.8055 29.0719 15.7759C30.717 17.3754 31.2987 19.7699 30.5586 21.9203C29.8476 23.9768 28.1023 25.4762 25.8916 25.9332C25.3616 26.0427 24.3629 26.074 23.807 25.9958C22.372 25.7923 21.1729 25.1976 20.171 24.1866C19.2014 23.21 18.6391 22.0455 18.471 20.6745C18.3967 20.0704 18.4613 19.1627 18.6197 18.5586C19.2435 16.1609 21.3087 14.3705 23.8361 14.0355C24.266 13.9792 24.9931 13.9792 25.4456 14.0355Z" fill="#B5972C" fill-opacity="0.7" stroke="black" mask="url(#path-1-inside-1_126_253)"/>
<path d="M23.8619 14.8494C22.6564 15.0404 21.7288 15.5005 20.8627 16.3362C20.2033 16.9717 19.7993 17.604 19.5311 18.4178C19.3275 19.0282 19.2984 19.241 19.2984 20.0298C19.3016 20.8061 19.3436 21.0878 19.544 21.6731C20.3229 23.9362 22.6209 25.4136 25.0675 25.2227C27.4915 25.0349 29.4306 23.3665 29.9381 21.0346C30.0124 20.6871 30.0253 20.5682 30.0253 20.0455C30.0253 19.6041 30.0092 19.3693 29.9672 19.1377C29.7571 18.0203 29.2561 17.1 28.4287 16.3049C27.6789 15.585 26.7546 15.1061 25.7042 14.8933C25.2711 14.8056 24.2853 14.7837 23.8619 14.8494Z" fill="#B5972C" fill-opacity="0.7"/>
</g>
<defs>
<filter id="filter0_ddd_126_253" x="0" y="0" width="49.2997" height="48" filterUnits="userSpaceOnUse" color-interpolation-filters="sRGB">
<feFlood flood-opacity="0" result="BackgroundImageFix"/>
<feColorMatrix in="SourceAlpha" type="matrix" values="0 0 0 0 0 0 0 0 0 0 0 0 0 0 0 0 0 0 127 0" result="hardAlpha"/>
<feOffset dy="4"/>
<feGaussianBlur stdDeviation="2"/>
<feComposite in2="hardAlpha" operator="out"/>
<feColorMatrix type="matrix" values="0 0 0 0 0 0 0 0 0 0 0 0 0 0 0 0 0 0 0.25 0"/>
<feBlend mode="normal" in2="BackgroundImageFix" result="effect1_dropShadow_126_253"/>
<feColorMatrix in="SourceAlpha" type="matrix" values="0 0 0 0 0 0 0 0 0 0 0 0 0 0 0 0 0 0 127 0" result="hardAlpha"/>
<feOffset dy="4"/>
<feGaussianBlur stdDeviation="2"/>
<feComposite in2="hardAlpha" operator="out"/>
<feColorMatrix type="matrix" values="0 0 0 0 0 0 0 0 0 0 0 0 0 0 0 0 0 0 0.25 0"/>
<feBlend mode="normal" in2="effect1_dropShadow_126_253" result="effect2_dropShadow_126_253"/>
<feColorMatrix in="SourceAlpha" type="matrix" values="0 0 0 0 0 0 0 0 0 0 0 0 0 0 0 0 0 0 127 0" result="hardAlpha"/>
<feOffset dy="4"/>
<feGaussianBlur stdDeviation="2"/>
<feComposite in2="hardAlpha" operator="out"/>
<feColorMatrix type="matrix" values="0 0 0 0 0 0 0 0 0 0 0 0 0 0 0 0 0 0 0.25 0"/>
<feBlend mode="normal" in2="effect2_dropShadow_126_253" result="effect3_dropShadow_126_253"/>
<feBlend mode="normal" in="SourceGraphic" in2="effect3_dropShadow_126_253" result="shape"/>
</filter>
</defs>
</svg>
