<svg width="163" height="158" viewBox="0 0 163 158" fill="none" xmlns="http://www.w3.org/2000/svg">
<g filter="url(#filter0_ddd_45_302)">
<mask id="path-1-inside-1_45_302" fill="white">
<path d="M85.4271 0.399139C83.3424 0.986038 81.8032 1.5612 79.7913 2.51198C72.0709 6.15076 68.4591 11.562 69.356 18.1353C69.962 22.6192 71.7679 25.3659 75.7675 27.8778C76.6765 28.453 77.9854 29.2629 78.6641 29.6855C80.1185 30.5893 81.3548 31.7161 81.888 32.6317C82.4334 33.559 82.7607 34.8971 82.7607 36.1531C82.7607 39.4867 81.0396 43.0785 77.5006 47.1633C76.5068 48.3019 76.6522 48.4193 76.228 46.1656C75.4039 41.8108 73.1738 37.3386 70.0469 33.7351C68.2531 31.6692 65.9503 30.3663 63.1749 29.8498C61.6599 29.5681 58.8238 29.6033 55.915 29.932C53.0062 30.2606 50.4126 30.2841 49.3097 30.0024C47.5886 29.5563 46.413 28.5117 45.4192 26.5749C44.7162 25.1898 44.389 24.0395 44.2072 22.2084C43.8193 18.5343 45.0313 13.1818 47.4311 7.91145L47.7462 7.20718L46.7645 8.14622C42.68 12.0198 39.6864 17.0319 38.935 21.2341C38.6684 22.76 38.7532 25.3659 39.1047 26.704C39.6622 28.7347 40.6681 30.5541 42.2558 32.3852C44.5586 35.038 47.0796 36.3996 50.4974 36.8339C51.0064 36.9043 52.7154 37.01 54.2788 37.0687C58.3875 37.233 59.6601 37.6086 61.1993 39.0759C63.4173 41.1887 64.4717 44.9096 64.1081 49.2997C63.9869 50.7552 63.5991 53.3375 63.4173 53.8892C63.3688 54.0418 63.1385 53.8423 62.4719 53.0676C59.7813 49.9805 56.7028 47.6563 53.0062 45.9309C50.1459 44.5927 48.3522 44.1232 46.1948 44.1232C43.2497 44.1349 40.6924 45.1209 37.0685 47.6563C33.7477 49.9805 33.1659 50.3678 32.3054 50.8139C29.8814 52.0816 28.3664 52.152 26.2212 51.1073C21.5671 48.8301 18.3796 42.4799 17.3615 33.4416C17.2645 32.5261 17.2282 32.5965 16.6949 34.6741C16.0283 37.3034 15.8102 39.0876 15.8102 42.0104C15.798 43.7124 15.8586 44.9918 15.9677 45.5905C16.5616 49.018 17.7615 51.5416 19.8097 53.6192C20.9611 54.793 22.0883 55.5912 23.676 56.3659C26.8999 57.9271 30.039 58.3262 33.1295 57.575C34.1234 57.3285 34.9839 56.9646 37.8563 55.5678C41.6014 53.7484 42.2801 53.5136 43.7951 53.5136C47.2008 53.5136 50.5944 56.2603 53.0668 61.0259C53.6849 62.2115 55.0787 65.592 54.9818 65.6624C54.9575 65.6742 54.3758 65.4864 53.6849 65.2281C50.6065 64.1013 47.5523 63.5731 43.9769 63.5731C37.9654 63.5613 34.5961 64.7704 31.8812 67.9161C30.6086 69.3834 29.7966 70.8037 28.1604 74.419C26.1848 78.7738 24.9849 80.241 22.9124 80.8632C21.3974 81.3209 18.7674 81.1449 16.9009 80.4641C12.962 79.0203 8.63515 75.4872 4.98705 70.7215C4.47802 70.0642 4.05382 69.5125 4.01746 69.4773C3.8599 69.313 4.80525 72.3883 5.38701 73.9377C5.62941 74.5481 6.21117 75.851 6.70808 76.8135C10.6228 84.5606 16.5495 87.9881 23.7366 86.6617C26.7181 86.1218 28.8754 85.0419 30.7177 83.199C31.8448 82.0604 32.3175 81.4148 33.7961 79.1025C35.2748 76.7783 36.0747 75.7923 37.0564 75.0763C38.3896 74.1021 39.7591 73.7617 41.9165 73.8556C44.0617 73.9495 46.0858 74.6068 48.5097 75.9801C49.6975 76.6609 52.0124 78.3043 53.1274 79.2551L53.7213 79.7715L52.8244 79.9124C51.37 80.1354 48.74 80.7927 47.4311 81.274C43.6254 82.6356 39.4683 85.218 37.4806 87.4482C34.8869 90.3709 34.184 93.6576 34.8869 99.644C35.4081 104.057 35.3232 105.842 34.5476 107.356C33.7113 108.952 31.8327 110.173 29.13 110.877C28.0149 111.171 27.7362 111.194 25.494 111.194C23.4942 111.194 22.8034 111.147 21.5065 110.924C18.8159 110.466 15.5193 109.469 12.6469 108.26L11.4349 107.743L12.8286 109.07C18.3432 114.281 24.7304 117.051 29.8814 116.441C33.0326 116.065 35.8565 114.669 38.3411 112.262C40.0864 110.584 40.9954 109.152 41.6014 107.133C42.0135 105.736 42.1347 104.715 42.2801 101.463C42.3649 99.3153 42.4498 98.4232 42.6316 97.7307C43.2254 95.5239 44.4859 94.1271 46.8978 93.012C49.7823 91.6856 54.6788 91.486 59.2722 92.4955L59.8419 92.6246L58.7874 93.4698C55.6847 95.9817 53.1153 99.1979 51.3579 102.755C49.9278 105.666 49.4915 107.391 49.5884 109.739C49.7096 112.826 50.6671 114.786 54.5697 119.998C57.5997 124.024 58.1087 125.89 56.8846 128.379C55.0909 132.041 50.764 134.752 44.3405 136.267C42.5104 136.689 40.2561 137.076 38.9713 137.17C38.4502 137.206 38.0018 137.276 37.9775 137.323C37.8563 137.511 41.0802 138.227 43.4315 138.544C46.4857 138.955 49.6005 138.896 52.1821 138.379C57.1876 137.37 60.7751 134.541 62.6416 130.116C64.3384 126.078 64.2051 122.709 62.181 118.894C61.9144 118.413 61.2478 117.145 60.6782 116.077C59.5268 113.906 59.248 113.025 59.248 111.582C59.248 108.401 61.8659 105.22 66.4109 102.884C68.0713 102.027 71.5255 100.689 71.6831 100.841C71.7073 100.876 71.5376 101.393 71.3073 101.992C70.7619 103.353 70.1196 105.759 69.8408 107.508C69.5378 109.398 69.5257 113.507 69.8287 115.349C70.362 118.624 71.3922 120.678 73.4404 122.603C74.9918 124.036 76.628 124.986 80.2155 126.524C85.1847 128.649 86.6027 129.67 87.3662 131.653C88.0934 133.555 87.6571 136.654 86.2876 139.283C84.6029 142.523 81.173 146.197 77.0158 149.214C75.9977 149.953 75.9614 150 76.325 150C77.0764 150 81.0518 148.627 83.0637 147.664C87.948 145.34 91.0507 142.535 92.6021 139.06C93.2929 137.511 93.5474 136.349 93.6322 134.494C93.814 130.292 92.4809 126.747 89.766 124.223C88.8085 123.331 87.9722 122.768 84.3847 120.538C81.5972 118.812 80.5427 117.404 80.2155 114.986C79.7428 111.558 81.6456 107.203 85.5483 102.813L86.3239 101.945L86.53 103.177C87.2329 107.45 89.0752 111.593 91.8991 115.256C93.5353 117.368 95.2321 118.753 97.1591 119.54C99.7528 120.596 102.237 120.749 107.364 120.185C108.528 120.056 110.224 119.951 111.121 119.951C113.691 119.951 114.794 120.315 116.09 121.582C117.06 122.533 117.896 124.059 118.357 125.761C118.66 126.853 118.684 127.123 118.684 129.4C118.684 131.489 118.648 132.076 118.418 133.273C117.884 135.985 117.133 138.403 116.006 141.009C115.642 141.854 115.315 142.629 115.278 142.722C115.157 143.039 116.939 141.279 118.139 139.905C119.605 138.203 120.442 137.053 121.508 135.257C123.993 131.043 124.768 126.794 123.714 123.12C122.647 119.399 119.266 115.561 115.884 114.199C113.994 113.436 112.709 113.248 107.97 113.037C104.661 112.884 103.619 112.603 102.165 111.499C100.553 110.255 99.365 107.943 98.9165 105.102C98.6984 103.658 98.759 100.16 99.0499 98.4702C99.3165 96.9677 99.5104 96.1226 99.5953 96.1343C99.6316 96.1343 99.971 96.4982 100.335 96.956C101.244 98.0711 103.546 100.243 104.916 101.264C107.485 103.177 111.23 105.055 113.727 105.677C117.266 106.558 120.623 105.865 124.356 103.482C124.914 103.13 126.344 102.156 127.544 101.299C129.75 99.7379 131.604 98.7284 132.719 98.4584C133.555 98.2706 135.167 98.3763 135.991 98.6932C137.749 99.3505 139.809 101.076 141.106 102.954C141.906 104.128 143.069 106.44 143.603 107.919C144.451 110.29 145.287 114.046 145.493 116.418C145.542 116.934 145.615 117.333 145.675 117.31C145.724 117.274 145.93 116.582 146.136 115.749C147.711 109.433 147.481 103.905 145.481 99.82C144.221 97.2494 142.088 95.1718 139.361 93.8336C136.694 92.5307 133.895 91.9556 131.58 92.2373C129.447 92.5073 128.053 93.0355 123.605 95.3009C122.841 95.6883 121.775 96.146 121.241 96.3104C116.793 97.7072 112.115 94.3971 109.206 87.7886C108.552 86.3096 107.934 84.6193 108.006 84.5371C108.031 84.5137 108.491 84.6545 109.012 84.8541C110.515 85.4175 112.358 85.8988 114.272 86.2274C115.812 86.4974 116.369 86.5326 118.817 86.5443C124.574 86.5678 127.447 85.6875 130.162 83.0934C131.834 81.497 132.961 79.7011 134.573 76.1093C136.282 72.2827 137.312 70.745 138.791 69.8177C141.179 68.3152 145.53 68.9373 149.323 71.2967C152.22 73.1161 155.456 76.1797 157.989 79.5015C158.474 80.1471 158.874 80.6284 158.874 80.5814C158.874 80.3232 158.328 78.4921 157.844 77.1305C156.207 72.494 153.626 68.5265 150.778 66.2728C148.16 64.1952 145.481 63.2561 142.136 63.2561C138.015 63.2561 134.707 64.4534 132.258 66.8597C131.301 67.8105 130.501 68.8669 129.022 71.1793C127.629 73.3508 126.901 74.2429 125.968 74.9707C124.696 75.9449 123.484 76.3088 121.544 76.3088C118.745 76.3205 115.86 75.2524 112.6 73.0339C111.485 72.2592 109.388 70.6041 109.328 70.4281C109.303 70.3694 109.582 70.2872 109.934 70.2403C115.194 69.5947 121.593 66.5663 125.011 63.1153C126.635 61.4837 127.544 59.8052 128.053 57.4928C128.356 56.096 128.332 52.868 127.992 50.0039C127.314 44.4166 127.835 42.3508 130.319 40.7427C134.755 37.8668 141.845 38.3246 150.693 42.0573L151.42 42.3742L150.026 41.0478C145.99 37.2095 141.639 34.768 137.3 33.9111C135.616 33.5707 132.695 33.6294 131.18 34.0285C129.047 34.5802 126.683 35.9183 124.841 37.5969C123.593 38.7472 122.902 39.6041 122.211 40.8718C121.157 42.8085 120.854 44.1702 120.696 47.9381C120.563 51.0486 120.442 52.0111 120.078 53.091C119.254 55.4856 116.793 57.2698 113.303 57.9858C111.509 58.3614 107.91 58.3614 105.607 57.9975C103.159 57.6102 103.11 57.5984 103.146 57.5045C103.171 57.4576 103.595 57.1054 104.092 56.7181C105.34 55.7438 107.485 53.5723 108.54 52.2107C110.697 49.4288 112.503 45.8956 113.133 43.2429C113.448 41.9165 113.424 39.5923 113.073 38.3364C112.455 36.0709 111.521 34.4041 108.988 31.0353C106.055 27.1266 105.486 25.988 105.486 24.0512C105.486 22.8305 105.704 22.1614 106.528 20.7881C107.097 19.8725 109.158 17.877 110.334 17.1375C113.582 15.0716 118.454 13.5809 123.847 12.9823L125.241 12.8297L124.514 12.6184C123.411 12.3015 121.411 11.8789 119.92 11.6441C117.981 11.3507 112.867 11.3507 111.243 11.6441C106.346 12.548 102.843 14.9895 100.807 18.9217C99.5468 21.3397 99.062 23.3821 99.1589 25.7532C99.2559 28.1243 99.7165 29.439 101.607 32.8547C102.916 35.2258 103.413 36.3879 103.619 37.503C103.898 39.0406 103.498 40.684 102.48 42.2803C101.074 44.4519 98.8923 46.1656 95.5472 47.715C94.0807 48.3958 91.2689 49.464 91.1719 49.3818C91.1598 49.3584 91.3173 48.8654 91.5476 48.2785C92.9051 44.7923 93.3777 41.9517 93.2687 37.9138C93.1475 32.7608 92.1657 30.0845 89.5236 27.5844C88.1056 26.2345 86.0573 25.0607 82.3365 23.4643C78.3975 21.774 76.931 20.8467 76.022 19.4499C74.9433 17.8066 74.9554 14.9191 76.0341 12.1254C77.3794 8.65096 81.173 4.33138 85.7906 1.00951C86.4209 0.551727 86.9905 0.1409 87.0632 0.0822144C87.2572 -0.0821228 86.8572 -0.0116882 85.4271 0.399139ZM84.4211 52.6333C89.6206 53.2906 94.2625 55.5208 98.0197 59.1596C104.189 65.1577 106.37 74.1373 103.595 82.2013C100.928 89.9132 94.3837 95.5357 86.0937 97.2494C84.106 97.6602 80.3609 97.7776 78.2763 97.4842C72.895 96.7212 68.3985 94.491 64.6414 90.6996C61.0054 87.0373 58.8965 82.6708 58.2663 77.5296C57.9875 75.2641 58.2299 71.8601 58.8238 69.5947C61.1629 60.6034 68.9076 53.8892 78.3854 52.6333C79.9973 52.422 82.7243 52.422 84.4211 52.6333Z"/>
</mask>
<path d="M85.4271 0.399139C83.3424 0.986038 81.8032 1.5612 79.7913 2.51198C72.0709 6.15076 68.4591 11.562 69.356 18.1353C69.962 22.6192 71.7679 25.3659 75.7675 27.8778C76.6765 28.453 77.9854 29.2629 78.6641 29.6855C80.1185 30.5893 81.3548 31.7161 81.888 32.6317C82.4334 33.559 82.7607 34.8971 82.7607 36.1531C82.7607 39.4867 81.0396 43.0785 77.5006 47.1633C76.5068 48.3019 76.6522 48.4193 76.228 46.1656C75.4039 41.8108 73.1738 37.3386 70.0469 33.7351C68.2531 31.6692 65.9503 30.3663 63.1749 29.8498C61.6599 29.5681 58.8238 29.6033 55.915 29.932C53.0062 30.2606 50.4126 30.2841 49.3097 30.0024C47.5886 29.5563 46.413 28.5117 45.4192 26.5749C44.7162 25.1898 44.389 24.0395 44.2072 22.2084C43.8193 18.5343 45.0313 13.1818 47.4311 7.91145L47.7462 7.20718L46.7645 8.14622C42.68 12.0198 39.6864 17.0319 38.935 21.2341C38.6684 22.76 38.7532 25.3659 39.1047 26.704C39.6622 28.7347 40.6681 30.5541 42.2558 32.3852C44.5586 35.038 47.0796 36.3996 50.4974 36.8339C51.0064 36.9043 52.7154 37.01 54.2788 37.0687C58.3875 37.233 59.6601 37.6086 61.1993 39.0759C63.4173 41.1887 64.4717 44.9096 64.1081 49.2997C63.9869 50.7552 63.5991 53.3375 63.4173 53.8892C63.3688 54.0418 63.1385 53.8423 62.4719 53.0676C59.7813 49.9805 56.7028 47.6563 53.0062 45.9309C50.1459 44.5927 48.3522 44.1232 46.1948 44.1232C43.2497 44.1349 40.6924 45.1209 37.0685 47.6563C33.7477 49.9805 33.1659 50.3678 32.3054 50.8139C29.8814 52.0816 28.3664 52.152 26.2212 51.1073C21.5671 48.8301 18.3796 42.4799 17.3615 33.4416C17.2645 32.5261 17.2282 32.5965 16.6949 34.6741C16.0283 37.3034 15.8102 39.0876 15.8102 42.0104C15.798 43.7124 15.8586 44.9918 15.9677 45.5905C16.5616 49.018 17.7615 51.5416 19.8097 53.6192C20.9611 54.793 22.0883 55.5912 23.676 56.3659C26.8999 57.9271 30.039 58.3262 33.1295 57.575C34.1234 57.3285 34.9839 56.9646 37.8563 55.5678C41.6014 53.7484 42.2801 53.5136 43.7951 53.5136C47.2008 53.5136 50.5944 56.2603 53.0668 61.0259C53.6849 62.2115 55.0787 65.592 54.9818 65.6624C54.9575 65.6742 54.3758 65.4864 53.6849 65.2281C50.6065 64.1013 47.5523 63.5731 43.9769 63.5731C37.9654 63.5613 34.5961 64.7704 31.8812 67.9161C30.6086 69.3834 29.7966 70.8037 28.1604 74.419C26.1848 78.7738 24.9849 80.241 22.9124 80.8632C21.3974 81.3209 18.7674 81.1449 16.9009 80.4641C12.962 79.0203 8.63515 75.4872 4.98705 70.7215C4.47802 70.0642 4.05382 69.5125 4.01746 69.4773C3.8599 69.313 4.80525 72.3883 5.38701 73.9377C5.62941 74.5481 6.21117 75.851 6.70808 76.8135C10.6228 84.5606 16.5495 87.9881 23.7366 86.6617C26.7181 86.1218 28.8754 85.0419 30.7177 83.199C31.8448 82.0604 32.3175 81.4148 33.7961 79.1025C35.2748 76.7783 36.0747 75.7923 37.0564 75.0763C38.3896 74.1021 39.7591 73.7617 41.9165 73.8556C44.0617 73.9495 46.0858 74.6068 48.5097 75.9801C49.6975 76.6609 52.0124 78.3043 53.1274 79.2551L53.7213 79.7715L52.8244 79.9124C51.37 80.1354 48.74 80.7927 47.4311 81.274C43.6254 82.6356 39.4683 85.218 37.4806 87.4482C34.8869 90.3709 34.184 93.6576 34.8869 99.644C35.4081 104.057 35.3232 105.842 34.5476 107.356C33.7113 108.952 31.8327 110.173 29.13 110.877C28.0149 111.171 27.7362 111.194 25.494 111.194C23.4942 111.194 22.8034 111.147 21.5065 110.924C18.8159 110.466 15.5193 109.469 12.6469 108.26L11.4349 107.743L12.8286 109.07C18.3432 114.281 24.7304 117.051 29.8814 116.441C33.0326 116.065 35.8565 114.669 38.3411 112.262C40.0864 110.584 40.9954 109.152 41.6014 107.133C42.0135 105.736 42.1347 104.715 42.2801 101.463C42.3649 99.3153 42.4498 98.4232 42.6316 97.7307C43.2254 95.5239 44.4859 94.1271 46.8978 93.012C49.7823 91.6856 54.6788 91.486 59.2722 92.4955L59.8419 92.6246L58.7874 93.4698C55.6847 95.9817 53.1153 99.1979 51.3579 102.755C49.9278 105.666 49.4915 107.391 49.5884 109.739C49.7096 112.826 50.6671 114.786 54.5697 119.998C57.5997 124.024 58.1087 125.89 56.8846 128.379C55.0909 132.041 50.764 134.752 44.3405 136.267C42.5104 136.689 40.2561 137.076 38.9713 137.17C38.4502 137.206 38.0018 137.276 37.9775 137.323C37.8563 137.511 41.0802 138.227 43.4315 138.544C46.4857 138.955 49.6005 138.896 52.1821 138.379C57.1876 137.37 60.7751 134.541 62.6416 130.116C64.3384 126.078 64.2051 122.709 62.181 118.894C61.9144 118.413 61.2478 117.145 60.6782 116.077C59.5268 113.906 59.248 113.025 59.248 111.582C59.248 108.401 61.8659 105.22 66.4109 102.884C68.0713 102.027 71.5255 100.689 71.6831 100.841C71.7073 100.876 71.5376 101.393 71.3073 101.992C70.7619 103.353 70.1196 105.759 69.8408 107.508C69.5378 109.398 69.5257 113.507 69.8287 115.349C70.362 118.624 71.3922 120.678 73.4404 122.603C74.9918 124.036 76.628 124.986 80.2155 126.524C85.1847 128.649 86.6027 129.67 87.3662 131.653C88.0934 133.555 87.6571 136.654 86.2876 139.283C84.6029 142.523 81.173 146.197 77.0158 149.214C75.9977 149.953 75.9614 150 76.325 150C77.0764 150 81.0518 148.627 83.0637 147.664C87.948 145.34 91.0507 142.535 92.6021 139.06C93.2929 137.511 93.5474 136.349 93.6322 134.494C93.814 130.292 92.4809 126.747 89.766 124.223C88.8085 123.331 87.9722 122.768 84.3847 120.538C81.5972 118.812 80.5427 117.404 80.2155 114.986C79.7428 111.558 81.6456 107.203 85.5483 102.813L86.3239 101.945L86.53 103.177C87.2329 107.45 89.0752 111.593 91.8991 115.256C93.5353 117.368 95.2321 118.753 97.1591 119.54C99.7528 120.596 102.237 120.749 107.364 120.185C108.528 120.056 110.224 119.951 111.121 119.951C113.691 119.951 114.794 120.315 116.09 121.582C117.06 122.533 117.896 124.059 118.357 125.761C118.66 126.853 118.684 127.123 118.684 129.4C118.684 131.489 118.648 132.076 118.418 133.273C117.884 135.985 117.133 138.403 116.006 141.009C115.642 141.854 115.315 142.629 115.278 142.722C115.157 143.039 116.939 141.279 118.139 139.905C119.605 138.203 120.442 137.053 121.508 135.257C123.993 131.043 124.768 126.794 123.714 123.12C122.647 119.399 119.266 115.561 115.884 114.199C113.994 113.436 112.709 113.248 107.97 113.037C104.661 112.884 103.619 112.603 102.165 111.499C100.553 110.255 99.365 107.943 98.9165 105.102C98.6984 103.658 98.759 100.16 99.0499 98.4702C99.3165 96.9677 99.5104 96.1226 99.5953 96.1343C99.6316 96.1343 99.971 96.4982 100.335 96.956C101.244 98.0711 103.546 100.243 104.916 101.264C107.485 103.177 111.23 105.055 113.727 105.677C117.266 106.558 120.623 105.865 124.356 103.482C124.914 103.13 126.344 102.156 127.544 101.299C129.75 99.7379 131.604 98.7284 132.719 98.4584C133.555 98.2706 135.167 98.3763 135.991 98.6932C137.749 99.3505 139.809 101.076 141.106 102.954C141.906 104.128 143.069 106.44 143.603 107.919C144.451 110.29 145.287 114.046 145.493 116.418C145.542 116.934 145.615 117.333 145.675 117.31C145.724 117.274 145.93 116.582 146.136 115.749C147.711 109.433 147.481 103.905 145.481 99.82C144.221 97.2494 142.088 95.1718 139.361 93.8336C136.694 92.5307 133.895 91.9556 131.58 92.2373C129.447 92.5073 128.053 93.0355 123.605 95.3009C122.841 95.6883 121.775 96.146 121.241 96.3104C116.793 97.7072 112.115 94.3971 109.206 87.7886C108.552 86.3096 107.934 84.6193 108.006 84.5371C108.031 84.5137 108.491 84.6545 109.012 84.8541C110.515 85.4175 112.358 85.8988 114.272 86.2274C115.812 86.4974 116.369 86.5326 118.817 86.5443C124.574 86.5678 127.447 85.6875 130.162 83.0934C131.834 81.497 132.961 79.7011 134.573 76.1093C136.282 72.2827 137.312 70.745 138.791 69.8177C141.179 68.3152 145.53 68.9373 149.323 71.2967C152.22 73.1161 155.456 76.1797 157.989 79.5015C158.474 80.1471 158.874 80.6284 158.874 80.5814C158.874 80.3232 158.328 78.4921 157.844 77.1305C156.207 72.494 153.626 68.5265 150.778 66.2728C148.16 64.1952 145.481 63.2561 142.136 63.2561C138.015 63.2561 134.707 64.4534 132.258 66.8597C131.301 67.8105 130.501 68.8669 129.022 71.1793C127.629 73.3508 126.901 74.2429 125.968 74.9707C124.696 75.9449 123.484 76.3088 121.544 76.3088C118.745 76.3205 115.86 75.2524 112.6 73.0339C111.485 72.2592 109.388 70.6041 109.328 70.4281C109.303 70.3694 109.582 70.2872 109.934 70.2403C115.194 69.5947 121.593 66.5663 125.011 63.1153C126.635 61.4837 127.544 59.8052 128.053 57.4928C128.356 56.096 128.332 52.868 127.992 50.0039C127.314 44.4166 127.835 42.3508 130.319 40.7427C134.755 37.8668 141.845 38.3246 150.693 42.0573L151.42 42.3742L150.026 41.0478C145.99 37.2095 141.639 34.768 137.3 33.9111C135.616 33.5707 132.695 33.6294 131.18 34.0285C129.047 34.5802 126.683 35.9183 124.841 37.5969C123.593 38.7472 122.902 39.6041 122.211 40.8718C121.157 42.8085 120.854 44.1702 120.696 47.9381C120.563 51.0486 120.442 52.0111 120.078 53.091C119.254 55.4856 116.793 57.2698 113.303 57.9858C111.509 58.3614 107.91 58.3614 105.607 57.9975C103.159 57.6102 103.11 57.5984 103.146 57.5045C103.171 57.4576 103.595 57.1054 104.092 56.7181C105.34 55.7438 107.485 53.5723 108.54 52.2107C110.697 49.4288 112.503 45.8956 113.133 43.2429C113.448 41.9165 113.424 39.5923 113.073 38.3364C112.455 36.0709 111.521 34.4041 108.988 31.0353C106.055 27.1266 105.486 25.988 105.486 24.0512C105.486 22.8305 105.704 22.1614 106.528 20.7881C107.097 19.8725 109.158 17.877 110.334 17.1375C113.582 15.0716 118.454 13.5809 123.847 12.9823L125.241 12.8297L124.514 12.6184C123.411 12.3015 121.411 11.8789 119.92 11.6441C117.981 11.3507 112.867 11.3507 111.243 11.6441C106.346 12.548 102.843 14.9895 100.807 18.9217C99.5468 21.3397 99.062 23.3821 99.1589 25.7532C99.2559 28.1243 99.7165 29.439 101.607 32.8547C102.916 35.2258 103.413 36.3879 103.619 37.503C103.898 39.0406 103.498 40.684 102.48 42.2803C101.074 44.4519 98.8923 46.1656 95.5472 47.715C94.0807 48.3958 91.2689 49.464 91.1719 49.3818C91.1598 49.3584 91.3173 48.8654 91.5476 48.2785C92.9051 44.7923 93.3777 41.9517 93.2687 37.9138C93.1475 32.7608 92.1657 30.0845 89.5236 27.5844C88.1056 26.2345 86.0573 25.0607 82.3365 23.4643C78.3975 21.774 76.931 20.8467 76.022 19.4499C74.9433 17.8066 74.9554 14.9191 76.0341 12.1254C77.3794 8.65096 81.173 4.33138 85.7906 1.00951C86.4209 0.551727 86.9905 0.1409 87.0632 0.0822144C87.2572 -0.0821228 86.8572 -0.0116882 85.4271 0.399139ZM84.4211 52.6333C89.6206 53.2906 94.2625 55.5208 98.0197 59.1596C104.189 65.1577 106.37 74.1373 103.595 82.2013C100.928 89.9132 94.3837 95.5357 86.0937 97.2494C84.106 97.6602 80.3609 97.7776 78.2763 97.4842C72.895 96.7212 68.3985 94.491 64.6414 90.6996C61.0054 87.0373 58.8965 82.6708 58.2663 77.5296C57.9875 75.2641 58.2299 71.8601 58.8238 69.5947C61.1629 60.6034 68.9076 53.8892 78.3854 52.6333C79.9973 52.422 82.7243 52.422 84.4211 52.6333Z" fill="#B5972C" fill-opacity="0.7" stroke="black" stroke-width="2" mask="url(#path-1-inside-1_45_302)"/>
<path d="M78.4823 55.6851C73.9616 56.4011 70.4831 58.1266 67.235 61.2607C64.7625 63.6435 63.2475 66.0146 62.2416 69.0665C61.478 71.3554 61.3689 72.1536 61.3689 75.1115C61.3811 78.0226 61.5386 79.079 62.2901 81.274C65.211 89.7606 73.8282 95.3009 83.003 94.5849C92.093 93.8806 99.3649 87.6242 101.268 78.8794C101.547 77.5765 101.595 77.1305 101.595 75.1702C101.595 73.5152 101.534 72.6348 101.377 71.7662C100.589 67.5757 98.7105 64.1248 95.6078 61.1433C92.7959 58.4436 89.3296 56.6476 85.3907 55.8495C83.7666 55.5208 80.07 55.4386 78.4823 55.6851Z" fill="#B5972C" fill-opacity="0.7"/>
</g>
<defs>
<filter id="filter0_ddd_45_302" x="0" y="0" width="162.874" height="158" filterUnits="userSpaceOnUse" color-interpolation-filters="sRGB">
<feFlood flood-opacity="0" result="BackgroundImageFix"/>
<feColorMatrix in="SourceAlpha" type="matrix" values="0 0 0 0 0 0 0 0 0 0 0 0 0 0 0 0 0 0 127 0" result="hardAlpha"/>
<feOffset dy="4"/>
<feGaussianBlur stdDeviation="2"/>
<feComposite in2="hardAlpha" operator="out"/>
<feColorMatrix type="matrix" values="0 0 0 0 0 0 0 0 0 0 0 0 0 0 0 0 0 0 0.25 0"/>
<feBlend mode="normal" in2="BackgroundImageFix" result="effect1_dropShadow_45_302"/>
<feColorMatrix in="SourceAlpha" type="matrix" values="0 0 0 0 0 0 0 0 0 0 0 0 0 0 0 0 0 0 127 0" result="hardAlpha"/>
<feOffset dy="4"/>
<feGaussianBlur stdDeviation="2"/>
<feComposite in2="hardAlpha" operator="out"/>
<feColorMatrix type="matrix" values="0 0 0 0 0 0 0 0 0 0 0 0 0 0 0 0 0 0 0.25 0"/>
<feBlend mode="normal" in2="effect1_dropShadow_45_302" result="effect2_dropShadow_45_302"/>
<feColorMatrix in="SourceAlpha" type="matrix" values="0 0 0 0 0 0 0 0 0 0 0 0 0 0 0 0 0 0 127 0" result="hardAlpha"/>
<feOffset dy="4"/>
<feGaussianBlur stdDeviation="2"/>
<feComposite in2="hardAlpha" operator="out"/>
<feColorMatrix type="matrix" values="0 0 0 0 0 0 0 0 0 0 0 0 0 0 0 0 0 0 0.25 0"/>
<feBlend mode="normal" in2="effect2_dropShadow_45_302" result="effect3_dropShadow_45_302"/>
<feBlend mode="normal" in="SourceGraphic" in2="effect3_dropShadow_45_302" result="shape"/>
</filter>
</defs>
</svg>
