<svg width="7" height="22" viewBox="0 0 7 22" fill="none" xmlns="http://www.w3.org/2000/svg">
<path d="M2.95907 0.0253658C2.79922 0.0545845 2.68063 0.0941162 2.53282 0.168022C2.09454 0.386303 1.79032 0.76099 1.66141 1.2388L1.62188 1.38318L1.61329 8.65693L1.60469 15.9307L1.4586 16.0269C0.707506 16.5288 0.231412 17.2421 0.0475055 18.1461C0.00109925 18.3696 -0.0143695 18.8732 0.0148493 19.1258C0.176412 20.4957 1.19391 21.6215 2.54313 21.9205C4.24469 22.2969 5.94969 21.2588 6.38969 19.5744C6.47563 19.2461 6.48594 19.1499 6.48594 18.734C6.48594 18.3232 6.47219 18.2166 6.3811 17.8763C6.22469 17.2971 5.86719 16.7196 5.4186 16.3243C5.27251 16.1936 5.05251 16.0304 4.93563 15.9651L4.86172 15.9238V15.0335V14.1449H5.42032H5.97891V13.9386V13.7324H5.42032H4.86172V12.4176V11.1027H5.42032H5.97891V10.8965V10.6902H5.42032H4.86172V9.37537V8.06052H5.42032H5.97891V7.85427V7.64802L5.42547 7.64458L4.87032 7.63943L4.86516 6.32802L4.86172 5.01834H5.42032H5.97891V4.80349V4.58865H5.42032H4.86172V3.01943C4.86172 1.55849 4.85829 1.44162 4.82907 1.29724C4.76376 0.977552 4.61079 0.704271 4.36501 0.463648C3.9886 0.0975533 3.46438 -0.0674458 2.95907 0.0253658ZM3.54344 0.62521C3.86829 0.728334 4.12782 0.984428 4.23954 1.31271L4.28594 1.45193L4.2911 8.86318L4.29454 16.2744L4.49735 16.393C5.03016 16.7093 5.36016 17.0479 5.60766 17.5343C6.04422 18.3902 5.99782 19.3888 5.48391 20.1863C5.09204 20.7965 4.48704 21.209 3.75657 21.3671C3.49876 21.4221 2.99001 21.4221 2.72532 21.3671C1.89344 21.1918 1.23001 20.6813 0.848443 19.9216C0.487505 19.2015 0.490943 18.294 0.857037 17.5635C1.1011 17.0736 1.46376 16.6972 1.9811 16.3947L2.19766 16.2693V8.93708C2.19766 4.24662 2.20454 1.56537 2.21485 1.48974C2.25094 1.24911 2.34376 1.06177 2.52079 0.884741C2.63594 0.769585 2.82844 0.656147 2.9711 0.621773C3.01407 0.61146 3.06391 0.59771 3.08282 0.594273C3.14813 0.578804 3.46094 0.599428 3.54344 0.62521Z" fill="black"/>
<path d="M2.61005 13.1722V16.5289L2.47771 16.5771C1.72833 16.8417 1.16115 17.4897 0.992708 18.27C0.935989 18.533 0.935989 18.961 0.990989 19.2136C1.20068 20.1503 1.91911 20.8464 2.85068 21.0131C3.06552 21.051 3.42646 21.051 3.6413 21.0131C4.35974 20.8842 4.97849 20.4236 5.30333 19.7739C5.39615 19.59 5.45286 19.4302 5.49927 19.2136C5.55599 18.9592 5.55599 18.5313 5.49927 18.27C5.33083 17.4897 4.76365 16.8417 4.01599 16.5771L3.88193 16.5289V13.1722V9.81377H3.24599H2.61005V13.1722Z" fill="black"/>
</svg>
