<svg width="156" height="158" viewBox="0 0 156 158" fill="none" xmlns="http://www.w3.org/2000/svg">
<g filter="url(#filter0_d_95_56)">
<path d="M65.099 86.4178L65.3562 86.8465C65.3004 86.88 65.2423 86.9247 65.1975 86.9676C65.1835 86.981 65.1727 86.9925 65.1648 87.0015C65.1637 87.0056 65.1625 87.0099 65.1613 87.0144L65.1106 87.202C65.0674 87.3629 65.0056 87.5932 64.9275 87.8855C64.7711 88.47 64.5492 89.3016 64.2782 90.319C63.7362 92.3538 62.9979 95.1314 62.1951 98.1609C60.5894 104.22 58.6439 111.592 57.8704 114.533L57.8701 114.535C57.3958 116.321 57.0485 117.681 56.8258 118.618C56.7143 119.088 56.6353 119.446 56.5874 119.696C56.5633 119.821 56.5484 119.913 56.5408 119.975C56.5402 119.979 56.5397 119.984 56.5392 119.988C56.5649 120.044 56.6217 120.123 56.7192 120.199C56.8316 120.287 56.9362 120.323 56.9954 120.328C57.0144 120.325 57.0426 120.321 57.0812 120.314C57.1605 120.299 57.2716 120.277 57.4125 120.247C57.6937 120.188 58.0833 120.102 58.5539 119.996C59.4944 119.783 60.7518 119.487 62.0974 119.16C63.4472 118.831 64.6802 118.54 65.581 118.335C66.0311 118.232 66.3999 118.15 66.6595 118.095C66.7886 118.067 66.8942 118.046 66.9703 118.032C67.0073 118.025 67.0436 118.019 67.0744 118.015C67.0885 118.013 67.1115 118.01 67.137 118.009C67.1486 118.008 67.1736 118.007 67.2043 118.009C67.2196 118.01 67.2467 118.012 67.2795 118.02C67.305 118.025 67.3753 118.042 67.4508 118.092L67.534 118.148L67.5895 118.231C67.6844 118.373 67.6743 118.516 67.6728 118.538L67.6727 118.539C67.6701 118.582 67.6626 118.615 67.6593 118.629C67.652 118.658 67.6434 118.682 67.6403 118.69C67.6328 118.71 67.6248 118.728 67.6203 118.738C67.61 118.761 67.5968 118.788 67.5829 118.816C67.5541 118.873 67.512 118.955 67.4584 119.057C67.3507 119.263 67.1913 119.563 66.9863 119.946C66.576 120.713 65.9804 121.816 65.2441 123.174C63.7713 125.891 61.7346 129.63 59.49 133.739L59.4898 133.739C56.6653 138.902 54.6211 142.665 53.2788 145.175C52.6075 146.431 52.113 147.371 51.7847 148.014C51.6203 148.337 51.4995 148.581 51.4195 148.752C51.3792 148.838 51.3516 148.901 51.3345 148.943C51.3324 148.948 51.3306 148.953 51.329 148.957C51.3197 149.08 51.33 149.107 51.3325 149.114C51.3325 149.114 51.3326 149.114 51.3326 149.114C51.3372 149.126 51.3573 149.172 51.4934 149.308C51.6355 149.45 51.7309 149.487 51.7859 149.497C51.8307 149.504 51.9015 149.503 52.0196 149.444C52.0409 149.425 52.0711 149.398 52.1108 149.362C52.1974 149.283 52.3233 149.167 52.4869 149.016C52.8138 148.714 53.2881 148.272 53.8939 147.706C55.1054 146.575 56.8411 144.948 58.9726 142.946C63.2356 138.942 69.0809 133.44 75.4801 127.404C83.2331 120.091 89.0574 114.577 92.9491 110.867C94.8951 109.012 96.3568 107.608 97.3345 106.657C97.8237 106.181 98.1898 105.82 98.4341 105.573C98.5545 105.451 98.6421 105.36 98.6996 105.298C98.7082 105.131 98.6284 104.938 98.425 104.785C98.3349 104.718 98.3222 104.712 98.3141 104.709C98.3135 104.708 98.3114 104.708 98.3069 104.706C98.3031 104.705 98.2975 104.704 98.2896 104.703C98.2707 104.699 98.2387 104.696 98.1857 104.695C97.9465 104.69 97.5157 104.734 96.5507 104.836L96.5479 104.836C96.0335 104.887 94.9034 105.006 93.4844 105.154C91.9954 105.31 90.1882 105.499 88.4402 105.68C86.7337 105.861 85.1796 106.02 84.0503 106.131C83.4857 106.187 83.0267 106.231 82.7077 106.26C82.5484 106.275 82.4228 106.286 82.336 106.293C82.293 106.297 82.2571 106.3 82.2305 106.301C82.2181 106.302 82.203 106.303 82.1886 106.304C82.1827 106.304 82.1684 106.304 82.1515 106.304C82.1483 106.304 82.1423 106.303 82.1344 106.303C82.1249 106.302 82.1127 106.301 82.0989 106.299C82.0871 106.298 82.0603 106.294 82.0274 106.285L82.0259 106.284C82.0091 106.279 81.904 106.251 81.8104 106.157L81.7531 106.1L81.7168 106.027C81.6521 105.898 81.6639 105.779 81.6658 105.76L81.666 105.758C81.6694 105.721 81.6763 105.692 81.6794 105.68C81.6862 105.653 81.6939 105.632 81.6966 105.625C81.7032 105.607 81.7098 105.592 81.713 105.585C81.7204 105.568 81.7293 105.55 81.7377 105.533C81.7554 105.497 81.7805 105.447 81.8119 105.387C81.8749 105.264 81.9679 105.086 82.087 104.86C82.3255 104.408 82.6714 103.757 83.0986 102.957C83.9531 101.357 85.1343 99.1556 86.4355 96.7408L86.4358 96.7402C87.8767 94.0751 89.0679 91.836 89.9028 90.232C90.3205 89.4296 90.6478 88.7883 90.8724 88.3329C90.9849 88.1047 91.0698 87.9268 91.1269 87.8001C91.1556 87.7364 91.1752 87.6902 91.1873 87.6593C91.1888 87.6555 91.19 87.6522 91.1912 87.6493C91.2044 87.5569 91.2034 87.5196 91.2022 87.5084C91.2 87.5039 91.1927 87.4911 91.1743 87.467C91.146 87.4303 91.1027 87.3816 91.0311 87.3071C90.9381 87.2142 90.9043 87.1833 90.8771 87.1644L90.8768 87.1642C90.8664 87.157 90.8543 87.1486 90.8076 87.1389C90.6594 87.1082 90.3954 87.1053 89.7003 87.1053C88.968 87.1053 85.4354 87.0583 81.8612 86.988C74.3359 86.865 70.2293 86.8006 67.9624 86.7903C66.8264 86.7852 66.164 86.7938 65.7677 86.8144C65.4207 86.8324 65.3356 86.8596 65.3351 86.8583C65.335 86.858 65.3398 86.8561 65.347 86.8519L65.099 86.4178ZM65.099 86.4178C65.4271 86.2303 66.8219 86.242 81.871 86.4881L64.7005 86.8046C64.7474 86.6874 64.9232 86.5233 65.099 86.4178ZM91.197 87.6327C91.197 87.6328 91.1967 87.6336 91.1963 87.6351C91.1969 87.6333 91.1971 87.6326 91.197 87.6327ZM56.5357 120.028C56.5355 120.034 56.5358 120.033 56.5357 120.027L56.5357 120.028Z" fill="#B5972C" fill-opacity="0.7" stroke="black"/>
<path d="M80.7117 0.617378L80.7116 0.617386C77.9748 0.88076 74.7281 1.82366 72.0712 3.13484L72.0699 3.13548C69.206 4.53867 66.9918 6.16724 64.7227 8.55151L63.3633 9.98125L63.1083 10.2494L62.7773 10.0839L61.2326 9.31155C61.2323 9.31141 61.232 9.31127 61.2317 9.31113C57.7307 7.58375 54.5529 6.76976 50.7336 6.62019C40.6778 6.22945 31.2273 11.9195 26.8244 21.0125L26.824 21.0134C25.9952 22.7171 25.3055 24.6384 24.9279 26.2624C24.9278 26.263 24.9277 26.2635 24.9276 26.2641L24.6705 27.409L24.6039 27.7061L24.3094 27.7832L23.8171 27.9121L23.8155 27.9125C20.028 28.891 16.5101 30.6861 13.6991 33.0611L13.6973 33.0627C12.5715 34.0046 10.861 35.739 10.0519 36.7533L10.0505 36.755C7.73136 39.6367 5.8665 43.5277 5.07437 47.1324L5.07412 47.1335C4.5676 49.4129 4.5 50.1377 4.5 52.7916C4.5 55.5424 4.68305 56.9884 5.29265 59.3348C6.56725 64.2379 9.58076 69.0009 13.5109 72.3105C20.5709 78.2552 30.1003 79.9682 38.8054 76.8518L38.8067 76.8513C40.2209 76.3495 42.6231 75.1488 43.9156 74.3023L43.9162 74.302L45.0648 73.5519L45.2529 73.429L45.4697 73.4881L46.2433 73.6991L46.2445 73.6994C48.8265 74.4109 52.0265 74.7215 54.6635 74.5152C56.259 74.388 58.5417 74.0057 59.5771 73.7021C59.7567 73.6482 59.9701 73.5939 60.1961 73.6332C60.4318 73.6742 60.6049 73.8032 60.7355 73.9088C64.2104 76.6793 67.554 78.3426 71.4942 79.2617C73.5336 79.7314 74.5493 79.8347 77.3576 79.8347C80.3543 79.8231 81.7485 79.6401 84.1925 78.9287L84.194 78.9283C87.3911 78.0083 89.8917 76.7473 92.6346 74.696C92.635 74.6957 92.6353 74.6955 92.6356 74.6953L94.0282 73.642L94.29 73.444L94.5758 73.6055L95.115 73.9103L95.1179 73.9119C96.3655 74.6281 98.3914 75.5997 99.3923 75.9752C105.648 78.3094 112.347 78.16 118.486 75.5275C118.913 75.3413 119.327 75.1811 119.65 75.0708C119.811 75.0159 119.957 74.9708 120.074 74.9412C120.132 74.9267 120.193 74.9133 120.25 74.9053C120.279 74.9014 120.316 74.8974 120.357 74.8972C120.388 74.8971 120.469 74.898 120.56 74.9322L120.564 74.9337C120.564 74.9337 120.565 74.934 120.567 74.9347C120.569 74.9355 120.573 74.9367 120.578 74.9384C120.588 74.9413 120.601 74.945 120.618 74.9492C120.652 74.9578 120.696 74.9675 120.751 74.9781C120.861 74.9994 121.002 75.022 121.17 75.0452C121.504 75.0916 121.928 75.138 122.389 75.1793C123.313 75.2621 124.361 75.3223 125.096 75.3223C132.008 75.3223 138.268 72.7376 143.168 67.85L143.168 67.8496C150.159 60.8931 152.527 50.8489 149.364 41.489L149.364 41.4882C146.089 31.7424 137.273 24.9239 126.912 24.1414L126.91 24.1413L125.142 24.0125L124.96 23.9992L124.829 23.8714L123.305 22.3829L123.305 22.3829C120.275 19.4222 117.211 17.5529 113.372 16.2883L113.371 16.2881C111.565 15.6899 109.261 15.2069 107.606 15.0696C107.605 15.0695 107.604 15.0694 107.603 15.0693L106.613 14.9995L106.33 14.9795L106.202 14.727L105.805 13.9443C105.805 13.9438 105.805 13.9433 105.804 13.9429C105.215 12.7987 103.704 10.6065 102.744 9.50887C100.242 6.64915 97.867 4.80321 94.6108 3.18088C90.3226 1.05423 85.4822 0.157562 80.7117 0.617378Z" fill="#79838C" stroke="black"/>
</g>
<defs>
<filter id="filter0_d_95_56" x="0" y="-0.000244141" width="155.243" height="158" filterUnits="userSpaceOnUse" color-interpolation-filters="sRGB">
<feFlood flood-opacity="0" result="BackgroundImageFix"/>
<feColorMatrix in="SourceAlpha" type="matrix" values="0 0 0 0 0 0 0 0 0 0 0 0 0 0 0 0 0 0 127 0" result="hardAlpha"/>
<feOffset dy="4"/>
<feGaussianBlur stdDeviation="2"/>
<feComposite in2="hardAlpha" operator="out"/>
<feColorMatrix type="matrix" values="0 0 0 0 0 0 0 0 0 0 0 0 0 0 0 0 0 0 0.5 0"/>
<feBlend mode="normal" in2="BackgroundImageFix" result="effect1_dropShadow_95_56"/>
<feBlend mode="normal" in="SourceGraphic" in2="effect1_dropShadow_95_56" result="shape"/>
</filter>
</defs>
</svg>
