<svg width="48" height="48" viewBox="0 0 48 48" fill="none" xmlns="http://www.w3.org/2000/svg">
<g filter="url(#filter0_d_104_22)">
<path d="M20.2931 23.0447C20.2462 23.0729 20.1993 23.1166 20.1868 23.1479C20.1774 23.1791 19.818 24.5262 19.3898 26.1421C18.9616 27.7579 18.4428 29.7239 18.2365 30.5084C17.9833 31.4616 17.8646 31.9648 17.8771 32.018C17.9021 32.1211 18.0302 32.2211 18.1365 32.2211C18.1802 32.2211 18.8053 32.0805 19.5242 31.9054C20.243 31.7304 20.8369 31.596 20.8463 31.6023C20.8525 31.6116 19.8774 33.4088 18.6803 35.5997C17.1738 38.3533 16.4987 39.616 16.4894 39.6972C16.48 39.7941 16.4925 39.8316 16.5706 39.9098C16.6706 40.0098 16.7675 40.0254 16.88 39.9629C16.9176 39.941 19.7398 37.2906 23.1529 34.0714C27.2878 30.1708 29.3663 28.1893 29.3788 28.1361C29.4069 28.0267 29.36 27.9111 29.26 27.8361C29.1725 27.7704 29.1694 27.7704 28.6662 27.8236C28.3849 27.8517 27.4129 27.9549 26.5033 28.0486C25.5938 28.1455 24.8469 28.2174 24.8437 28.2143C24.8406 28.208 25.4063 27.1485 26.1002 25.8608C26.869 24.4387 27.3722 23.4698 27.3816 23.4011C27.3972 23.301 27.3847 23.2729 27.3035 23.1885C27.2097 23.0948 27.2066 23.0948 26.8534 23.0948C26.6596 23.0948 25.7189 23.0823 24.7656 23.0635C20.7525 22.9979 20.3806 22.9947 20.2931 23.0447Z" fill="#8C710F"/>
<path d="M24.4437 0.0319309C23.6967 0.103817 22.8153 0.360106 22.0933 0.716408C21.3151 1.09772 20.7119 1.54153 20.0961 2.1885L19.7336 2.56981L19.321 2.36353C18.3709 1.89471 17.5051 1.6728 16.4675 1.63217C13.7327 1.5259 11.1636 3.07301 9.96651 5.54525C9.74148 6.00782 9.55395 6.52977 9.45081 6.97359L9.38205 7.27988L9.25078 7.31426C8.2225 7.57993 7.26611 8.0675 6.50037 8.71447C6.19408 8.97076 5.73151 9.43958 5.5096 9.71774C4.87826 10.5022 4.37193 11.5586 4.15627 12.54C4.01875 13.1589 4 13.362 4 14.0778C4 14.8216 4.05001 15.2186 4.21566 15.8562C4.56258 17.1907 5.38146 18.4847 6.45036 19.3848C8.3694 21.0007 10.9604 21.4664 13.3264 20.6194C13.7139 20.4818 14.364 20.1568 14.7172 19.9255L15.0235 19.7255L15.2298 19.7817C15.933 19.9755 16.8019 20.0599 17.5208 20.0036C17.9521 19.9693 18.5709 19.8661 18.8585 19.7817C18.9522 19.7536 18.9803 19.7599 19.046 19.813C19.9867 20.5631 20.8963 21.0163 21.9683 21.2663C22.5246 21.3945 22.8059 21.4226 23.5623 21.4226C24.3718 21.4195 24.7562 21.3695 25.4219 21.1757C26.2908 20.9257 26.9722 20.5819 27.716 20.0255L28.088 19.7442L28.2317 19.8255C28.5693 20.0193 29.1162 20.2818 29.3913 20.385C31.0915 21.0194 32.9137 20.9788 34.5827 20.2631C34.8046 20.1662 35.0109 20.0974 35.0359 20.1068C35.1578 20.1537 35.8891 20.2193 36.2923 20.2193C38.1707 20.2193 39.8741 19.5161 41.2055 18.1878C43.1058 16.2968 43.7497 13.5652 42.8901 11.0211C41.9994 8.37067 39.6022 6.51727 36.7861 6.30474L36.3142 6.27036L35.9079 5.87342C35.0859 5.07018 34.2514 4.56073 33.2075 4.21693C32.7168 4.0544 32.0917 3.92313 31.6385 3.88563L31.3728 3.86688L31.2665 3.65747C31.104 3.3418 30.6946 2.74796 30.432 2.44791C29.7538 1.6728 29.1069 1.1696 28.2223 0.72891C27.0565 0.1507 25.7407 -0.0930882 24.4437 0.0319309Z" fill="#42474B"/>
</g>
<defs>
<filter id="filter0_d_104_22" x="0" y="0" width="47.2647" height="48" filterUnits="userSpaceOnUse" color-interpolation-filters="sRGB">
<feFlood flood-opacity="0" result="BackgroundImageFix"/>
<feColorMatrix in="SourceAlpha" type="matrix" values="0 0 0 0 0 0 0 0 0 0 0 0 0 0 0 0 0 0 127 0" result="hardAlpha"/>
<feOffset dy="4"/>
<feGaussianBlur stdDeviation="2"/>
<feComposite in2="hardAlpha" operator="out"/>
<feColorMatrix type="matrix" values="0 0 0 0 0 0 0 0 0 0 0 0 0 0 0 0 0 0 1 0"/>
<feBlend mode="normal" in2="BackgroundImageFix" result="effect1_dropShadow_104_22"/>
<feBlend mode="normal" in="SourceGraphic" in2="effect1_dropShadow_104_22" result="shape"/>
</filter>
</defs>
</svg>
