<svg width="131" height="123" viewBox="0 0 131 123" fill="none" xmlns="http://www.w3.org/2000/svg">
<g clip-path="url(#clip0_13_1949)">
<g filter="url(#filter0_dddd_13_1949)">
<path d="M4.46956 28.4709C4.13809 26.3728 5.57027 24.4032 7.66842 24.0717L53.0669 16.8996C55.1651 16.5682 57.1347 18.0003 57.4661 20.0985L70.88 105.007C71.2115 107.105 69.7794 109.075 67.6811 109.406L22.2826 116.578C20.1845 116.91 18.2149 115.478 17.8834 113.379L4.46956 28.4709Z" fill="#DEB9E8"/>
<path d="M4.56442 28.456C4.24124 26.4103 5.6376 24.49 7.68331 24.1668L53.0818 16.9947C55.1276 16.6715 57.0479 18.0679 57.371 20.1136L70.7849 105.022C71.1081 107.068 69.7118 108.988 67.666 109.311L22.2675 116.483C20.2218 116.807 18.3015 115.41 17.9783 113.365L4.56442 28.456Z" fill="#DEB9E8" stroke="black" stroke-opacity="0.1"/>
</g>
<g filter="url(#filter1_d_13_1949)">
<path d="M35.4569 69.215L35.5186 69.2887C35.5089 69.2967 35.4993 69.307 35.492 69.3165C35.4899 69.3194 35.4882 69.3218 35.4869 69.3239C35.4869 69.3247 35.4868 69.3255 35.4865 69.3263L35.4827 69.3635C35.4792 69.3954 35.4745 69.441 35.4683 69.499C35.4562 69.6146 35.439 69.7793 35.418 69.9806C35.3761 70.3834 35.3193 70.9331 35.2577 71.5327C35.1344 72.7318 34.9862 74.1905 34.9274 74.7724L34.9275 74.7728C34.891 75.1263 34.8657 75.395 34.8517 75.5797C34.8445 75.6723 34.8403 75.7427 34.8386 75.7916C34.8378 75.8161 34.8377 75.834 34.8383 75.846C34.8382 75.8468 34.8384 75.8477 34.8383 75.8485C34.8449 75.8584 34.8581 75.8717 34.8788 75.8832C34.9029 75.8965 34.9238 75.9003 34.9351 75.8994C34.9386 75.8983 34.944 75.8967 34.951 75.8942C34.9658 75.8889 34.9862 75.8814 35.0121 75.8715C35.0637 75.8519 35.135 75.8239 35.2213 75.7896C35.3934 75.7209 35.6235 75.6269 35.8692 75.5245C36.1158 75.4215 36.3412 75.3292 36.5062 75.2632C36.5886 75.2301 36.6562 75.2035 36.7038 75.1853C36.7277 75.176 36.747 75.1689 36.761 75.164C36.7678 75.1615 36.7746 75.1593 36.7802 75.1576C36.7828 75.1568 36.7873 75.1555 36.792 75.1546C36.7943 75.154 36.799 75.1531 36.8047 75.1526C36.8078 75.1523 36.813 75.1519 36.8195 75.1524C36.8244 75.1526 36.8382 75.1537 36.8542 75.1609L36.8716 75.1691L36.8847 75.1832C36.9068 75.2073 36.9092 75.2348 36.9097 75.239L36.9097 75.2392C36.9105 75.2474 36.9101 75.2539 36.9098 75.2567C36.9093 75.2624 36.9083 75.2672 36.908 75.2688C36.9073 75.2729 36.9063 75.2765 36.9056 75.2786C36.9044 75.2832 36.9028 75.2888 36.9009 75.2945C36.8972 75.3062 36.8916 75.323 36.8844 75.344C36.8703 75.3864 36.8489 75.4482 36.8215 75.5271C36.7666 75.6851 36.6865 75.9125 36.5874 76.1925C36.3892 76.7528 36.1146 77.5241 35.8115 78.372C35.4298 79.4375 35.1545 80.2136 34.9749 80.7307C34.8849 80.9894 34.8193 81.1828 34.7763 81.3148C34.7546 81.3811 34.739 81.4311 34.7289 81.466C34.7239 81.4835 34.7207 81.4963 34.7187 81.5048C34.7183 81.5058 34.7182 81.5068 34.718 81.5076C34.7199 81.5312 34.7227 81.5361 34.7232 81.5373C34.7244 81.5395 34.7297 81.5476 34.7596 81.5693C34.7911 81.592 34.8102 81.5962 34.821 81.5965C34.8297 81.5964 34.8432 81.5941 34.8638 81.5794C34.8673 81.5751 34.8721 81.5691 34.8787 81.5611C34.8926 81.5435 34.9131 81.5177 34.9397 81.484C34.9927 81.4169 35.0695 81.3187 35.1676 81.193C35.3637 80.9418 35.6447 80.5807 35.9896 80.1364C36.6792 79.2479 37.6243 78.0274 38.6587 76.6888C39.912 75.067 40.8528 73.8449 41.4807 73.0234C41.7947 72.6126 42.0303 72.302 42.1875 72.0921C42.2661 71.987 42.3248 71.9074 42.3638 71.8532C42.3829 71.8264 42.3969 71.8065 42.406 71.7929C42.4025 71.761 42.3815 71.7267 42.3384 71.7038C42.3193 71.6937 42.3166 71.693 42.315 71.6926C42.3148 71.6925 42.3144 71.6925 42.3136 71.6923C42.3128 71.6922 42.3118 71.6922 42.3103 71.6922C42.3066 71.692 42.3004 71.6924 42.2903 71.6938C42.2447 71.7001 42.1642 71.7213 41.984 71.7697L41.9834 71.7698C41.8871 71.7949 41.676 71.8514 41.4109 71.9221C41.1328 71.9964 40.7952 72.0866 40.4686 72.1734C40.15 72.259 39.8595 72.3358 39.6482 72.3908C39.5428 72.4184 39.4569 72.4405 39.3972 72.4556C39.3672 72.4632 39.3438 72.4691 39.3275 72.473C39.3195 72.4751 39.3127 72.4767 39.3078 72.4777C39.3054 72.4783 39.3025 72.4789 39.2999 72.4795C39.2988 72.4797 39.2959 72.4801 39.2927 72.4806C39.2921 72.4807 39.291 72.4807 39.2894 72.481C39.2877 72.4811 39.2854 72.4812 39.2827 72.4813C39.2804 72.4814 39.2751 72.4815 39.2686 72.4808L39.2684 72.4806C39.265 72.4802 39.2442 72.478 39.2235 72.463L39.211 72.4538L39.2019 72.4411C39.1857 72.4185 39.1844 72.3955 39.1842 72.3919L39.1842 72.3915C39.1836 72.3844 39.1841 72.3787 39.1843 72.3763C39.1848 72.3709 39.1857 72.3667 39.1861 72.3653C39.1867 72.3617 39.1876 72.3586 39.1879 72.3572C39.1887 72.3538 39.1899 72.3501 39.1911 72.3466C39.1933 72.3392 39.1967 72.329 39.2008 72.3166C39.2091 72.2914 39.2214 72.2548 39.2372 72.2083C39.269 72.1152 39.315 71.9812 39.3723 71.8164C39.4865 71.4869 39.6448 71.0334 39.8195 70.5356L39.8196 70.5354C40.0134 69.9859 40.1724 69.5249 40.2829 69.1951C40.3381 69.0303 40.3811 68.8985 40.41 68.8053C40.4246 68.7586 40.4354 68.7223 40.4424 68.6964C40.446 68.6834 40.4482 68.6741 40.4496 68.6678C40.4499 68.6672 40.45 68.6664 40.4501 68.6658C40.4498 68.6479 40.4485 68.641 40.4479 68.6387C40.4474 68.638 40.4457 68.6357 40.4414 68.6318C40.4349 68.6256 40.4253 68.6177 40.4094 68.6057C40.3889 68.5908 40.3816 68.5859 40.3759 68.5831C40.3736 68.5821 40.371 68.581 40.362 68.5804C40.3328 68.579 40.2825 68.5864 40.1505 68.6072C40.0115 68.6292 39.339 68.7263 38.658 68.8202C37.2249 69.0227 36.4428 69.1338 36.0119 69.1997C35.796 69.2329 35.6705 69.2544 35.5959 69.2701C35.5305 69.2839 35.5152 69.2918 35.5149 69.2915C35.5149 69.2915 35.5158 69.2909 35.517 69.29L35.4569 69.215ZM35.4569 69.215C35.5136 69.1694 35.7789 69.1298 38.6449 68.725L35.3927 69.3005C35.3981 69.2766 35.4266 69.2402 35.4569 69.215ZM40.4507 68.6626C40.4507 68.6626 40.4507 68.6628 40.4506 68.663C40.4507 68.6626 40.4507 68.6626 40.4507 68.6626ZM34.8389 75.8562C34.8389 75.8574 34.8391 75.8572 34.8389 75.856L34.8389 75.8562Z" fill="#B5972C" fill-opacity="0.7"/>
<path d="M35.4569 69.215L35.5186 69.2887C35.5089 69.2967 35.4993 69.307 35.492 69.3165C35.4899 69.3194 35.4882 69.3218 35.4869 69.3239C35.4869 69.3247 35.4868 69.3255 35.4865 69.3263L35.4827 69.3635C35.4792 69.3954 35.4745 69.441 35.4683 69.499C35.4562 69.6146 35.439 69.7793 35.418 69.9806C35.3761 70.3834 35.3193 70.9331 35.2577 71.5327C35.1344 72.7318 34.9862 74.1905 34.9274 74.7724L34.9275 74.7728C34.891 75.1263 34.8657 75.395 34.8517 75.5797C34.8445 75.6723 34.8403 75.7427 34.8386 75.7916C34.8378 75.8161 34.8377 75.834 34.8383 75.846C34.8382 75.8468 34.8384 75.8477 34.8383 75.8485C34.8449 75.8584 34.8581 75.8717 34.8788 75.8832C34.9029 75.8965 34.9238 75.9003 34.9351 75.8994C34.9386 75.8983 34.944 75.8967 34.951 75.8942C34.9658 75.8889 34.9862 75.8814 35.0121 75.8715C35.0637 75.8519 35.135 75.8239 35.2213 75.7896C35.3934 75.7209 35.6235 75.6269 35.8692 75.5245C36.1158 75.4215 36.3412 75.3292 36.5062 75.2632C36.5886 75.2301 36.6562 75.2035 36.7038 75.1853C36.7277 75.176 36.747 75.1689 36.761 75.164C36.7678 75.1615 36.7746 75.1593 36.7802 75.1576C36.7828 75.1568 36.7873 75.1555 36.792 75.1546C36.7943 75.154 36.799 75.1531 36.8047 75.1526C36.8078 75.1523 36.813 75.1519 36.8195 75.1524C36.8244 75.1526 36.8382 75.1537 36.8542 75.1609L36.8716 75.1691L36.8847 75.1832C36.9068 75.2073 36.9092 75.2348 36.9097 75.239L36.9097 75.2392C36.9105 75.2474 36.9101 75.2539 36.9098 75.2567C36.9093 75.2624 36.9083 75.2672 36.908 75.2688C36.9073 75.2729 36.9063 75.2765 36.9056 75.2786C36.9044 75.2832 36.9028 75.2888 36.9009 75.2945C36.8972 75.3062 36.8916 75.323 36.8844 75.344C36.8703 75.3864 36.8489 75.4482 36.8215 75.5271C36.7666 75.6851 36.6865 75.9125 36.5874 76.1925C36.3892 76.7528 36.1146 77.5241 35.8115 78.372C35.4298 79.4375 35.1545 80.2136 34.9749 80.7307C34.8849 80.9894 34.8193 81.1828 34.7763 81.3148C34.7546 81.3811 34.739 81.4311 34.7289 81.466C34.7239 81.4835 34.7207 81.4963 34.7187 81.5048C34.7183 81.5058 34.7182 81.5068 34.718 81.5076C34.7199 81.5312 34.7227 81.5361 34.7232 81.5373C34.7244 81.5395 34.7297 81.5476 34.7596 81.5693C34.7911 81.592 34.8102 81.5962 34.821 81.5965C34.8297 81.5964 34.8432 81.5941 34.8638 81.5794C34.8673 81.5751 34.8721 81.5691 34.8787 81.5611C34.8926 81.5435 34.9131 81.5177 34.9397 81.484C34.9927 81.4169 35.0695 81.3187 35.1676 81.193C35.3637 80.9418 35.6447 80.5807 35.9896 80.1364C36.6792 79.2479 37.6243 78.0274 38.6587 76.6888C39.912 75.067 40.8528 73.8449 41.4807 73.0234C41.7947 72.6126 42.0303 72.302 42.1875 72.0921C42.2661 71.987 42.3248 71.9074 42.3638 71.8532C42.3829 71.8264 42.3969 71.8065 42.406 71.7929C42.4025 71.761 42.3815 71.7267 42.3384 71.7038C42.3193 71.6937 42.3166 71.693 42.315 71.6926C42.3148 71.6925 42.3144 71.6925 42.3136 71.6923C42.3128 71.6922 42.3118 71.6922 42.3103 71.6922C42.3066 71.692 42.3004 71.6924 42.2903 71.6938C42.2447 71.7001 42.1642 71.7213 41.984 71.7697L41.9834 71.7698C41.8871 71.7949 41.676 71.8514 41.4109 71.9221C41.1328 71.9964 40.7952 72.0866 40.4686 72.1734C40.15 72.259 39.8595 72.3358 39.6482 72.3908C39.5428 72.4184 39.4569 72.4405 39.3972 72.4556C39.3672 72.4632 39.3438 72.4691 39.3275 72.473C39.3195 72.4751 39.3127 72.4767 39.3078 72.4777C39.3054 72.4783 39.3025 72.4789 39.2999 72.4795C39.2988 72.4797 39.2959 72.4801 39.2927 72.4806C39.2921 72.4807 39.291 72.4807 39.2894 72.481C39.2877 72.4811 39.2854 72.4812 39.2827 72.4813C39.2804 72.4814 39.2751 72.4815 39.2686 72.4808L39.2684 72.4806C39.265 72.4802 39.2442 72.478 39.2235 72.463L39.211 72.4538L39.2019 72.4411C39.1857 72.4185 39.1844 72.3955 39.1842 72.3919L39.1842 72.3915C39.1836 72.3844 39.1841 72.3787 39.1843 72.3763C39.1848 72.3709 39.1857 72.3667 39.1861 72.3653C39.1867 72.3617 39.1876 72.3586 39.1879 72.3572C39.1887 72.3538 39.1899 72.3501 39.1911 72.3466C39.1933 72.3392 39.1967 72.329 39.2008 72.3166C39.2091 72.2914 39.2214 72.2548 39.2372 72.2083C39.269 72.1152 39.315 71.9812 39.3723 71.8164C39.4865 71.4869 39.6448 71.0334 39.8195 70.5356L39.8196 70.5354C40.0134 69.9859 40.1724 69.5249 40.2829 69.1951C40.3381 69.0303 40.3811 68.8985 40.41 68.8053C40.4246 68.7586 40.4354 68.7223 40.4424 68.6964C40.446 68.6834 40.4482 68.6741 40.4496 68.6678C40.4499 68.6672 40.45 68.6664 40.4501 68.6658C40.4498 68.6479 40.4485 68.641 40.4479 68.6387C40.4474 68.638 40.4457 68.6357 40.4414 68.6318C40.4349 68.6256 40.4253 68.6177 40.4094 68.6057C40.3889 68.5908 40.3816 68.5859 40.3759 68.5831C40.3736 68.5821 40.371 68.581 40.362 68.5804C40.3328 68.579 40.2825 68.5864 40.1505 68.6072C40.0115 68.6292 39.339 68.7263 38.658 68.8202C37.2249 69.0227 36.4428 69.1338 36.0119 69.1997C35.7959 69.2329 35.6705 69.2544 35.5959 69.2701C35.5305 69.2839 35.5152 69.2918 35.5149 69.2915C35.5149 69.2915 35.5158 69.2909 35.517 69.29L35.4569 69.215ZM35.4569 69.215C35.5136 69.1694 35.7789 69.1298 38.6449 68.725L35.3927 69.3005C35.3981 69.2766 35.4266 69.2402 35.4569 69.215ZM40.4507 68.6626C40.4507 68.6626 40.4507 68.6628 40.4506 68.663C40.4507 68.6626 40.4507 68.6626 40.4507 68.6626ZM34.8389 75.8562C34.8389 75.8574 34.8391 75.8572 34.8389 75.856L34.8389 75.8562Z" stroke="black"/>
<path d="M35.8478 52.4484C35.3358 52.5807 34.7474 52.8572 34.282 53.186C33.7801 53.5386 33.4082 53.9143 33.0488 54.4355L32.8333 54.7477L32.7929 54.8063L32.7251 54.7849L32.4087 54.6846C32.4084 54.6844 32.4084 54.6844 32.4084 54.6844C31.6916 54.4614 31.0635 54.4022 30.3336 54.4883C28.4117 54.7158 26.7872 56.0802 26.2237 57.9397C26.1174 58.2883 26.0442 58.6739 26.0211 58.9937C26.0211 58.9939 26.0212 58.9941 26.0212 58.9941L26.0067 59.2193L26.0029 59.2777L25.9492 59.3012L25.8596 59.3405L25.8592 59.3407C25.1692 59.6401 24.5549 60.0867 24.0922 60.6221L24.0919 60.6226C23.9063 60.8353 23.6334 61.216 23.5102 61.4329L23.51 61.4333C23.1559 62.0504 22.9185 62.8454 22.8762 63.5538L22.8762 63.5542C22.8483 64.0023 22.8573 64.142 22.9369 64.6461C23.0194 65.1685 23.0976 65.4377 23.2838 65.8652C23.673 66.7583 24.3884 67.5726 25.2342 68.0832C26.7537 69.0006 28.6152 69.0401 30.1752 68.1869L30.1756 68.1867C30.4291 68.0491 30.8493 67.7489 31.0695 67.5492L31.2653 67.3722L31.2973 67.3432L31.3403 67.3479L31.4934 67.3648L31.4938 67.3648C32.0055 67.4225 32.6228 67.3854 33.1175 67.2671C33.4167 67.1951 33.8389 67.0541 34.0264 66.9652C34.0589 66.9496 34.0978 66.9329 34.1419 66.9336C34.1879 66.9343 34.2247 66.9536 34.2527 66.9698C34.9957 67.3917 35.6809 67.6074 36.4569 67.6638C36.8584 67.6916 37.0544 67.6809 37.5879 67.5966C38.1567 67.5045 38.4162 67.4278 38.8591 67.2194L38.8592 67.2192C39.4389 66.9485 39.8761 66.6339 40.3356 66.162C40.3356 66.162 40.3356 66.1618 40.3358 66.1618L40.5686 65.92L40.6124 65.8746L40.6716 65.8967L40.7831 65.9383L40.7837 65.9386C41.0421 66.0372 41.4561 66.161 41.6575 66.2022C42.9159 66.4578 44.1839 66.2285 45.271 65.5443C45.3465 65.496 45.4204 65.4532 45.4784 65.4226C45.5074 65.4073 45.5337 65.3944 45.5551 65.3852C45.5657 65.3808 45.5768 65.3763 45.5874 65.373C45.5928 65.3714 45.5997 65.3695 45.6075 65.3683C45.6134 65.3674 45.6288 65.3651 45.6471 65.3689L45.6479 65.3691C45.6479 65.3691 45.6481 65.3691 45.6485 65.3692C45.6489 65.3692 45.6497 65.3694 45.6507 65.3695C45.6527 65.3697 45.6553 65.3701 45.6586 65.3704C45.6654 65.3711 45.674 65.3714 45.6848 65.3719C45.7063 65.3726 45.7338 65.3727 45.7664 65.372C45.8312 65.3709 45.9131 65.3669 46.0019 65.3609C46.1799 65.3489 46.3808 65.3289 46.5204 65.3068C47.8334 65.0994 48.9449 64.4207 49.729 63.3452C50.8482 61.8139 50.9966 59.835 50.1149 58.1519C49.2003 56.3989 47.3211 55.3682 45.3295 55.5304L45.3291 55.5305L44.9894 55.559L44.9545 55.562L44.9257 55.5416L44.5916 55.3047C43.9272 54.8332 43.2891 54.5701 42.5219 54.445C42.1609 54.3856 41.7086 54.3631 41.3901 54.3867C41.3899 54.3865 41.3897 54.3866 41.3895 54.3866L41.1993 54.403L41.145 54.4079L41.1131 54.3637L41.0142 54.2269C41.0142 54.2269 41.0142 54.2267 41.014 54.2267C40.8678 54.0271 40.5149 53.6559 40.2997 53.4763C39.7386 53.0081 39.232 52.7287 38.5649 52.5183C37.6865 52.243 36.7401 52.2181 35.8478 52.4484Z" fill="#79838C" stroke="black"/>
</g>
</g>
<g filter="url(#filter2_dddii_13_1949)">
<path d="M67.8171 18.8895C70.2734 15.2169 75.2419 14.231 78.9144 16.6873L112.407 39.0877C116.079 41.544 117.065 46.5125 114.609 50.185L74.1826 110.629C71.7263 114.301 66.7579 115.287 63.0853 112.831L29.5931 90.4303C25.9206 87.974 24.9346 83.0056 27.3909 79.333L67.8171 18.8895Z" fill="#DEB9E8"/>
<path d="M78.6364 17.1029L112.129 39.5033C115.572 41.8061 116.496 46.464 114.193 49.9071L73.767 110.351C71.4642 113.794 66.8063 114.718 63.3633 112.415L29.8711 90.0147C26.4281 87.7119 25.5037 83.054 27.8065 79.611L68.2327 19.1675C70.5355 15.7245 75.1934 14.8001 78.6364 17.1029Z" stroke="black" stroke-opacity="0.1"/>
</g>
<g filter="url(#filter3_ddd_13_1949)">
<mask id="path-8-inside-1_13_1949" fill="white">
<path d="M79.2643 53.8276C78.8552 53.6826 78.5388 53.5971 78.1051 53.5154C76.4418 53.2004 75.288 53.6146 74.7727 54.7106C74.4202 55.4575 74.4449 56.076 74.8613 56.905C74.9555 57.094 75.093 57.3635 75.1641 57.5036C75.3164 57.8036 75.4096 58.1129 75.4064 58.3114C75.4039 58.513 75.3233 58.7523 75.1961 58.9425C74.8585 59.4473 74.2061 59.7981 73.1988 60.0197C72.9168 60.0806 72.9293 60.1147 73.0865 59.7258C73.3893 58.974 73.4682 58.0466 73.3087 57.1502C73.2171 56.6362 72.9628 56.1806 72.5497 55.7911C72.3241 55.5785 71.8449 55.2657 71.3238 54.9892C70.8027 54.7127 70.3653 54.4253 70.2089 54.2589C69.9654 53.9983 69.874 53.7083 69.9035 53.3035C69.9259 53.0149 69.9875 52.804 70.1425 52.5064C70.4495 51.9065 71.1948 51.232 72.1311 50.7031L72.2552 50.6318L71.9955 50.6639C70.9182 50.7923 69.9085 51.2154 69.3569 51.7675C69.1577 51.9686 68.908 52.3727 68.8314 52.6148C68.7192 52.9848 68.7037 53.3731 68.7845 53.8285C68.9021 54.4885 69.187 54.9775 69.7162 55.4266C69.7944 55.4944 70.0703 55.702 70.3266 55.8863C70.999 56.3721 71.1744 56.5717 71.284 56.9665C71.442 57.5352 71.242 58.2169 70.7364 58.8409C70.5687 59.0477 70.2421 59.3952 70.1557 59.4584C70.1321 59.4761 70.1137 59.42 70.0804 59.2279C69.9418 58.4587 69.6609 57.7614 69.2156 57.0855C68.8715 56.562 68.6182 56.2897 68.2564 56.0477C67.7612 55.7192 67.2325 55.5816 66.368 55.559C65.5756 55.5385 65.4388 55.5319 65.2493 55.5029C64.7144 55.4229 64.4532 55.2637 64.1992 54.8648C63.6493 53.998 63.7578 52.6789 64.5025 51.1961C64.5789 51.0465 64.5657 51.0531 64.2658 51.3079C63.8878 51.6313 63.6705 51.877 63.3745 52.3196C63.2001 52.5759 63.0806 52.7764 63.0383 52.8793C62.7908 53.465 62.7364 53.9817 62.8695 54.526C62.9438 54.8329 63.052 55.0802 63.2398 55.3756C63.6224 55.9737 64.1084 56.3862 64.7028 56.6191C64.8945 56.6933 65.0756 56.7347 65.6988 56.8454C66.5112 56.99 66.6488 57.0305 66.9029 57.2005C67.4741 57.5825 67.765 58.3791 67.697 59.378C67.6806 59.6269 67.572 60.2951 67.5486 60.2949C67.5434 60.294 67.4648 60.2003 67.3751 60.0837C66.973 59.5677 66.5142 59.1452 65.9146 58.7441C64.9076 58.068 64.2201 57.8732 63.4461 58.045C63.0841 58.1244 62.8041 58.2484 62.1635 58.6123C61.3912 59.0501 61.0414 59.1377 60.6308 58.9994C60.3303 58.8988 59.9071 58.5771 59.663 58.2647C59.1486 57.6042 58.7807 56.5839 58.6516 55.4531C58.6328 55.2964 58.6175 55.1653 58.615 55.1559C58.6052 55.1133 58.4523 55.6851 58.3929 55.9849C58.3717 56.1045 58.3374 56.3671 58.3232 56.5686C58.1952 58.1808 58.842 59.3646 60.1817 59.9699C60.7364 60.2226 61.2076 60.3011 61.7032 60.2286C62.0076 60.1827 62.1522 60.1379 62.6344 59.9536C63.1178 59.7676 63.3518 59.708 63.5889 59.7097C63.9112 59.7117 64.1754 59.8138 64.5277 60.07C64.8779 60.3249 65.1508 60.6514 65.4183 61.1313C65.5485 61.3676 65.7703 61.8761 65.861 62.1451L65.9083 62.29L65.7437 62.2107C65.4772 62.0813 64.9695 61.8858 64.7012 61.8119C63.9251 61.5912 62.9663 61.5159 62.4071 61.6307C61.6761 61.7823 61.2254 62.2011 60.737 63.1865C60.3774 63.9132 60.1825 64.1739 59.899 64.3161C59.5971 64.4641 59.1584 64.4382 58.6338 64.2417C58.4171 64.161 58.368 64.1333 57.9919 63.8818C57.6565 63.6575 57.5454 63.5729 57.3505 63.3937C56.9456 63.0225 56.4938 62.5017 56.1345 61.9964L55.9835 61.7822L56.083 62.1394C56.48 63.5472 57.2707 64.6831 58.1964 65.1684C58.7629 65.465 59.378 65.5703 60.0384 65.4846C60.5011 65.4262 60.7985 65.3113 61.1046 65.0736C61.3152 64.9083 61.439 64.7673 61.7927 64.2912C62.0244 63.9755 62.129 63.8499 62.2296 63.7655C62.5527 63.4979 62.9056 63.4278 63.423 63.5295C64.0411 63.6522 64.8825 64.1712 65.5507 64.8393L65.6331 64.9228L65.3707 64.9325C64.5959 64.9648 63.8393 65.1636 63.1843 65.505C62.6497 65.7854 62.4018 65.9977 62.1803 66.3641C61.8879 66.8451 61.85 67.2494 61.9767 68.4763C62.0771 69.4258 61.9735 69.7655 61.5161 70.005C60.8444 70.3584 59.8441 70.2836 58.6135 69.7924C58.2638 69.6511 57.8465 69.4569 57.6215 69.327C57.5305 69.2738 57.4482 69.2342 57.4394 69.2386C57.4 69.2534 57.8682 69.7235 58.2304 70.0352C58.701 70.44 59.2294 70.7805 59.7146 70.9919C60.6564 71.4005 61.5445 71.3746 62.3057 70.9138C62.9992 70.4927 63.3181 69.9677 63.3649 69.163C63.369 69.0602 63.3856 68.7935 63.3982 68.5678C63.425 68.1099 63.4674 67.9453 63.6137 67.7267C63.9358 67.245 64.697 67.057 65.6958 67.2131C66.0611 67.2696 66.7759 67.4544 66.7869 67.4952C66.7874 67.5032 66.7066 67.5624 66.6074 67.6272C66.378 67.7722 66.0266 68.0645 65.8027 68.2981C65.5605 68.5503 65.1424 69.171 65.0066 69.4841C64.7643 70.0398 64.7291 70.4664 64.8776 70.9876C64.9928 71.3785 65.1709 71.706 65.6168 72.3412C66.2351 73.2203 66.3695 73.534 66.2966 73.9201C66.226 74.2896 65.839 74.7099 65.343 74.9544C64.7324 75.256 63.785 75.4276 62.7823 75.418C62.5367 75.4158 62.5258 75.4189 62.5868 75.4596C62.7128 75.5439 63.5186 75.7819 63.9535 75.8618C65.0081 76.0578 65.8126 75.981 66.4246 75.6289C66.6974 75.4718 66.8578 75.3244 67.0598 75.053C67.5159 74.4371 67.6513 73.7508 67.4516 73.0641C67.3813 72.8217 67.2982 72.6425 66.9224 71.9024C66.6296 71.3285 66.5954 70.9969 66.7854 70.594C67.0533 70.022 67.8134 69.576 68.9125 69.349L69.1306 69.3045L69.0403 69.5143C68.7255 70.2401 68.6148 71.0742 68.7176 71.9455C68.778 72.4489 68.9223 72.849 69.1658 73.1842C69.4938 73.6351 69.8951 73.937 70.8119 74.4267C71.0202 74.5377 71.3154 74.712 71.4658 74.8126C71.8968 75.1008 72.0449 75.2796 72.134 75.6171C72.2003 75.8698 72.186 76.1946 72.0909 76.504C72.0312 76.7033 72.0079 76.7469 71.7773 77.0917C71.5657 77.4081 71.5001 77.4929 71.3402 77.6484C70.9762 77.9991 70.6053 78.281 70.1523 78.5491C70.0058 78.6363 69.8724 78.7169 69.8568 78.7271C69.8044 78.7615 70.2815 78.6947 70.6218 78.6213C71.0402 78.5281 71.2969 78.4477 71.6577 78.2954C72.5011 77.936 73.0616 77.3796 73.2568 76.705C73.4548 76.0219 73.2764 75.0614 72.8472 74.476C72.6074 74.1483 72.4109 73.9758 71.6375 73.4122C71.0981 73.018 70.9518 72.8584 70.8196 72.5282C70.6753 72.159 70.7103 71.6756 70.9228 71.1952C71.0324 70.9521 71.3968 70.4292 71.6168 70.2059C71.8137 70.0083 71.9318 69.9021 71.9448 69.9134C71.9509 69.9174 71.971 70.0106 71.9856 70.1207C72.0251 70.3915 72.1914 70.9787 72.3176 71.2869C72.5548 71.8648 72.9927 72.5693 73.3484 72.9436C73.8528 73.4738 74.486 73.7456 75.3534 73.8035C75.4825 73.8127 75.821 73.8256 76.1091 73.8304C76.6371 73.8415 77.0503 73.8966 77.2647 73.9808C77.424 74.0462 77.6836 74.243 77.7897 74.3834C78.0179 74.6801 78.1887 75.1725 78.216 75.6023C78.2313 75.8698 78.1922 76.3504 78.1319 76.6342C78.034 77.0884 77.7939 77.751 77.5883 78.1331C77.5441 78.2168 77.5159 78.2854 77.5284 78.2886C77.5401 78.2887 77.6448 78.207 77.7638 78.1039C78.6676 77.3244 79.1889 76.4614 79.2672 75.6185C79.3161 75.0879 79.1688 74.534 78.847 74.0255C78.5317 73.5291 78.1204 73.128 77.7037 72.911C77.3186 72.7126 77.0313 72.6362 76.0559 72.4803C75.8886 72.4533 75.6634 72.403 75.5573 72.3681C74.6699 72.0807 74.2205 71.0547 74.4019 69.7277C74.4419 69.4303 74.5095 69.1051 74.53 69.1008C74.5364 69.0999 74.5994 69.1729 74.6666 69.2616C74.8616 69.5155 75.1218 69.795 75.4097 70.0596C75.6405 70.2731 75.7304 70.341 76.1398 70.6174C77.103 71.2667 77.6739 71.4556 78.3919 71.3673C78.8341 71.3132 79.205 71.1677 79.8391 70.8046C80.5133 70.4169 80.8418 70.2996 81.1837 70.325C81.7363 70.3653 82.403 70.9476 82.8003 71.7304C83.1018 72.3308 83.3343 73.1577 83.4227 73.9448C83.4386 74.097 83.4569 74.2147 83.4617 74.2076C83.4878 74.1685 83.5818 73.83 83.6384 73.5695C83.8336 72.6839 83.8024 71.7935 83.553 71.1328C83.3243 70.5245 82.9702 70.0819 82.4092 69.7067C81.7181 69.2445 81.0419 69.0546 80.3876 69.1444C80.1308 69.1809 79.8896 69.2512 79.4074 69.4355C78.9538 69.6079 78.7415 69.6614 78.5112 69.667C78.1991 69.6717 77.959 69.5909 77.6338 69.3734C77.1631 69.0611 76.7875 68.5758 76.4654 67.8742C76.3568 67.6318 76.1728 67.146 76.1804 67.1125C76.1823 67.1009 76.2374 67.1197 76.3011 67.1521C77.2487 67.6443 78.6286 67.9036 79.5513 67.7644C79.9889 67.6995 80.3114 67.5473 80.6309 67.2542C80.8232 67.0767 81.1461 66.5852 81.3792 66.1135C81.8312 65.1913 82.1279 64.9369 82.7074 64.9721C83.7426 65.0342 84.8854 65.8989 85.9912 67.4565L86.0811 67.5861L85.9816 67.2289C85.6935 66.1949 85.211 65.3372 84.5701 64.7207C84.322 64.4802 83.8262 64.1615 83.5317 64.052C83.1181 63.8962 82.5862 63.8338 82.1073 63.8813C81.7814 63.9154 81.5788 63.9677 81.3345 64.0822C80.9615 64.2572 80.7728 64.4294 80.3648 64.9822C80.0274 65.4383 79.9096 65.5704 79.7392 65.6932C79.3585 65.9633 78.7652 65.9575 78.1073 65.6744C77.7684 65.5301 77.1647 65.1263 76.8153 64.8129C76.444 64.4796 76.437 64.4724 76.4526 64.4623C76.4615 64.4579 76.5683 64.4521 76.6908 64.4492C76.9989 64.4417 77.5786 64.3535 77.8933 64.2656C78.5369 64.0864 79.1975 63.7539 79.5719 63.4229C79.7591 63.2574 79.9904 62.9028 80.0587 62.6732C80.1844 62.2608 80.1967 61.9037 80.1131 61.1095C80.017 60.1886 80.0368 59.9523 80.2329 59.659C80.3566 59.4742 80.4609 59.3973 80.7382 59.2818C80.9265 59.2071 81.4741 59.1361 81.7462 59.1559C82.5002 59.2075 83.4683 59.5283 84.4334 60.0426L84.6827 60.1758L84.5821 60.0623C84.4292 59.8906 84.1366 59.6022 83.9104 59.3995C83.6149 59.1375 82.7571 58.5638 82.455 58.4261C81.5423 58.0137 80.7076 57.9905 79.9678 58.3575C79.5115 58.5823 79.2234 58.8372 78.9995 59.2071C78.7757 59.577 78.7198 59.8277 78.6909 60.5571C78.6703 61.0629 78.636 61.2946 78.5576 61.4866C78.4486 61.7507 78.2151 61.9547 77.8827 62.0822C77.427 62.2533 76.8875 62.2681 76.1696 62.1275C75.8547 62.0661 75.2749 61.9124 75.267 61.8891C75.2673 61.8842 75.3437 61.8272 75.4418 61.7642C76.0225 61.3886 76.3894 61.0114 76.7801 60.3878C77.2816 59.5939 77.388 59.0785 77.1981 58.4036C77.097 58.0401 76.8724 57.6326 76.41 56.9735C75.9206 56.2757 75.7685 55.9708 75.7575 55.6574C75.7431 55.2875 76.0375 54.8516 76.5014 54.5496C77.0789 54.1744 78.1526 53.9458 79.2634 53.9608C79.4155 53.9622 79.5526 53.9639 79.5708 53.9631C79.6199 53.96 79.5457 53.9258 79.2643 53.8276ZM73.8055 61.6242C74.611 62.307 75.1636 63.1654 75.4252 64.1378C75.8524 65.738 75.3088 67.3425 74.0267 68.2522C72.7984 69.1209 71.1314 69.2381 69.5675 68.5677C69.1925 68.407 68.5525 68.0047 68.2326 67.7264C67.4074 67.0073 66.8792 66.1652 66.633 65.1696C66.3941 64.2072 66.4827 63.3095 66.8976 62.4603C67.0803 62.086 67.4657 61.5977 67.7948 61.3213C69.0977 60.2222 71.0765 60.0742 72.7933 60.9472C73.085 61.096 73.5423 61.4019 73.8055 61.6242Z"/>
</mask>
<path d="M79.2643 53.8276C78.8552 53.6826 78.5388 53.5971 78.1051 53.5154C76.4418 53.2004 75.288 53.6146 74.7727 54.7106C74.4202 55.4575 74.4449 56.076 74.8613 56.905C74.9555 57.094 75.093 57.3635 75.1641 57.5036C75.3164 57.8036 75.4096 58.1129 75.4064 58.3114C75.4039 58.513 75.3233 58.7523 75.1961 58.9425C74.8585 59.4473 74.2061 59.7981 73.1988 60.0197C72.9168 60.0806 72.9293 60.1147 73.0865 59.7258C73.3893 58.974 73.4682 58.0466 73.3087 57.1502C73.2171 56.6362 72.9628 56.1806 72.5497 55.7911C72.3241 55.5785 71.8449 55.2657 71.3238 54.9892C70.8027 54.7127 70.3653 54.4253 70.2089 54.2589C69.9654 53.9983 69.874 53.7083 69.9035 53.3035C69.9259 53.0149 69.9875 52.804 70.1425 52.5064C70.4495 51.9065 71.1948 51.232 72.1311 50.7031L72.2552 50.6318L71.9955 50.6639C70.9182 50.7923 69.9085 51.2154 69.3569 51.7675C69.1577 51.9686 68.908 52.3727 68.8314 52.6148C68.7192 52.9848 68.7037 53.3731 68.7845 53.8285C68.9021 54.4885 69.187 54.9775 69.7162 55.4266C69.7944 55.4944 70.0703 55.702 70.3266 55.8863C70.999 56.3721 71.1744 56.5717 71.284 56.9665C71.442 57.5352 71.242 58.2169 70.7364 58.8409C70.5687 59.0477 70.2421 59.3952 70.1557 59.4584C70.1321 59.4761 70.1137 59.42 70.0804 59.2279C69.9418 58.4587 69.6609 57.7614 69.2156 57.0855C68.8715 56.562 68.6182 56.2897 68.2564 56.0477C67.7612 55.7192 67.2325 55.5816 66.368 55.559C65.5756 55.5385 65.4388 55.5319 65.2493 55.5029C64.7144 55.4229 64.4532 55.2637 64.1992 54.8648C63.6493 53.998 63.7578 52.6789 64.5025 51.1961C64.5789 51.0465 64.5657 51.0531 64.2658 51.3079C63.8878 51.6313 63.6705 51.877 63.3745 52.3196C63.2001 52.5759 63.0806 52.7764 63.0383 52.8793C62.7908 53.465 62.7364 53.9817 62.8695 54.526C62.9438 54.8329 63.052 55.0802 63.2398 55.3756C63.6224 55.9737 64.1084 56.3862 64.7028 56.6191C64.8945 56.6933 65.0756 56.7347 65.6988 56.8454C66.5112 56.99 66.6488 57.0305 66.9029 57.2005C67.4741 57.5825 67.765 58.3791 67.697 59.378C67.6806 59.6269 67.572 60.2951 67.5486 60.2949C67.5434 60.294 67.4648 60.2003 67.3751 60.0837C66.973 59.5677 66.5142 59.1452 65.9146 58.7441C64.9076 58.068 64.2201 57.8732 63.4461 58.045C63.0841 58.1244 62.8041 58.2484 62.1635 58.6123C61.3912 59.0501 61.0414 59.1377 60.6308 58.9994C60.3303 58.8988 59.9071 58.5771 59.663 58.2647C59.1486 57.6042 58.7807 56.5839 58.6516 55.4531C58.6328 55.2964 58.6175 55.1653 58.615 55.1559C58.6052 55.1133 58.4523 55.6851 58.3929 55.9849C58.3717 56.1045 58.3374 56.3671 58.3232 56.5686C58.1952 58.1808 58.842 59.3646 60.1817 59.9699C60.7364 60.2226 61.2076 60.3011 61.7032 60.2286C62.0076 60.1827 62.1522 60.1379 62.6344 59.9536C63.1178 59.7676 63.3518 59.708 63.5889 59.7097C63.9112 59.7117 64.1754 59.8138 64.5277 60.07C64.8779 60.3249 65.1508 60.6514 65.4183 61.1313C65.5485 61.3676 65.7703 61.8761 65.861 62.1451L65.9083 62.29L65.7437 62.2107C65.4772 62.0813 64.9695 61.8858 64.7012 61.8119C63.9251 61.5912 62.9663 61.5159 62.4071 61.6307C61.6761 61.7823 61.2254 62.2011 60.737 63.1865C60.3774 63.9132 60.1825 64.1739 59.899 64.3161C59.5971 64.4641 59.1584 64.4382 58.6338 64.2417C58.4171 64.161 58.368 64.1333 57.9919 63.8818C57.6565 63.6575 57.5454 63.5729 57.3505 63.3937C56.9456 63.0225 56.4938 62.5017 56.1345 61.9964L55.9835 61.7822L56.083 62.1394C56.48 63.5472 57.2707 64.6831 58.1964 65.1684C58.7629 65.465 59.378 65.5703 60.0384 65.4846C60.5011 65.4262 60.7985 65.3113 61.1046 65.0736C61.3152 64.9083 61.439 64.7673 61.7927 64.2912C62.0244 63.9755 62.129 63.8499 62.2296 63.7655C62.5527 63.4979 62.9056 63.4278 63.423 63.5295C64.0411 63.6522 64.8825 64.1712 65.5507 64.8393L65.6331 64.9228L65.3707 64.9325C64.5959 64.9648 63.8393 65.1636 63.1843 65.505C62.6497 65.7854 62.4018 65.9977 62.1803 66.3641C61.8879 66.8451 61.85 67.2494 61.9767 68.4763C62.0771 69.4258 61.9735 69.7655 61.5161 70.005C60.8444 70.3584 59.8441 70.2836 58.6135 69.7924C58.2638 69.6511 57.8465 69.4569 57.6215 69.327C57.5305 69.2738 57.4482 69.2342 57.4394 69.2386C57.4 69.2534 57.8682 69.7235 58.2304 70.0352C58.701 70.44 59.2294 70.7805 59.7146 70.9919C60.6564 71.4005 61.5445 71.3746 62.3057 70.9138C62.9992 70.4927 63.3181 69.9677 63.3649 69.163C63.369 69.0602 63.3856 68.7935 63.3982 68.5678C63.425 68.1099 63.4674 67.9453 63.6137 67.7267C63.9358 67.245 64.697 67.057 65.6958 67.2131C66.0611 67.2696 66.7759 67.4544 66.7869 67.4952C66.7874 67.5032 66.7066 67.5624 66.6074 67.6272C66.378 67.7722 66.0266 68.0645 65.8027 68.2981C65.5605 68.5503 65.1424 69.171 65.0066 69.4841C64.7643 70.0398 64.7291 70.4664 64.8776 70.9876C64.9928 71.3785 65.1709 71.706 65.6168 72.3412C66.2351 73.2203 66.3695 73.534 66.2966 73.9201C66.226 74.2896 65.839 74.7099 65.343 74.9544C64.7324 75.256 63.785 75.4276 62.7823 75.418C62.5367 75.4158 62.5258 75.4189 62.5868 75.4596C62.7128 75.5439 63.5186 75.7819 63.9535 75.8618C65.0081 76.0578 65.8126 75.981 66.4246 75.6289C66.6974 75.4718 66.8578 75.3244 67.0598 75.053C67.5159 74.4371 67.6513 73.7508 67.4516 73.0641C67.3813 72.8217 67.2982 72.6425 66.9224 71.9024C66.6296 71.3285 66.5954 70.9969 66.7854 70.594C67.0533 70.022 67.8134 69.576 68.9125 69.349L69.1306 69.3045L69.0403 69.5143C68.7255 70.2401 68.6148 71.0742 68.7176 71.9455C68.778 72.4489 68.9223 72.849 69.1658 73.1842C69.4938 73.6351 69.8951 73.937 70.8119 74.4267C71.0202 74.5377 71.3154 74.712 71.4658 74.8126C71.8968 75.1008 72.0449 75.2796 72.134 75.6171C72.2003 75.8698 72.186 76.1946 72.0909 76.504C72.0312 76.7033 72.0079 76.7469 71.7773 77.0917C71.5657 77.4081 71.5001 77.4929 71.3402 77.6484C70.9762 77.9991 70.6053 78.281 70.1523 78.5491C70.0058 78.6363 69.8724 78.7169 69.8568 78.7271C69.8044 78.7615 70.2815 78.6947 70.6218 78.6213C71.0402 78.5281 71.2969 78.4477 71.6577 78.2954C72.5011 77.936 73.0616 77.3796 73.2568 76.705C73.4548 76.0219 73.2764 75.0614 72.8472 74.476C72.6074 74.1483 72.4109 73.9758 71.6375 73.4122C71.0981 73.018 70.9518 72.8584 70.8196 72.5282C70.6753 72.159 70.7103 71.6756 70.9228 71.1952C71.0324 70.9521 71.3968 70.4292 71.6168 70.2059C71.8137 70.0083 71.9318 69.9021 71.9448 69.9134C71.9509 69.9174 71.971 70.0106 71.9856 70.1207C72.0251 70.3915 72.1914 70.9787 72.3176 71.2869C72.5548 71.8648 72.9927 72.5693 73.3484 72.9436C73.8528 73.4738 74.486 73.7456 75.3534 73.8035C75.4825 73.8127 75.821 73.8256 76.1091 73.8304C76.6371 73.8415 77.0503 73.8966 77.2647 73.9808C77.424 74.0462 77.6836 74.243 77.7897 74.3834C78.0179 74.6801 78.1887 75.1725 78.216 75.6023C78.2313 75.8698 78.1922 76.3504 78.1319 76.6342C78.034 77.0884 77.7939 77.751 77.5883 78.1331C77.5441 78.2168 77.5159 78.2854 77.5284 78.2886C77.5401 78.2887 77.6448 78.207 77.7638 78.1039C78.6676 77.3244 79.1889 76.4614 79.2672 75.6185C79.3161 75.0879 79.1688 74.534 78.847 74.0255C78.5317 73.5291 78.1204 73.128 77.7037 72.911C77.3186 72.7126 77.0313 72.6362 76.0559 72.4803C75.8886 72.4533 75.6634 72.403 75.5573 72.3681C74.6699 72.0807 74.2205 71.0547 74.4019 69.7277C74.4419 69.4303 74.5095 69.1051 74.53 69.1008C74.5364 69.0999 74.5994 69.1729 74.6666 69.2616C74.8616 69.5155 75.1218 69.795 75.4097 70.0596C75.6405 70.2731 75.7304 70.341 76.1398 70.6174C77.103 71.2667 77.6739 71.4556 78.3919 71.3673C78.8341 71.3132 79.205 71.1677 79.8391 70.8046C80.5133 70.4169 80.8418 70.2996 81.1837 70.325C81.7363 70.3653 82.403 70.9476 82.8003 71.7304C83.1018 72.3308 83.3343 73.1577 83.4227 73.9448C83.4386 74.097 83.4569 74.2147 83.4617 74.2076C83.4878 74.1685 83.5818 73.83 83.6384 73.5695C83.8336 72.6839 83.8024 71.7935 83.553 71.1328C83.3243 70.5245 82.9702 70.0819 82.4092 69.7067C81.7181 69.2445 81.0419 69.0546 80.3876 69.1444C80.1308 69.1809 79.8896 69.2512 79.4074 69.4355C78.9538 69.6079 78.7415 69.6614 78.5112 69.667C78.1991 69.6717 77.959 69.5909 77.6338 69.3734C77.1631 69.0611 76.7875 68.5758 76.4654 67.8742C76.3568 67.6318 76.1728 67.146 76.1804 67.1125C76.1823 67.1009 76.2374 67.1197 76.3011 67.1521C77.2487 67.6443 78.6286 67.9036 79.5513 67.7644C79.9889 67.6995 80.3114 67.5473 80.6309 67.2542C80.8232 67.0767 81.1461 66.5852 81.3792 66.1135C81.8312 65.1913 82.1279 64.9369 82.7074 64.9721C83.7426 65.0342 84.8854 65.8989 85.9912 67.4565L86.0811 67.5861L85.9816 67.2289C85.6935 66.1949 85.211 65.3372 84.5701 64.7207C84.322 64.4802 83.8262 64.1615 83.5317 64.052C83.1181 63.8962 82.5862 63.8338 82.1073 63.8813C81.7814 63.9154 81.5788 63.9677 81.3345 64.0822C80.9615 64.2572 80.7728 64.4294 80.3648 64.9822C80.0274 65.4383 79.9096 65.5704 79.7392 65.6932C79.3585 65.9633 78.7652 65.9575 78.1073 65.6744C77.7684 65.5301 77.1647 65.1263 76.8153 64.8129C76.444 64.4796 76.437 64.4724 76.4526 64.4623C76.4615 64.4579 76.5683 64.4521 76.6908 64.4492C76.9989 64.4417 77.5786 64.3535 77.8933 64.2656C78.5369 64.0864 79.1975 63.7539 79.5719 63.4229C79.7591 63.2574 79.9904 62.9028 80.0587 62.6732C80.1844 62.2608 80.1967 61.9037 80.1131 61.1095C80.017 60.1886 80.0368 59.9523 80.2329 59.659C80.3566 59.4742 80.4609 59.3973 80.7382 59.2818C80.9265 59.2071 81.4741 59.1361 81.7462 59.1559C82.5002 59.2075 83.4683 59.5283 84.4334 60.0426L84.6827 60.1758L84.5821 60.0623C84.4292 59.8906 84.1366 59.6022 83.9104 59.3995C83.6149 59.1375 82.7571 58.5638 82.455 58.4261C81.5423 58.0137 80.7076 57.9905 79.9678 58.3575C79.5115 58.5823 79.2234 58.8372 78.9995 59.2071C78.7757 59.577 78.7198 59.8277 78.6909 60.5571C78.6703 61.0629 78.636 61.2946 78.5576 61.4866C78.4486 61.7507 78.2151 61.9547 77.8827 62.0822C77.427 62.2533 76.8875 62.2681 76.1696 62.1275C75.8547 62.0661 75.2749 61.9124 75.267 61.8891C75.2673 61.8842 75.3437 61.8272 75.4418 61.7642C76.0225 61.3886 76.3894 61.0114 76.7801 60.3878C77.2816 59.5939 77.388 59.0785 77.1981 58.4036C77.097 58.0401 76.8724 57.6326 76.41 56.9735C75.9206 56.2757 75.7685 55.9708 75.7575 55.6574C75.7431 55.2875 76.0375 54.8516 76.5014 54.5496C77.0789 54.1744 78.1526 53.9458 79.2634 53.9608C79.4155 53.9622 79.5526 53.9639 79.5708 53.9631C79.6199 53.96 79.5457 53.9258 79.2643 53.8276ZM73.8055 61.6242C74.611 62.307 75.1636 63.1654 75.4252 64.1378C75.8524 65.738 75.3088 67.3425 74.0267 68.2522C72.7984 69.1209 71.1314 69.2381 69.5675 68.5677C69.1925 68.407 68.5525 68.0047 68.2326 67.7264C67.4074 67.0073 66.8792 66.1652 66.633 65.1696C66.3941 64.2072 66.4827 63.3095 66.8976 62.4603C67.0803 62.086 67.4657 61.5977 67.7948 61.3213C69.0977 60.2222 71.0765 60.0742 72.7933 60.9472C73.085 61.096 73.5423 61.4019 73.8055 61.6242Z" fill="#B5972C" fill-opacity="0.7" stroke="black" stroke-width="2" mask="url(#path-8-inside-1_13_1949)"/>
<path d="M72.5003 61.4203C71.6696 61.0216 70.9115 60.8927 70.0494 61.0029C69.3934 61.0864 68.8992 61.2755 68.4214 61.6248C68.0615 61.8857 67.9624 61.9944 67.6628 62.4423C67.37 62.8844 67.2894 63.0621 67.1932 63.4787C66.8236 65.0914 67.7077 66.897 69.3189 67.8177C70.9147 68.7307 72.7679 68.599 73.9727 67.4883C74.1514 67.3223 74.2047 67.2602 74.4032 66.9633C74.5709 66.7127 74.6499 66.5726 74.7114 66.4234C75.0037 65.7005 75.0381 64.9672 74.8197 64.1677C74.6215 63.4435 74.2221 62.7828 73.6423 62.2201C73.4032 61.9881 72.7916 61.561 72.5003 61.4203Z" fill="#B5972C" fill-opacity="0.7"/>
</g>
<defs>
<filter id="filter0_dddd_13_1949" x="-1.98218" y="11.4482" width="88.3137" height="120.582" filterUnits="userSpaceOnUse" color-interpolation-filters="sRGB">
<feFlood flood-opacity="0" result="BackgroundImageFix"/>
<feColorMatrix in="SourceAlpha" type="matrix" values="0 0 0 0 0 0 0 0 0 0 0 0 0 0 0 0 0 0 127 0" result="hardAlpha"/>
<feOffset dx="-2" dy="2"/>
<feGaussianBlur stdDeviation="2"/>
<feColorMatrix type="matrix" values="0 0 0 0 0 0 0 0 0 0 0 0 0 0 0 0 0 0 0.2 0"/>
<feBlend mode="normal" in2="BackgroundImageFix" result="effect1_dropShadow_13_1949"/>
<feColorMatrix in="SourceAlpha" type="matrix" values="0 0 0 0 0 0 0 0 0 0 0 0 0 0 0 0 0 0 127 0" result="hardAlpha"/>
<feOffset dx="5" dy="5"/>
<feGaussianBlur stdDeviation="5"/>
<feColorMatrix type="matrix" values="0 0 0 0 0.682353 0 0 0 0 0.682353 0 0 0 0 0.682353 0 0 0 0.2 0"/>
<feBlend mode="normal" in2="effect1_dropShadow_13_1949" result="effect2_dropShadow_13_1949"/>
<feColorMatrix in="SourceAlpha" type="matrix" values="0 0 0 0 0 0 0 0 0 0 0 0 0 0 0 0 0 0 127 0" result="hardAlpha"/>
<feOffset dx="1" dy="-1"/>
<feGaussianBlur stdDeviation="1"/>
<feComposite in2="hardAlpha" operator="out"/>
<feColorMatrix type="matrix" values="0 0 0 0 0.682353 0 0 0 0 0.682353 0 0 0 0 0.682353 0 0 0 0.5 0"/>
<feBlend mode="normal" in2="effect2_dropShadow_13_1949" result="effect3_dropShadow_13_1949"/>
<feColorMatrix in="SourceAlpha" type="matrix" values="0 0 0 0 0 0 0 0 0 0 0 0 0 0 0 0 0 0 127 0" result="hardAlpha"/>
<feOffset dx="-1" dy="1"/>
<feGaussianBlur stdDeviation="1"/>
<feComposite in2="hardAlpha" operator="out"/>
<feColorMatrix type="matrix" values="0 0 0 0 1 0 0 0 0 1 0 0 0 0 1 0 0 0 0.3 0"/>
<feBlend mode="normal" in2="effect3_dropShadow_13_1949" result="effect4_dropShadow_13_1949"/>
<feBlend mode="normal" in="SourceGraphic" in2="effect4_dropShadow_13_1949" result="shape"/>
</filter>
<filter id="filter1_d_13_1949" x="18.3618" y="51.792" width="36.8237" height="38.3044" filterUnits="userSpaceOnUse" color-interpolation-filters="sRGB">
<feFlood flood-opacity="0" result="BackgroundImageFix"/>
<feColorMatrix in="SourceAlpha" type="matrix" values="0 0 0 0 0 0 0 0 0 0 0 0 0 0 0 0 0 0 127 0" result="hardAlpha"/>
<feOffset dy="4"/>
<feGaussianBlur stdDeviation="2"/>
<feComposite in2="hardAlpha" operator="out"/>
<feColorMatrix type="matrix" values="0 0 0 0 0 0 0 0 0 0 0 0 0 0 0 0 0 0 0.5 0"/>
<feBlend mode="normal" in2="BackgroundImageFix" result="effect1_dropShadow_13_1949"/>
<feBlend mode="normal" in="SourceGraphic" in2="effect1_dropShadow_13_1949" result="shape"/>
</filter>
<filter id="filter2_dddii_13_1949" x="11.0398" y="0.336182" width="119.92" height="121.846" filterUnits="userSpaceOnUse" color-interpolation-filters="sRGB">
<feFlood flood-opacity="0" result="BackgroundImageFix"/>
<feColorMatrix in="SourceAlpha" type="matrix" values="0 0 0 0 0 0 0 0 0 0 0 0 0 0 0 0 0 0 127 0" result="hardAlpha"/>
<feOffset dx="5" dy="-5"/>
<feGaussianBlur stdDeviation="5"/>
<feColorMatrix type="matrix" values="0 0 0 0 1 0 0 0 0 1 0 0 0 0 1 0 0 0 0.15 0"/>
<feBlend mode="normal" in2="BackgroundImageFix" result="effect1_dropShadow_13_1949"/>
<feColorMatrix in="SourceAlpha" type="matrix" values="0 0 0 0 0 0 0 0 0 0 0 0 0 0 0 0 0 0 127 0" result="hardAlpha"/>
<feOffset dx="-5" dy="-5"/>
<feGaussianBlur stdDeviation="5"/>
<feColorMatrix type="matrix" values="0 0 0 0 0.682353 0 0 0 0 0.682353 0 0 0 0 0.682353 0 0 0 0.2 0"/>
<feBlend mode="normal" in2="effect1_dropShadow_13_1949" result="effect2_dropShadow_13_1949"/>
<feColorMatrix in="SourceAlpha" type="matrix" values="0 0 0 0 0 0 0 0 0 0 0 0 0 0 0 0 0 0 127 0" result="hardAlpha"/>
<feOffset dy="4"/>
<feGaussianBlur stdDeviation="2"/>
<feComposite in2="hardAlpha" operator="out"/>
<feColorMatrix type="matrix" values="0 0 0 0 0 0 0 0 0 0 0 0 0 0 0 0 0 0 0.25 0"/>
<feBlend mode="normal" in2="effect2_dropShadow_13_1949" result="effect3_dropShadow_13_1949"/>
<feBlend mode="normal" in="SourceGraphic" in2="effect3_dropShadow_13_1949" result="shape"/>
<feColorMatrix in="SourceAlpha" type="matrix" values="0 0 0 0 0 0 0 0 0 0 0 0 0 0 0 0 0 0 127 0" result="hardAlpha"/>
<feOffset dx="1" dy="-1"/>
<feGaussianBlur stdDeviation="1"/>
<feComposite in2="hardAlpha" operator="arithmetic" k2="-1" k3="1"/>
<feColorMatrix type="matrix" values="0 0 0 0 0.682353 0 0 0 0 0.682353 0 0 0 0 0.682353 0 0 0 0.5 0"/>
<feBlend mode="normal" in2="shape" result="effect4_innerShadow_13_1949"/>
<feColorMatrix in="SourceAlpha" type="matrix" values="0 0 0 0 0 0 0 0 0 0 0 0 0 0 0 0 0 0 127 0" result="hardAlpha"/>
<feOffset dx="-1" dy="1"/>
<feGaussianBlur stdDeviation="1"/>
<feComposite in2="hardAlpha" operator="arithmetic" k2="-1" k3="1"/>
<feColorMatrix type="matrix" values="0 0 0 0 1 0 0 0 0 1 0 0 0 0 1 0 0 0 0.3 0"/>
<feBlend mode="normal" in2="effect4_innerShadow_13_1949" result="effect5_innerShadow_13_1949"/>
</filter>
<filter id="filter3_ddd_13_1949" x="51.9836" y="50.6318" width="38.0974" height="36.1045" filterUnits="userSpaceOnUse" color-interpolation-filters="sRGB">
<feFlood flood-opacity="0" result="BackgroundImageFix"/>
<feColorMatrix in="SourceAlpha" type="matrix" values="0 0 0 0 0 0 0 0 0 0 0 0 0 0 0 0 0 0 127 0" result="hardAlpha"/>
<feOffset dy="4"/>
<feGaussianBlur stdDeviation="2"/>
<feComposite in2="hardAlpha" operator="out"/>
<feColorMatrix type="matrix" values="0 0 0 0 0 0 0 0 0 0 0 0 0 0 0 0 0 0 0.25 0"/>
<feBlend mode="normal" in2="BackgroundImageFix" result="effect1_dropShadow_13_1949"/>
<feColorMatrix in="SourceAlpha" type="matrix" values="0 0 0 0 0 0 0 0 0 0 0 0 0 0 0 0 0 0 127 0" result="hardAlpha"/>
<feOffset dy="4"/>
<feGaussianBlur stdDeviation="2"/>
<feComposite in2="hardAlpha" operator="out"/>
<feColorMatrix type="matrix" values="0 0 0 0 0 0 0 0 0 0 0 0 0 0 0 0 0 0 0.25 0"/>
<feBlend mode="normal" in2="effect1_dropShadow_13_1949" result="effect2_dropShadow_13_1949"/>
<feColorMatrix in="SourceAlpha" type="matrix" values="0 0 0 0 0 0 0 0 0 0 0 0 0 0 0 0 0 0 127 0" result="hardAlpha"/>
<feOffset dy="4"/>
<feGaussianBlur stdDeviation="2"/>
<feComposite in2="hardAlpha" operator="out"/>
<feColorMatrix type="matrix" values="0 0 0 0 0 0 0 0 0 0 0 0 0 0 0 0 0 0 0.25 0"/>
<feBlend mode="normal" in2="effect2_dropShadow_13_1949" result="effect3_dropShadow_13_1949"/>
<feBlend mode="normal" in="SourceGraphic" in2="effect3_dropShadow_13_1949" result="shape"/>
</filter>
<clipPath id="clip0_13_1949">
<rect width="60" height="100" fill="white" transform="translate(0 22.3628) rotate(-8.97741)"/>
</clipPath>
</defs>
</svg>
