<svg width="56" height="48" viewBox="0 0 56 48" fill="none" xmlns="http://www.w3.org/2000/svg">
<g filter="url(#filter0_d_104_28)">
<mask id="path-1-inside-1_104_28" fill="white">
<path d="M22.3205 0.00115585C21.9217 0.122696 20.7943 0.570877 20.3456 0.783573C20.0312 0.935497 19.7282 1.07223 19.6745 1.08363C19.5096 1.1254 19.222 1.33051 19.1032 1.49382C18.7695 1.9496 18.689 2.66745 18.8539 3.69295C18.8807 3.86766 18.8999 4.01579 18.8961 4.01958C18.8922 4.02338 18.7005 3.97781 18.4666 3.91324C17.9259 3.76891 17.1973 3.72713 16.8713 3.81828C16.4763 3.93223 16.2347 4.22849 16.1887 4.64248L16.1657 4.85138L15.9855 4.84378C15.7477 4.83619 15.5867 4.75263 15.2952 4.49055C14.9693 4.1867 14.9002 4.16771 14.6433 4.28925C14.4055 4.4032 13.6616 5.13244 13.1823 5.70976C12.8064 6.16553 12.8026 6.16553 11.5333 6.29087C11.0846 6.33645 10.9351 6.36684 10.8085 6.4352C10.4711 6.61751 10.3867 6.90237 10.4941 7.51007C10.5286 7.71897 10.5593 7.92027 10.5631 7.95826C10.5669 8.01143 10.4826 8.0608 10.2218 8.17095C9.09821 8.64192 8.45013 9.0977 8.23921 9.56866C8.13184 9.81174 8.15485 10.1992 8.30057 10.5106C8.35426 10.6321 8.39644 10.7347 8.39261 10.7385C8.38494 10.7423 8.20087 10.8372 7.97845 10.9436C7.21916 11.3196 6.67846 11.7412 6.49055 12.1096C6.3525 12.3831 6.2528 13.0136 6.2528 13.6251C6.2528 13.8112 6.24129 14.0543 6.22979 14.1606L6.20678 14.3543L5.95752 14.3619C5.64307 14.3733 5.27493 14.4835 5.07168 14.6316C4.69204 14.905 4.52331 15.3152 4.52331 15.9799C4.52331 16.6218 4.66903 17.2599 5.00649 18.0841C5.10236 18.3196 5.17906 18.5171 5.17906 18.5209C5.17906 18.5209 5.02567 18.5247 4.8416 18.5247C4.53865 18.5247 4.48496 18.5361 4.34691 18.6272C4.05163 18.8171 3.95193 19.2159 4.02095 19.8882C4.11682 20.7998 4.43128 21.5556 5.06018 22.3798L5.31711 22.7178L5.21357 23.523C5.12154 24.2257 5.11387 24.3472 5.15988 24.4915C5.22124 24.7004 5.48201 25.1714 5.84248 25.7297C6.06873 26.0754 6.1761 26.2957 6.32949 26.7173C6.59793 27.4541 6.96223 28.3429 7.12713 28.6657C7.37639 29.1595 7.44925 29.2164 7.64866 29.0607C7.70618 29.0151 7.75603 28.9847 7.7637 28.9923C7.76754 28.9999 7.82122 29.186 7.87875 29.4063C8.09349 30.2229 8.40795 30.88 8.76075 31.2598C9.04452 31.5637 9.25543 31.6624 9.65808 31.6776C9.93802 31.6928 9.97254 31.7004 9.94953 31.7574C9.89201 31.8979 9.88817 32.3499 9.94186 32.4828C10.0684 32.7753 10.4442 33.0791 10.8852 33.2425C11.0386 33.2994 12.8486 33.6602 12.9828 33.6602C12.9905 33.6602 12.9713 33.721 12.9407 33.7932C12.7029 34.3591 13.2206 35.3656 14.4094 36.6418C15.0651 37.3482 15.6173 37.842 16.0737 38.1307C16.2923 38.2674 16.4917 38.3889 16.5185 38.3965C16.6451 38.4459 16.066 37.2001 15.6135 36.4519C15.4639 36.2012 15.2684 35.8556 15.184 35.6885C15.0536 35.4302 15.0344 35.3656 15.069 35.301C15.1188 35.2099 15.2914 35.1567 15.6365 35.1301L15.8743 35.1111L16.1082 35.5441C16.3958 36.0873 16.7831 36.7102 17.0285 37.0406C17.4465 37.5989 17.9527 37.9559 19.1185 38.5219C20.1385 39.0194 20.9055 39.3195 20.9017 39.2169C20.8978 39.1865 20.5987 38.97 19.7934 38.4117C18.9689 37.8458 18.4627 37.3444 18.3745 37.0102C18.3247 36.8355 18.2327 36.262 18.202 35.9657C18.1828 35.791 18.1905 35.7492 18.2365 35.7492C18.3669 35.7492 19.1453 36.0341 19.4905 36.2126C19.7627 36.3493 19.9161 36.4557 20.0503 36.6C20.2191 36.7823 20.2421 36.8355 20.3341 37.2001C20.5642 38.1231 21.009 38.6624 21.684 38.8447C21.9601 38.9207 22.4471 38.9093 22.8574 38.8219C22.9763 38.7953 23.2102 38.7877 23.4134 38.7991C24.0462 38.8333 24.6789 39.0992 25.3538 39.6043C25.7872 39.931 25.8639 39.969 25.8984 39.8778C25.9367 39.7753 25.8064 39.5777 25.4804 39.2435C25.1161 38.8713 24.7786 38.6282 24.3798 38.4497C24.0385 38.2978 23.3444 38.0813 23.0952 38.0471C22.9111 38.0243 22.8689 37.9977 22.612 37.7508C22.3589 37.504 22.1441 37.2001 21.9102 36.7633C21.8067 36.5772 21.7453 36.2772 21.7453 35.9885V35.7834L22.3474 36.3873C23.494 37.5306 24.0462 37.8306 25.235 37.9521C26.4314 38.0737 26.7535 38.218 27.6701 39.0384C28.2683 39.5739 28.6441 39.8246 29.0046 39.931C29.5223 40.0905 29.8942 39.9879 30.6957 39.4714C31.5739 38.9093 31.7234 38.8713 32.3523 39.046C32.9812 39.2207 33.2267 39.2549 33.6063 39.2283C34.1163 39.1903 34.6264 39.046 35.1479 38.7915C35.8458 38.4535 36.1986 38.1572 36.0644 38.0281C36.0222 37.9863 35.052 38.0699 34.17 38.1914C33.2305 38.3168 33.1576 38.3092 32.3868 38.0433L31.7349 37.8192L31.2939 37.823C30.7379 37.8268 30.3966 37.9142 29.806 38.199C29.3842 38.4003 29.365 38.4041 29.1925 38.3661C28.8243 38.2864 28.4984 38.0433 28.1839 37.6217C27.8273 37.1469 27.5512 36.9266 27.2214 36.8545C26.6078 36.7178 25.9751 36.281 25.373 35.5859C25.2695 35.4644 25.1928 35.3618 25.2043 35.3504C25.2235 35.3276 26.7152 35.5935 27.9845 35.8442C28.9317 36.0303 29.1081 36.0797 29.8712 36.3531C30.8222 36.695 31.1482 36.7747 31.616 36.7747C31.9995 36.7747 32.337 36.6798 32.9736 36.3987C33.4184 36.1974 33.7827 36.0759 34.0588 36.0379C34.2122 36.0151 34.3272 36.0455 34.9983 36.2772C36.003 36.6228 36.2676 36.7215 37.1918 37.0862L37.9741 37.3976L38.2464 37.352C38.5723 37.2951 39.949 36.8469 40.4552 36.6304C40.8234 36.4709 41.0228 36.3303 40.9652 36.2734C40.8924 36.2012 38.952 35.9429 37.9396 35.8708L37.5139 35.8366L36.8659 35.4568C35.5199 34.6592 35.2399 34.5262 34.7606 34.4579C34.3502 34.3971 33.9553 34.4655 33.0924 34.7427C31.9075 35.1263 31.7119 35.1453 31.1866 34.9288C30.6765 34.7199 28.9394 33.9565 28.9049 33.9261C28.8435 33.8729 32.1031 33.3792 32.8508 33.3298C33.2918 33.3032 33.4913 33.345 34.055 33.6033C34.5228 33.8198 34.8449 33.9261 35.0213 33.9261C35.1786 33.9261 35.5314 33.797 36.2408 33.4779C37.3605 32.9766 37.6367 32.95 38.6414 33.2387C39.416 33.4627 39.88 33.6223 40.2635 33.797C40.6738 33.9831 40.7888 33.9755 41.4906 33.6792C41.9124 33.5007 42.3381 33.5463 43.1127 33.8502L43.4809 33.9983L43.7263 33.9451C44.2593 33.835 45.6207 33.307 45.8316 33.1323C45.9044 33.0715 45.9505 33.0108 45.939 32.9994C45.8814 32.9424 44.5009 32.7677 43.6419 32.7107C43.2278 32.6803 42.9172 32.6386 42.7484 32.5892C42.4378 32.498 42.2652 32.5094 41.8204 32.6537C41.6517 32.7069 41.4024 32.7601 41.2644 32.7715L41.0151 32.7905L40.4169 32.4904C40.0871 32.3271 39.6691 32.0954 39.4812 31.9739C38.883 31.5865 38.3921 31.5827 36.9541 31.9511C36.4057 32.0916 35.8343 32.1524 35.4853 32.1068C35.0942 32.0574 33.5641 31.4991 32.8815 31.1611L32.5824 31.0129L33.4644 30.9864C35.3013 30.9332 37.3184 30.8192 37.6788 30.7509C37.744 30.7395 38.0546 30.6559 38.3691 30.5648C39.113 30.3521 39.3853 30.3065 39.8378 30.3255C40.3018 30.3445 40.5511 30.4508 41.0534 30.842C41.7169 31.3624 42.0352 31.4649 43.0284 31.4725C43.5039 31.4725 43.6688 31.4611 43.8643 31.4042C44.198 31.3054 44.5239 31.0889 44.662 30.8762C44.7578 30.7243 44.8039 30.6901 44.9841 30.6369C45.3254 30.5344 46.4758 30.2571 46.7788 30.2039C46.9667 30.1698 47.0549 30.1356 47.0549 30.1014C47.0549 29.9229 45.3331 29.4899 44.8 29.5317C44.5891 29.5469 44.4626 29.5962 43.8989 29.8735C42.9977 30.3179 43.0015 30.3179 42.6295 30.166C42.4646 30.0976 42.1464 29.9305 41.9239 29.7937C41.1301 29.3114 41.0113 29.2506 40.7275 29.1633C40.1408 28.9771 39.7074 28.9961 38.8369 29.2392C38.116 29.4405 37.7862 29.4709 37.3069 29.3911C36.1833 29.1974 35.6464 28.9278 35.4738 28.4682C35.3856 28.2365 35.2974 27.4655 35.3473 27.3819C35.3703 27.3401 35.4815 27.3857 35.8381 27.587C36.9656 28.2289 37.9971 28.5328 38.6452 28.4188C38.9942 28.3581 39.4122 28.1947 39.8455 27.9441C40.877 27.3477 41.3334 27.2034 41.9354 27.287C42.2844 27.3364 42.549 27.4427 43.0092 27.7352C43.6879 28.1605 44.1366 28.3163 44.4741 28.2289C44.7694 28.1567 44.9381 28.0466 45.2755 27.7124C45.6437 27.3515 45.8661 27.1882 46.1 27.1085C46.3454 27.0211 46.798 27.0363 47.2313 27.1464C47.7221 27.2718 47.8525 27.2642 48.2322 27.1161C48.7729 26.8958 49.1218 26.6527 49.0221 26.5577C48.9761 26.5122 48.1401 26.2729 47.7068 26.1779C47.5074 26.1361 47.2505 26.0564 47.1354 26.0032C46.9628 25.9196 46.8862 25.9083 46.6944 25.9196C46.426 25.9348 46.0272 26.1058 45.6398 26.364C45.5133 26.4514 45.2909 26.5767 45.149 26.6489C44.4472 26.9983 44.0331 26.93 43.2201 26.326C42.6832 25.9272 42.4646 25.8285 42.0773 25.8057C41.667 25.7829 41.4062 25.8361 40.7083 26.0906C40.0027 26.345 38.4036 26.7476 38.0853 26.7476C37.4833 26.7476 36.9694 26.3716 36.5744 25.6462C36.421 25.3613 36.2216 24.8524 36.2523 24.822C36.2638 24.8106 36.4594 24.8486 36.6895 24.9017C37.4603 25.0803 37.7939 25.122 38.3499 25.1068C38.9942 25.0879 39.2703 25.0005 40.229 24.5257C41.0841 24.1003 41.4753 23.9712 41.9585 23.9446C42.3036 23.9294 42.3611 23.937 42.9938 24.1079C44.0522 24.3966 44.152 24.389 45.0263 23.9902C45.2679 23.8762 45.5555 23.7699 45.659 23.7509C46.0042 23.6863 46.3071 23.8003 46.844 24.1915C47.2543 24.4877 47.3272 24.5333 47.5419 24.6169C47.9369 24.7688 47.9177 24.7726 48.4124 24.3548C48.654 24.1459 49.0068 23.8307 49.1909 23.656C49.5973 23.2685 49.5782 23.2344 49.0145 23.3635C48.8112 23.4129 48.5198 23.4698 48.3625 23.4926C48.0481 23.542 48.1133 23.5648 47.4767 23.1812C46.844 22.8014 45.9428 22.5317 45.3216 22.5317C44.9918 22.5317 44.7387 22.5887 44.1174 22.7938C43.6151 22.9609 43.1357 23.0369 42.8826 22.9913C42.6679 22.9495 41.9316 22.5849 41.529 22.319L41.2068 22.1063L40.9001 22.1215C40.5281 22.1443 40.2175 22.262 39.6653 22.6001C38.6145 23.2382 38.208 23.2875 37.7785 22.8242C37.4794 22.5013 37.0691 21.9658 37.0998 21.9354C37.1036 21.9278 37.3836 21.905 37.721 21.886C39.1552 21.7949 40.2788 21.567 40.8425 21.2517C40.9384 21.1986 41.1608 21.0618 41.3411 20.9517C41.7821 20.6782 42.0927 20.5605 42.4877 20.5149C42.9785 20.4579 43.2469 20.5225 44.0638 20.9137C44.777 21.2555 45.08 21.3543 45.4174 21.3543C45.6974 21.3543 46.2457 21.2138 46.7864 21.0011C47.3463 20.7808 47.7912 20.6554 48.2053 20.5947C48.5504 20.5491 48.9147 20.5795 50.5982 20.7884C50.9318 20.8301 51.2156 20.8529 51.2271 20.8415C51.2386 20.8339 51.2271 20.7808 51.2041 20.7314C51.1159 20.5377 49.9195 19.873 49.2791 19.6603C48.7 19.4704 48.4738 19.5046 46.6331 20.0743C46.426 20.1389 46.2726 20.1503 45.7511 20.1541C45.1298 20.1541 45.1145 20.1541 44.7962 20.0363C44.6198 19.968 44.3053 19.8198 44.0983 19.7059C43.7033 19.4856 43.3697 19.3337 43.0475 19.2311C42.8021 19.1552 42.0236 19.1514 39.462 19.2235C38.4189 19.2501 37.5024 19.2691 37.4296 19.2615C37.3069 19.2463 37.3299 19.2311 37.7364 19.0602C39.2933 18.4031 39.8186 18.1601 40.2481 17.8904C40.9767 17.4384 41.157 17.3624 41.5213 17.3624C41.8472 17.3624 42.1885 17.4878 42.8059 17.8296C43.4617 18.1866 43.5039 18.2094 44.0062 18.3462C44.6351 18.5209 45.195 18.6272 45.5401 18.6348C45.8354 18.6386 45.8623 18.631 46.2649 18.4373C46.495 18.3272 46.7634 18.1904 46.8593 18.1297C46.9552 18.0727 47.1277 17.9929 47.2428 17.955C47.4537 17.8866 47.5611 17.8866 48.6885 17.9587C49.3366 18.0005 49.7546 17.8904 50 17.6169C50.1496 17.446 50.1841 17.3359 50.1112 17.2637C50.0805 17.2295 49.8696 17.1573 49.6434 17.0966C49.0681 16.9408 48.7115 16.7965 48.2053 16.5117C47.6148 16.1812 47.5611 16.1812 46.9513 16.5003L46.4988 16.7358L46.0003 16.7813C45.2755 16.8535 44.1366 16.8497 43.8528 16.7775C43.5269 16.694 43.1511 16.5079 42.6641 16.1888C42.1272 15.8356 41.7974 15.6723 41.4676 15.5963C40.9691 15.4824 40.6661 15.5735 39.9644 16.0521C39.7381 16.2078 39.4658 16.3711 39.3623 16.4091C38.9405 16.5724 38.3154 16.5382 37.6903 16.318C37.3337 16.1888 36.7201 15.9078 36.6856 15.8546C36.6434 15.7824 36.7777 15.2317 36.8965 14.9848C37.0193 14.7303 37.165 14.6012 37.3721 14.5556C37.5791 14.51 38.8101 14.7227 39.0517 14.8481C39.2089 14.9278 39.6806 14.8975 40.3824 14.7607C41.0113 14.643 41.552 14.6278 41.9163 14.7227C42.0543 14.7569 42.434 14.9126 42.7599 15.0684C43.4655 15.4026 43.5614 15.4292 43.9909 15.4292C44.4357 15.4292 44.7924 15.357 45.6974 15.0836C46.6177 14.8063 46.7098 14.7987 47.3233 14.9886C49.0873 15.5355 49.3404 15.5925 49.513 15.5052C49.7085 15.4026 49.7047 15.357 49.4861 15.1253C49.1755 14.7987 48.4239 14.267 47.91 14.0125C47.1507 13.6365 46.7251 13.6099 45.7127 13.872C44.6773 14.1416 44.336 14.115 43.3428 13.6669C42.7638 13.4048 42.5567 13.3402 42.1962 13.306C41.8012 13.2681 41.529 13.3098 40.9384 13.5035C40.4859 13.6479 40.4015 13.6631 40.0564 13.6631C39.5732 13.6631 39.4352 13.5985 39.0594 13.1959C38.5263 12.6262 38.3806 12.497 38.1659 12.3983C37.9664 12.3071 37.9051 12.2957 37.5254 12.2995C37.0499 12.3033 36.7086 12.3869 36.0836 12.6528C35.888 12.7363 35.7193 12.8009 35.7154 12.7933C35.6848 12.7629 36.3865 12.0944 36.6434 11.9007C37.1535 11.5209 37.6865 11.331 38.116 11.3842C38.2349 11.3994 38.6337 11.5095 39.0018 11.6349C39.37 11.7564 39.8148 11.8779 39.9835 11.9045C40.2865 11.9463 40.3133 11.9463 40.7697 11.8248C41.0304 11.7564 41.5788 11.5931 41.9853 11.4563C42.6295 11.2436 42.7599 11.2133 43.013 11.2133C43.5384 11.2133 44.1903 11.3956 44.9496 11.7488C45.3676 11.9463 45.3752 11.9501 45.5516 11.9045C45.7971 11.84 46.6944 11.3956 47.3348 11.0196C48.1171 10.5562 48.3395 10.3397 48.0366 10.3397C47.772 10.3397 46.6637 10.4992 46.1269 10.6132C45.8278 10.6739 45.5248 10.7347 45.4558 10.7461C45.3714 10.7613 45.1528 10.7005 44.7272 10.5524C43.5115 10.1308 43.1434 10.0358 42.7177 10.0358C42.3343 10.0358 41.9239 10.127 41.3679 10.3359C40.8694 10.5258 40.4399 10.6359 40.1139 10.6663C39.8033 10.6967 39.5234 10.6283 38.9443 10.3891C38.7142 10.2941 38.3844 10.1574 38.2119 10.089C37.7939 9.9143 37.3951 9.85732 37.0614 9.91809C36.7623 9.97127 36.5207 10.0852 36.1641 10.3435C36.0184 10.446 35.8036 10.5752 35.6848 10.6283C35.493 10.7157 35.4317 10.7271 35.2054 10.7081C34.8871 10.6815 34.45 10.5182 34.0166 10.2637C33.4798 9.94468 33.4836 9.97127 33.9476 9.7054C34.8258 9.19645 35.6042 8.86981 36.329 8.70649C36.8122 8.59634 37.2992 8.61533 37.9281 8.76726C38.2924 8.85461 38.4535 8.87361 38.8676 8.8774C39.3355 8.8774 39.3776 8.86981 39.5847 8.77106C39.7036 8.71408 39.9759 8.53937 40.1906 8.38365C40.8809 7.88229 41.2107 7.78734 41.9469 7.8633C42.457 7.91268 42.8213 8.04181 43.2508 8.31148C43.6189 8.54317 43.7953 8.58115 44.3322 8.54317C45.2142 8.4786 46.6906 7.92787 46.6906 7.662C46.6906 7.55945 46.564 7.53666 45.5977 7.47589C44.3207 7.39233 44.0791 7.32776 43.5154 6.92896C43.1051 6.6365 42.9095 6.52636 42.6065 6.4276C42.3803 6.35164 42.3113 6.34405 41.8204 6.36684C40.831 6.41241 40.6086 6.47698 39.9375 6.94415C39.0977 7.52147 38.5685 7.60503 37.7018 7.29738C36.5246 6.87579 36.329 6.87199 35.1671 7.24421C34.8181 7.35815 34.4116 7.4683 34.2659 7.49488C33.7865 7.57464 32.7396 7.50248 31.7733 7.31637C31.4281 7.2518 30.3237 6.99353 30.3007 6.97454C30.293 6.96694 30.4158 6.81122 30.5692 6.63271C31.0945 6.01741 31.57 5.70216 32.245 5.52745C32.5632 5.44389 32.7013 5.4287 33.2305 5.4249C33.9361 5.4211 34.0396 5.44389 34.8411 5.80851C36.1833 6.41621 36.6549 6.38583 37.8207 5.6262C38.6874 5.06408 39.1552 4.93114 39.7458 5.08307C40.0794 5.17042 40.6201 5.14004 40.9844 5.0147C41.3526 4.88556 41.7322 4.62729 42.062 4.28546C42.4416 3.88665 42.5912 3.5752 42.4263 3.51443C42.3918 3.49924 42.062 3.52962 41.69 3.5752C40.6316 3.71194 40.2827 3.71953 39.7381 3.61699L39.2779 3.52962L39.0594 3.63218C38.9098 3.70434 38.6836 3.89045 38.3499 4.20949C38.0585 4.48296 37.7747 4.71844 37.6635 4.77542C37.234 4.98811 36.5092 5.05648 35.934 4.93114C35.7768 4.89696 35.2169 4.72604 34.6877 4.54753C32.7281 3.88665 32.3638 3.88285 30.5653 4.47536C29.1771 4.93494 29.0352 4.96532 28.1494 4.96152C27.3326 4.96152 26.8341 4.91975 25.699 4.76782L24.9589 4.66907L24.7326 4.50195C24.3185 4.1905 24.0462 3.82208 24.0462 3.56381C24.0462 3.36251 24.1382 3.35871 24.9627 3.50684C25.5379 3.60939 25.768 3.63597 26.1553 3.63218C26.6002 3.63218 26.6615 3.62078 27.0373 3.49544C27.2597 3.41948 27.7583 3.21818 28.1494 3.04726C28.5406 2.87635 29.0391 2.67505 29.2615 2.59908C29.6641 2.46615 29.6641 2.46615 29.9863 2.51173C30.4273 2.57249 30.922 2.73582 31.6506 3.06245C32.7243 3.54102 33.1116 3.63977 33.8556 3.60559C34.2889 3.5866 34.4806 3.55241 35.5697 3.29794C37.8514 2.7624 38.7564 2.46995 38.3806 2.38259C38.1812 2.34081 36.5437 2.1699 35.7423 2.11292L34.8794 2.05215L34.3234 1.83186C32.9007 1.26973 31.8346 1.00766 30.573 0.912708C29.9364 0.863335 29.2462 0.905113 28.7668 1.01526C28.4639 1.08743 28.0152 1.29252 27.4055 1.64195C26.8801 1.94201 26.5733 2.07114 26.1592 2.17749C25.5954 2.32182 25.2273 2.24965 24.3338 1.81287C23.7778 1.5432 23.5208 1.44825 23.2447 1.39887C23.1258 1.37608 23.099 1.39507 22.8651 1.63056C22.6158 1.88883 21.9025 2.70923 21.2851 3.45366C20.9745 3.82968 20.9592 3.84107 20.8902 3.7765C20.5604 3.49165 20.5527 2.53072 20.871 1.93821C21.1087 1.49762 21.6916 1.05704 22.3129 0.85194C22.5775 0.764584 22.6695 0.753189 23.1834 0.753189C23.6627 0.74939 23.8161 0.764584 24.0999 0.836746C24.8208 1.02286 25.4152 1.01906 25.8255 0.825352C26.0173 0.734196 26.1476 0.635445 26.1131 0.601261C26.1055 0.593666 25.7948 0.548088 25.4267 0.50251C24.6444 0.407558 23.3598 0.198662 22.7807 0.0733223C22.5583 0.0239449 22.3512 -0.00643921 22.3205 0.00115585ZM21.5958 5.2122C24.9205 5.36792 27.6317 6.35544 30.1205 8.32667C32.4904 10.1992 34.2467 12.6565 35.1057 15.3001C36.0069 18.0841 36.0491 21.3581 35.2207 24.1915C34.5305 26.5501 33.2113 28.6809 31.2901 30.5268C29.7332 32.0195 28.0612 33.0867 26.1707 33.7856C23.4863 34.7807 20.2191 34.9554 17.343 34.2642C16.2041 33.9869 14.8657 33.4817 13.93 32.969L13.6386 32.8133L13.8073 32.6651C14.0451 32.4524 14.4669 32.2587 14.8235 32.198C15.3911 32.0992 16.6451 32.1448 18.0409 32.3119C18.4627 32.3651 18.827 32.4069 18.8577 32.4069C18.9766 32.4069 18.8884 32.3347 18.5778 32.1828C17.8147 31.8068 16.9327 31.5523 15.7861 31.3814C14.9846 31.2636 14.233 31.2256 12.7221 31.2332L11.3492 31.2408L11.215 31.1117C11.1076 31.0091 11.0846 30.9636 11.1038 30.8876C11.169 30.6331 11.4566 30.485 12.0203 30.4242C12.3386 30.3863 12.469 30.3901 12.6646 30.428C13.2628 30.5534 13.3893 30.5344 13.7843 30.2799C14.5743 29.7672 14.743 29.7596 16.089 30.1356C16.81 30.3369 17.6383 30.5078 17.6651 30.4622C17.692 30.4204 16.81 29.5469 16.2232 29.0303C15.7285 28.5973 15.2952 28.3049 15.1495 28.3049C14.9654 28.3049 14.3442 28.4796 13.815 28.6809C12.9982 28.9885 12.6224 29.0569 12.2734 28.9506C12.1162 28.905 11.8017 28.8556 10.0492 28.6239C8.87195 28.4682 8.76075 28.4492 8.69939 28.3694C8.66104 28.3239 8.63036 28.2555 8.63036 28.2175C8.63036 28.0504 9.38581 27.4199 9.65041 27.3705C9.75395 27.3515 9.81915 27.3743 10.007 27.4883C10.2947 27.6592 10.751 27.8263 11.1076 27.8871C11.5601 27.9668 12.3616 27.9175 13.1746 27.7617C13.5542 27.6896 13.9645 27.6174 14.0873 27.6022C14.233 27.587 14.3058 27.5604 14.2943 27.5339C14.2675 27.4541 13.884 27.211 13.5926 27.0895C13.2014 26.93 12.6262 26.8008 11.9513 26.7249L11.3799 26.6603L11.0885 26.4514C10.9274 26.3374 10.6398 26.1209 10.4442 25.9652C9.83448 25.4791 9.53154 25.3157 9.12888 25.2474C9.03301 25.2322 8.80676 25.2778 8.34275 25.4031C7.20766 25.7107 7.24217 25.7032 7.16548 25.6082C7.12713 25.5626 7.09645 25.4867 7.09645 25.4373C7.09645 25.2892 7.30353 25.0537 7.54512 24.9397C7.7522 24.8372 7.79821 24.8296 8.20854 24.8334C8.45396 24.8372 8.987 24.8828 9.41649 24.9435C10.7855 25.1296 11.3646 25.0879 12.4383 24.7346C13.2283 24.4726 14.4746 23.8421 14.4516 23.7167C14.4247 23.5838 14.0221 23.5838 12.9982 23.7281C12.3539 23.8155 11.33 23.8687 11.0156 23.8269C10.6858 23.7851 10.333 23.6294 9.97637 23.3711C9.30145 22.8811 9.24776 22.8697 7.71001 22.847C7.02359 22.8394 6.4292 22.8242 6.38701 22.8166C6.34483 22.809 6.29115 22.7482 6.2643 22.6836C6.22595 22.5811 6.22979 22.5621 6.31415 22.4975C6.41769 22.4178 6.75132 22.3304 7.19232 22.2658C7.81355 22.1785 7.92476 22.1557 8.13184 22.0797C8.24688 22.0379 8.48081 21.9164 8.64954 21.8101C9.03685 21.567 9.31295 21.4644 9.63508 21.4378C9.9687 21.4151 10.2333 21.4682 11.0079 21.7189C11.9935 22.0342 12.2504 22.0873 12.8294 22.0835C13.5734 22.0835 14.1563 21.943 14.8811 21.5898C15.3336 21.3657 15.648 21.0884 15.648 20.9061C15.648 20.8377 15.6288 20.7846 15.602 20.7846C15.5752 20.7846 15.3374 20.8681 15.0728 20.9745C14.3365 21.2593 13.769 21.3353 13.2129 21.2213C12.91 21.1606 12.1469 20.796 11.2188 20.2718C10.1183 19.6527 9.76162 19.5806 8.8106 19.7932C8.105 19.9528 7.78671 19.9528 7.31503 19.797C6.44454 19.5084 6.06489 19.1438 6.06106 18.6044C6.06106 18.3803 6.06489 18.3765 6.2643 18.1828C6.37935 18.0727 6.59026 17.9284 6.73598 17.8562C6.96223 17.7461 7.0466 17.7271 7.33421 17.7157C7.64099 17.7005 7.69084 17.7119 7.91326 17.8144C8.04748 17.8752 8.3696 18.0689 8.63036 18.2398C9.30912 18.6918 9.40882 18.726 10.0607 18.7716C11.4106 18.8627 12.1469 18.7791 11.9628 18.5589C11.8439 18.4145 11.3109 18.1145 10.31 17.6207C9.12121 17.0396 9.06369 16.994 8.83361 16.4965C8.30057 15.3456 8.2047 15.2431 7.40707 15.0152C7.18848 14.9544 6.99291 14.8861 6.97374 14.8671C6.91238 14.8063 6.97757 14.6012 7.08495 14.5214C7.223 14.4113 7.81355 14.1948 9.45484 13.6441C11.0578 13.1085 11.656 12.8882 12.074 12.6793C12.7566 12.3375 13.1286 12.3451 14.6893 12.7135C15.5905 12.9262 16.0507 12.987 16.3459 12.9262C16.5684 12.8806 16.8982 12.6945 17.2203 12.4287C17.481 12.2198 17.853 11.9767 18.0831 11.8741C18.3976 11.7298 19.4521 11.5703 20.4031 11.5209L20.9208 11.4943L20.7329 11.4108C20.2152 11.1753 19.3869 11.0234 18.643 11.0234C18.2327 11.0234 18.0831 11.0423 17.5692 11.1601C17.2394 11.2322 16.7716 11.3652 16.53 11.4487C16.2884 11.5323 16.0392 11.6083 15.974 11.6197C15.8436 11.6386 14.9156 11.4601 14.2675 11.2892C14.0259 11.2247 13.5159 11.0955 13.1401 11.0006L12.4498 10.8258L11.4911 10.9094C10.82 10.9626 10.3062 10.9854 9.79997 10.9778L9.07136 10.9664L9.32062 10.7157C9.51236 10.5258 9.62357 10.446 9.79997 10.3777C10.1068 10.2675 10.6244 10.1612 11.0386 10.1308C11.4374 10.1004 12.8371 10.1612 13.8955 10.2523L14.6548 10.3169L15.046 10.2295C15.8551 10.051 17.6421 9.41674 17.6421 9.30659C17.6421 9.26481 17.4657 9.2876 16.6987 9.43193C15.997 9.56107 15.3566 9.62943 15.115 9.59905C14.8696 9.56487 13.8457 9.26101 13.3011 9.05971C12.7796 8.86601 12.469 8.82043 11.6905 8.82043C11.3991 8.82043 11.1613 8.80904 11.1613 8.79005C11.1613 8.77485 11.2035 8.73307 11.2572 8.69509C11.3761 8.61153 11.7864 8.56975 13.0404 8.51658C14.9961 8.43682 15.2914 8.41023 16.0315 8.2735C16.4226 8.20134 16.8023 8.13297 16.879 8.12157C16.9787 8.10258 17.2011 8.14436 17.6383 8.25071C18.5241 8.471 19.3256 8.60014 19.2105 8.50139C19.1415 8.44442 18.2288 7.93167 17.8875 7.75695C17.04 7.32397 16.6642 7.24421 15.6288 7.28218C14.8235 7.30877 13.9914 7.2632 13.6884 7.17584L13.5197 7.12646L13.8265 6.94795C14.1256 6.77324 14.1409 6.76944 14.4592 6.77324C15.1457 6.77324 15.5675 6.83401 16.1082 6.99733C16.8866 7.23661 16.925 7.23661 17.9872 6.96694C19.0571 6.69347 19.3831 6.6403 19.6937 6.66689C20.012 6.70107 20.9438 6.94035 21.2008 7.0543C21.4462 7.16444 21.5267 7.13786 21.4232 6.97834C21.3312 6.8378 20.779 6.4428 20.4377 6.27188C20.2728 6.19212 20.0273 6.09717 19.8893 6.06298C19.6554 6.00601 19.5978 6.00601 19.0725 6.06298C18.758 6.10096 18.34 6.15794 18.1406 6.19592C17.8415 6.25289 17.7035 6.26049 17.366 6.2339C16.7026 6.18073 16.0698 6.0364 16.1504 5.95284C16.1619 5.94144 16.3076 5.89967 16.4725 5.85788C16.7524 5.78572 16.8982 5.78192 18.4896 5.78192C19.7512 5.78192 20.2152 5.77053 20.2344 5.73634C20.2766 5.66798 20.1309 5.57682 19.7551 5.44389C19.5633 5.37552 19.4061 5.30336 19.4061 5.28437C19.4061 5.24259 19.3754 5.24638 20.1155 5.2122C20.453 5.20081 20.7483 5.18562 20.7674 5.18182C20.7905 5.17802 21.1624 5.19321 21.5958 5.2122Z"/>
</mask>
<path d="M22.3205 0.00115585C21.9217 0.122696 20.7943 0.570877 20.3456 0.783573C20.0312 0.935497 19.7282 1.07223 19.6745 1.08363C19.5096 1.1254 19.222 1.33051 19.1032 1.49382C18.7695 1.9496 18.689 2.66745 18.8539 3.69295C18.8807 3.86766 18.8999 4.01579 18.8961 4.01958C18.8922 4.02338 18.7005 3.97781 18.4666 3.91324C17.9259 3.76891 17.1973 3.72713 16.8713 3.81828C16.4763 3.93223 16.2347 4.22849 16.1887 4.64248L16.1657 4.85138L15.9855 4.84378C15.7477 4.83619 15.5867 4.75263 15.2952 4.49055C14.9693 4.1867 14.9002 4.16771 14.6433 4.28925C14.4055 4.4032 13.6616 5.13244 13.1823 5.70976C12.8064 6.16553 12.8026 6.16553 11.5333 6.29087C11.0846 6.33645 10.9351 6.36684 10.8085 6.4352C10.4711 6.61751 10.3867 6.90237 10.4941 7.51007C10.5286 7.71897 10.5593 7.92027 10.5631 7.95826C10.5669 8.01143 10.4826 8.0608 10.2218 8.17095C9.09821 8.64192 8.45013 9.0977 8.23921 9.56866C8.13184 9.81174 8.15485 10.1992 8.30057 10.5106C8.35426 10.6321 8.39644 10.7347 8.39261 10.7385C8.38494 10.7423 8.20087 10.8372 7.97845 10.9436C7.21916 11.3196 6.67846 11.7412 6.49055 12.1096C6.3525 12.3831 6.2528 13.0136 6.2528 13.6251C6.2528 13.8112 6.24129 14.0543 6.22979 14.1606L6.20678 14.3543L5.95752 14.3619C5.64307 14.3733 5.27493 14.4835 5.07168 14.6316C4.69204 14.905 4.52331 15.3152 4.52331 15.9799C4.52331 16.6218 4.66903 17.2599 5.00649 18.0841C5.10236 18.3196 5.17906 18.5171 5.17906 18.5209C5.17906 18.5209 5.02567 18.5247 4.8416 18.5247C4.53865 18.5247 4.48496 18.5361 4.34691 18.6272C4.05163 18.8171 3.95193 19.2159 4.02095 19.8882C4.11682 20.7998 4.43128 21.5556 5.06018 22.3798L5.31711 22.7178L5.21357 23.523C5.12154 24.2257 5.11387 24.3472 5.15988 24.4915C5.22124 24.7004 5.48201 25.1714 5.84248 25.7297C6.06873 26.0754 6.1761 26.2957 6.32949 26.7173C6.59793 27.4541 6.96223 28.3429 7.12713 28.6657C7.37639 29.1595 7.44925 29.2164 7.64866 29.0607C7.70618 29.0151 7.75603 28.9847 7.7637 28.9923C7.76754 28.9999 7.82122 29.186 7.87875 29.4063C8.09349 30.2229 8.40795 30.88 8.76075 31.2598C9.04452 31.5637 9.25543 31.6624 9.65808 31.6776C9.93802 31.6928 9.97254 31.7004 9.94953 31.7574C9.89201 31.8979 9.88817 32.3499 9.94186 32.4828C10.0684 32.7753 10.4442 33.0791 10.8852 33.2425C11.0386 33.2994 12.8486 33.6602 12.9828 33.6602C12.9905 33.6602 12.9713 33.721 12.9407 33.7932C12.7029 34.3591 13.2206 35.3656 14.4094 36.6418C15.0651 37.3482 15.6173 37.842 16.0737 38.1307C16.2923 38.2674 16.4917 38.3889 16.5185 38.3965C16.6451 38.4459 16.066 37.2001 15.6135 36.4519C15.4639 36.2012 15.2684 35.8556 15.184 35.6885C15.0536 35.4302 15.0344 35.3656 15.069 35.301C15.1188 35.2099 15.2914 35.1567 15.6365 35.1301L15.8743 35.1111L16.1082 35.5441C16.3958 36.0873 16.7831 36.7102 17.0285 37.0406C17.4465 37.5989 17.9527 37.9559 19.1185 38.5219C20.1385 39.0194 20.9055 39.3195 20.9017 39.2169C20.8978 39.1865 20.5987 38.97 19.7934 38.4117C18.9689 37.8458 18.4627 37.3444 18.3745 37.0102C18.3247 36.8355 18.2327 36.262 18.202 35.9657C18.1828 35.791 18.1905 35.7492 18.2365 35.7492C18.3669 35.7492 19.1453 36.0341 19.4905 36.2126C19.7627 36.3493 19.9161 36.4557 20.0503 36.6C20.2191 36.7823 20.2421 36.8355 20.3341 37.2001C20.5642 38.1231 21.009 38.6624 21.684 38.8447C21.9601 38.9207 22.4471 38.9093 22.8574 38.8219C22.9763 38.7953 23.2102 38.7877 23.4134 38.7991C24.0462 38.8333 24.6789 39.0992 25.3538 39.6043C25.7872 39.931 25.8639 39.969 25.8984 39.8778C25.9367 39.7753 25.8064 39.5777 25.4804 39.2435C25.1161 38.8713 24.7786 38.6282 24.3798 38.4497C24.0385 38.2978 23.3444 38.0813 23.0952 38.0471C22.9111 38.0243 22.8689 37.9977 22.612 37.7508C22.3589 37.504 22.1441 37.2001 21.9102 36.7633C21.8067 36.5772 21.7453 36.2772 21.7453 35.9885V35.7834L22.3474 36.3873C23.494 37.5306 24.0462 37.8306 25.235 37.9521C26.4314 38.0737 26.7535 38.218 27.6701 39.0384C28.2683 39.5739 28.6441 39.8246 29.0046 39.931C29.5223 40.0905 29.8942 39.9879 30.6957 39.4714C31.5739 38.9093 31.7234 38.8713 32.3523 39.046C32.9812 39.2207 33.2267 39.2549 33.6063 39.2283C34.1163 39.1903 34.6264 39.046 35.1479 38.7915C35.8458 38.4535 36.1986 38.1572 36.0644 38.0281C36.0222 37.9863 35.052 38.0699 34.17 38.1914C33.2305 38.3168 33.1576 38.3092 32.3868 38.0433L31.7349 37.8192L31.2939 37.823C30.7379 37.8268 30.3966 37.9142 29.806 38.199C29.3842 38.4003 29.365 38.4041 29.1925 38.3661C28.8243 38.2864 28.4984 38.0433 28.1839 37.6217C27.8273 37.1469 27.5512 36.9266 27.2214 36.8545C26.6078 36.7178 25.9751 36.281 25.373 35.5859C25.2695 35.4644 25.1928 35.3618 25.2043 35.3504C25.2235 35.3276 26.7152 35.5935 27.9845 35.8442C28.9317 36.0303 29.1081 36.0797 29.8712 36.3531C30.8222 36.695 31.1482 36.7747 31.616 36.7747C31.9995 36.7747 32.337 36.6798 32.9736 36.3987C33.4184 36.1974 33.7827 36.0759 34.0588 36.0379C34.2122 36.0151 34.3272 36.0455 34.9983 36.2772C36.003 36.6228 36.2676 36.7215 37.1918 37.0862L37.9741 37.3976L38.2464 37.352C38.5723 37.2951 39.949 36.8469 40.4552 36.6304C40.8234 36.4709 41.0228 36.3303 40.9652 36.2734C40.8924 36.2012 38.952 35.9429 37.9396 35.8708L37.5139 35.8366L36.8659 35.4568C35.5199 34.6592 35.2399 34.5262 34.7606 34.4579C34.3502 34.3971 33.9553 34.4655 33.0924 34.7427C31.9075 35.1263 31.7119 35.1453 31.1866 34.9288C30.6765 34.7199 28.9394 33.9565 28.9049 33.9261C28.8435 33.8729 32.1031 33.3792 32.8508 33.3298C33.2918 33.3032 33.4913 33.345 34.055 33.6033C34.5228 33.8198 34.8449 33.9261 35.0213 33.9261C35.1786 33.9261 35.5314 33.797 36.2408 33.4779C37.3605 32.9766 37.6367 32.95 38.6414 33.2387C39.416 33.4627 39.88 33.6223 40.2635 33.797C40.6738 33.9831 40.7888 33.9755 41.4906 33.6792C41.9124 33.5007 42.3381 33.5463 43.1127 33.8502L43.4809 33.9983L43.7263 33.9451C44.2593 33.835 45.6207 33.307 45.8316 33.1323C45.9044 33.0715 45.9505 33.0108 45.939 32.9994C45.8814 32.9424 44.5009 32.7677 43.6419 32.7107C43.2278 32.6803 42.9172 32.6386 42.7484 32.5892C42.4378 32.498 42.2652 32.5094 41.8204 32.6537C41.6517 32.7069 41.4024 32.7601 41.2644 32.7715L41.0151 32.7905L40.4169 32.4904C40.0871 32.3271 39.6691 32.0954 39.4812 31.9739C38.883 31.5865 38.3921 31.5827 36.9541 31.9511C36.4057 32.0916 35.8343 32.1524 35.4853 32.1068C35.0942 32.0574 33.5641 31.4991 32.8815 31.1611L32.5824 31.0129L33.4644 30.9864C35.3013 30.9332 37.3184 30.8192 37.6788 30.7509C37.744 30.7395 38.0546 30.6559 38.3691 30.5648C39.113 30.3521 39.3853 30.3065 39.8378 30.3255C40.3018 30.3445 40.5511 30.4508 41.0534 30.842C41.7169 31.3624 42.0352 31.4649 43.0284 31.4725C43.5039 31.4725 43.6688 31.4611 43.8643 31.4042C44.198 31.3054 44.5239 31.0889 44.662 30.8762C44.7578 30.7243 44.8039 30.6901 44.9841 30.6369C45.3254 30.5344 46.4758 30.2571 46.7788 30.2039C46.9667 30.1698 47.0549 30.1356 47.0549 30.1014C47.0549 29.9229 45.3331 29.4899 44.8 29.5317C44.5891 29.5469 44.4626 29.5962 43.8989 29.8735C42.9977 30.3179 43.0015 30.3179 42.6295 30.166C42.4646 30.0976 42.1464 29.9305 41.9239 29.7937C41.1301 29.3114 41.0113 29.2506 40.7275 29.1633C40.1408 28.9771 39.7074 28.9961 38.8369 29.2392C38.116 29.4405 37.7862 29.4709 37.3069 29.3911C36.1833 29.1974 35.6464 28.9278 35.4738 28.4682C35.3856 28.2365 35.2974 27.4655 35.3473 27.3819C35.3703 27.3401 35.4815 27.3857 35.8381 27.587C36.9656 28.2289 37.9971 28.5328 38.6452 28.4188C38.9942 28.3581 39.4122 28.1947 39.8455 27.9441C40.877 27.3477 41.3334 27.2034 41.9354 27.287C42.2844 27.3364 42.549 27.4427 43.0092 27.7352C43.6879 28.1605 44.1366 28.3163 44.4741 28.2289C44.7694 28.1567 44.9381 28.0466 45.2755 27.7124C45.6437 27.3515 45.8661 27.1882 46.1 27.1085C46.3454 27.0211 46.798 27.0363 47.2313 27.1464C47.7221 27.2718 47.8525 27.2642 48.2322 27.1161C48.7729 26.8958 49.1218 26.6527 49.0221 26.5577C48.9761 26.5122 48.1401 26.2729 47.7068 26.1779C47.5074 26.1361 47.2505 26.0564 47.1354 26.0032C46.9628 25.9196 46.8862 25.9083 46.6944 25.9196C46.426 25.9348 46.0272 26.1058 45.6398 26.364C45.5133 26.4514 45.2909 26.5767 45.149 26.6489C44.4472 26.9983 44.0331 26.93 43.2201 26.326C42.6832 25.9272 42.4646 25.8285 42.0773 25.8057C41.667 25.7829 41.4062 25.8361 40.7083 26.0906C40.0027 26.345 38.4036 26.7476 38.0853 26.7476C37.4833 26.7476 36.9694 26.3716 36.5744 25.6462C36.421 25.3613 36.2216 24.8524 36.2523 24.822C36.2638 24.8106 36.4594 24.8486 36.6895 24.9017C37.4603 25.0803 37.7939 25.122 38.3499 25.1068C38.9942 25.0879 39.2703 25.0005 40.229 24.5257C41.0841 24.1003 41.4753 23.9712 41.9585 23.9446C42.3036 23.9294 42.3611 23.937 42.9938 24.1079C44.0522 24.3966 44.152 24.389 45.0263 23.9902C45.2679 23.8762 45.5555 23.7699 45.659 23.7509C46.0042 23.6863 46.3071 23.8003 46.844 24.1915C47.2543 24.4877 47.3272 24.5333 47.5419 24.6169C47.9369 24.7688 47.9177 24.7726 48.4124 24.3548C48.654 24.1459 49.0068 23.8307 49.1909 23.656C49.5973 23.2685 49.5782 23.2344 49.0145 23.3635C48.8112 23.4129 48.5198 23.4698 48.3625 23.4926C48.0481 23.542 48.1133 23.5648 47.4767 23.1812C46.844 22.8014 45.9428 22.5317 45.3216 22.5317C44.9918 22.5317 44.7387 22.5887 44.1174 22.7938C43.6151 22.9609 43.1357 23.0369 42.8826 22.9913C42.6679 22.9495 41.9316 22.5849 41.529 22.319L41.2068 22.1063L40.9001 22.1215C40.5281 22.1443 40.2175 22.262 39.6653 22.6001C38.6145 23.2382 38.208 23.2875 37.7785 22.8242C37.4794 22.5013 37.0691 21.9658 37.0998 21.9354C37.1036 21.9278 37.3836 21.905 37.721 21.886C39.1552 21.7949 40.2788 21.567 40.8425 21.2517C40.9384 21.1986 41.1608 21.0618 41.3411 20.9517C41.7821 20.6782 42.0927 20.5605 42.4877 20.5149C42.9785 20.4579 43.2469 20.5225 44.0638 20.9137C44.777 21.2555 45.08 21.3543 45.4174 21.3543C45.6974 21.3543 46.2457 21.2138 46.7864 21.0011C47.3463 20.7808 47.7912 20.6554 48.2053 20.5947C48.5504 20.5491 48.9147 20.5795 50.5982 20.7884C50.9318 20.8301 51.2156 20.8529 51.2271 20.8415C51.2386 20.8339 51.2271 20.7808 51.2041 20.7314C51.1159 20.5377 49.9195 19.873 49.2791 19.6603C48.7 19.4704 48.4738 19.5046 46.6331 20.0743C46.426 20.1389 46.2726 20.1503 45.7511 20.1541C45.1298 20.1541 45.1145 20.1541 44.7962 20.0363C44.6198 19.968 44.3053 19.8198 44.0983 19.7059C43.7033 19.4856 43.3697 19.3337 43.0475 19.2311C42.8021 19.1552 42.0236 19.1514 39.462 19.2235C38.4189 19.2501 37.5024 19.2691 37.4296 19.2615C37.3069 19.2463 37.3299 19.2311 37.7364 19.0602C39.2933 18.4031 39.8186 18.1601 40.2481 17.8904C40.9767 17.4384 41.157 17.3624 41.5213 17.3624C41.8472 17.3624 42.1885 17.4878 42.8059 17.8296C43.4617 18.1866 43.5039 18.2094 44.0062 18.3462C44.6351 18.5209 45.195 18.6272 45.5401 18.6348C45.8354 18.6386 45.8623 18.631 46.2649 18.4373C46.495 18.3272 46.7634 18.1904 46.8593 18.1297C46.9552 18.0727 47.1277 17.9929 47.2428 17.955C47.4537 17.8866 47.5611 17.8866 48.6885 17.9587C49.3366 18.0005 49.7546 17.8904 50 17.6169C50.1496 17.446 50.1841 17.3359 50.1112 17.2637C50.0805 17.2295 49.8696 17.1573 49.6434 17.0966C49.0681 16.9408 48.7115 16.7965 48.2053 16.5117C47.6148 16.1812 47.5611 16.1812 46.9513 16.5003L46.4988 16.7358L46.0003 16.7813C45.2755 16.8535 44.1366 16.8497 43.8528 16.7775C43.5269 16.694 43.1511 16.5079 42.6641 16.1888C42.1272 15.8356 41.7974 15.6723 41.4676 15.5963C40.9691 15.4824 40.6661 15.5735 39.9644 16.0521C39.7381 16.2078 39.4658 16.3711 39.3623 16.4091C38.9405 16.5724 38.3154 16.5382 37.6903 16.318C37.3337 16.1888 36.7201 15.9078 36.6856 15.8546C36.6434 15.7824 36.7777 15.2317 36.8965 14.9848C37.0193 14.7303 37.165 14.6012 37.3721 14.5556C37.5791 14.51 38.8101 14.7227 39.0517 14.8481C39.2089 14.9278 39.6806 14.8975 40.3824 14.7607C41.0113 14.643 41.552 14.6278 41.9163 14.7227C42.0543 14.7569 42.434 14.9126 42.7599 15.0684C43.4655 15.4026 43.5614 15.4292 43.9909 15.4292C44.4357 15.4292 44.7924 15.357 45.6974 15.0836C46.6177 14.8063 46.7098 14.7987 47.3233 14.9886C49.0873 15.5355 49.3404 15.5925 49.513 15.5052C49.7085 15.4026 49.7047 15.357 49.4861 15.1253C49.1755 14.7987 48.4239 14.267 47.91 14.0125C47.1507 13.6365 46.7251 13.6099 45.7127 13.872C44.6773 14.1416 44.336 14.115 43.3428 13.6669C42.7638 13.4048 42.5567 13.3402 42.1962 13.306C41.8012 13.2681 41.529 13.3098 40.9384 13.5035C40.4859 13.6479 40.4015 13.6631 40.0564 13.6631C39.5732 13.6631 39.4352 13.5985 39.0594 13.1959C38.5263 12.6262 38.3806 12.497 38.1659 12.3983C37.9664 12.3071 37.9051 12.2957 37.5254 12.2995C37.0499 12.3033 36.7086 12.3869 36.0836 12.6528C35.888 12.7363 35.7193 12.8009 35.7154 12.7933C35.6848 12.7629 36.3865 12.0944 36.6434 11.9007C37.1535 11.5209 37.6865 11.331 38.116 11.3842C38.2349 11.3994 38.6337 11.5095 39.0018 11.6349C39.37 11.7564 39.8148 11.8779 39.9835 11.9045C40.2865 11.9463 40.3133 11.9463 40.7697 11.8248C41.0304 11.7564 41.5788 11.5931 41.9853 11.4563C42.6295 11.2436 42.7599 11.2133 43.013 11.2133C43.5384 11.2133 44.1903 11.3956 44.9496 11.7488C45.3676 11.9463 45.3752 11.9501 45.5516 11.9045C45.7971 11.84 46.6944 11.3956 47.3348 11.0196C48.1171 10.5562 48.3395 10.3397 48.0366 10.3397C47.772 10.3397 46.6637 10.4992 46.1269 10.6132C45.8278 10.6739 45.5248 10.7347 45.4558 10.7461C45.3714 10.7613 45.1528 10.7005 44.7272 10.5524C43.5115 10.1308 43.1434 10.0358 42.7177 10.0358C42.3343 10.0358 41.9239 10.127 41.3679 10.3359C40.8694 10.5258 40.4399 10.6359 40.1139 10.6663C39.8033 10.6967 39.5234 10.6283 38.9443 10.3891C38.7142 10.2941 38.3844 10.1574 38.2119 10.089C37.7939 9.9143 37.3951 9.85732 37.0614 9.91809C36.7623 9.97127 36.5207 10.0852 36.1641 10.3435C36.0184 10.446 35.8036 10.5752 35.6848 10.6283C35.493 10.7157 35.4317 10.7271 35.2054 10.7081C34.8871 10.6815 34.45 10.5182 34.0166 10.2637C33.4798 9.94468 33.4836 9.97127 33.9476 9.7054C34.8258 9.19645 35.6042 8.86981 36.329 8.70649C36.8122 8.59634 37.2992 8.61533 37.9281 8.76726C38.2924 8.85461 38.4535 8.87361 38.8676 8.8774C39.3355 8.8774 39.3776 8.86981 39.5847 8.77106C39.7036 8.71408 39.9759 8.53937 40.1906 8.38365C40.8809 7.88229 41.2107 7.78734 41.9469 7.8633C42.457 7.91268 42.8213 8.04181 43.2508 8.31148C43.6189 8.54317 43.7953 8.58115 44.3322 8.54317C45.2142 8.4786 46.6906 7.92787 46.6906 7.662C46.6906 7.55945 46.564 7.53666 45.5977 7.47589C44.3207 7.39233 44.0791 7.32776 43.5154 6.92896C43.1051 6.6365 42.9095 6.52636 42.6065 6.4276C42.3803 6.35164 42.3113 6.34405 41.8204 6.36684C40.831 6.41241 40.6086 6.47698 39.9375 6.94415C39.0977 7.52147 38.5685 7.60503 37.7018 7.29738C36.5246 6.87579 36.329 6.87199 35.1671 7.24421C34.8181 7.35815 34.4116 7.4683 34.2659 7.49488C33.7865 7.57464 32.7396 7.50248 31.7733 7.31637C31.4281 7.2518 30.3237 6.99353 30.3007 6.97454C30.293 6.96694 30.4158 6.81122 30.5692 6.63271C31.0945 6.01741 31.57 5.70216 32.245 5.52745C32.5632 5.44389 32.7013 5.4287 33.2305 5.4249C33.9361 5.4211 34.0396 5.44389 34.8411 5.80851C36.1833 6.41621 36.6549 6.38583 37.8207 5.6262C38.6874 5.06408 39.1552 4.93114 39.7458 5.08307C40.0794 5.17042 40.6201 5.14004 40.9844 5.0147C41.3526 4.88556 41.7322 4.62729 42.062 4.28546C42.4416 3.88665 42.5912 3.5752 42.4263 3.51443C42.3918 3.49924 42.062 3.52962 41.69 3.5752C40.6316 3.71194 40.2827 3.71953 39.7381 3.61699L39.2779 3.52962L39.0594 3.63218C38.9098 3.70434 38.6836 3.89045 38.3499 4.20949C38.0585 4.48296 37.7747 4.71844 37.6635 4.77542C37.234 4.98811 36.5092 5.05648 35.934 4.93114C35.7768 4.89696 35.2169 4.72604 34.6877 4.54753C32.7281 3.88665 32.3638 3.88285 30.5653 4.47536C29.1771 4.93494 29.0352 4.96532 28.1494 4.96152C27.3326 4.96152 26.8341 4.91975 25.699 4.76782L24.9589 4.66907L24.7326 4.50195C24.3185 4.1905 24.0462 3.82208 24.0462 3.56381C24.0462 3.36251 24.1382 3.35871 24.9627 3.50684C25.5379 3.60939 25.768 3.63597 26.1553 3.63218C26.6002 3.63218 26.6615 3.62078 27.0373 3.49544C27.2597 3.41948 27.7583 3.21818 28.1494 3.04726C28.5406 2.87635 29.0391 2.67505 29.2615 2.59908C29.6641 2.46615 29.6641 2.46615 29.9863 2.51173C30.4273 2.57249 30.922 2.73582 31.6506 3.06245C32.7243 3.54102 33.1116 3.63977 33.8556 3.60559C34.2889 3.5866 34.4806 3.55241 35.5697 3.29794C37.8514 2.7624 38.7564 2.46995 38.3806 2.38259C38.1812 2.34081 36.5437 2.1699 35.7423 2.11292L34.8794 2.05215L34.3234 1.83186C32.9007 1.26973 31.8346 1.00766 30.573 0.912708C29.9364 0.863335 29.2462 0.905113 28.7668 1.01526C28.4639 1.08743 28.0152 1.29252 27.4055 1.64195C26.8801 1.94201 26.5733 2.07114 26.1592 2.17749C25.5954 2.32182 25.2273 2.24965 24.3338 1.81287C23.7778 1.5432 23.5208 1.44825 23.2447 1.39887C23.1258 1.37608 23.099 1.39507 22.8651 1.63056C22.6158 1.88883 21.9025 2.70923 21.2851 3.45366C20.9745 3.82968 20.9592 3.84107 20.8902 3.7765C20.5604 3.49165 20.5527 2.53072 20.871 1.93821C21.1087 1.49762 21.6916 1.05704 22.3129 0.85194C22.5775 0.764584 22.6695 0.753189 23.1834 0.753189C23.6627 0.74939 23.8161 0.764584 24.0999 0.836746C24.8208 1.02286 25.4152 1.01906 25.8255 0.825352C26.0173 0.734196 26.1476 0.635445 26.1131 0.601261C26.1055 0.593666 25.7948 0.548088 25.4267 0.50251C24.6444 0.407558 23.3598 0.198662 22.7807 0.0733223C22.5583 0.0239449 22.3512 -0.00643921 22.3205 0.00115585ZM21.5958 5.2122C24.9205 5.36792 27.6317 6.35544 30.1205 8.32667C32.4904 10.1992 34.2467 12.6565 35.1057 15.3001C36.0069 18.0841 36.0491 21.3581 35.2207 24.1915C34.5305 26.5501 33.2113 28.6809 31.2901 30.5268C29.7332 32.0195 28.0612 33.0867 26.1707 33.7856C23.4863 34.7807 20.2191 34.9554 17.343 34.2642C16.2041 33.9869 14.8657 33.4817 13.93 32.969L13.6386 32.8133L13.8073 32.6651C14.0451 32.4524 14.4669 32.2587 14.8235 32.198C15.3911 32.0992 16.6451 32.1448 18.0409 32.3119C18.4627 32.3651 18.827 32.4069 18.8577 32.4069C18.9766 32.4069 18.8884 32.3347 18.5778 32.1828C17.8147 31.8068 16.9327 31.5523 15.7861 31.3814C14.9846 31.2636 14.233 31.2256 12.7221 31.2332L11.3492 31.2408L11.215 31.1117C11.1076 31.0091 11.0846 30.9636 11.1038 30.8876C11.169 30.6331 11.4566 30.485 12.0203 30.4242C12.3386 30.3863 12.469 30.3901 12.6646 30.428C13.2628 30.5534 13.3893 30.5344 13.7843 30.2799C14.5743 29.7672 14.743 29.7596 16.089 30.1356C16.81 30.3369 17.6383 30.5078 17.6651 30.4622C17.692 30.4204 16.81 29.5469 16.2232 29.0303C15.7285 28.5973 15.2952 28.3049 15.1495 28.3049C14.9654 28.3049 14.3442 28.4796 13.815 28.6809C12.9982 28.9885 12.6224 29.0569 12.2734 28.9506C12.1162 28.905 11.8017 28.8556 10.0492 28.6239C8.87195 28.4682 8.76075 28.4492 8.69939 28.3694C8.66104 28.3239 8.63036 28.2555 8.63036 28.2175C8.63036 28.0504 9.38581 27.4199 9.65041 27.3705C9.75395 27.3515 9.81915 27.3743 10.007 27.4883C10.2947 27.6592 10.751 27.8263 11.1076 27.8871C11.5601 27.9668 12.3616 27.9175 13.1746 27.7617C13.5542 27.6896 13.9645 27.6174 14.0873 27.6022C14.233 27.587 14.3058 27.5604 14.2943 27.5339C14.2675 27.4541 13.884 27.211 13.5926 27.0895C13.2014 26.93 12.6262 26.8008 11.9513 26.7249L11.3799 26.6603L11.0885 26.4514C10.9274 26.3374 10.6398 26.1209 10.4442 25.9652C9.83448 25.4791 9.53154 25.3157 9.12888 25.2474C9.03301 25.2322 8.80676 25.2778 8.34275 25.4031C7.20766 25.7107 7.24217 25.7032 7.16548 25.6082C7.12713 25.5626 7.09645 25.4867 7.09645 25.4373C7.09645 25.2892 7.30353 25.0537 7.54512 24.9397C7.7522 24.8372 7.79821 24.8296 8.20854 24.8334C8.45396 24.8372 8.987 24.8828 9.41649 24.9435C10.7855 25.1296 11.3646 25.0879 12.4383 24.7346C13.2283 24.4726 14.4746 23.8421 14.4516 23.7167C14.4247 23.5838 14.0221 23.5838 12.9982 23.7281C12.3539 23.8155 11.33 23.8687 11.0156 23.8269C10.6858 23.7851 10.333 23.6294 9.97637 23.3711C9.30145 22.8811 9.24776 22.8697 7.71001 22.847C7.02359 22.8394 6.4292 22.8242 6.38701 22.8166C6.34483 22.809 6.29115 22.7482 6.2643 22.6836C6.22595 22.5811 6.22979 22.5621 6.31415 22.4975C6.41769 22.4178 6.75132 22.3304 7.19232 22.2658C7.81355 22.1785 7.92476 22.1557 8.13184 22.0797C8.24688 22.0379 8.48081 21.9164 8.64954 21.8101C9.03685 21.567 9.31295 21.4644 9.63508 21.4378C9.9687 21.4151 10.2333 21.4682 11.0079 21.7189C11.9935 22.0342 12.2504 22.0873 12.8294 22.0835C13.5734 22.0835 14.1563 21.943 14.8811 21.5898C15.3336 21.3657 15.648 21.0884 15.648 20.9061C15.648 20.8377 15.6288 20.7846 15.602 20.7846C15.5752 20.7846 15.3374 20.8681 15.0728 20.9745C14.3365 21.2593 13.769 21.3353 13.2129 21.2213C12.91 21.1606 12.1469 20.796 11.2188 20.2718C10.1183 19.6527 9.76162 19.5806 8.8106 19.7932C8.105 19.9528 7.78671 19.9528 7.31503 19.797C6.44454 19.5084 6.06489 19.1438 6.06106 18.6044C6.06106 18.3803 6.06489 18.3765 6.2643 18.1828C6.37935 18.0727 6.59026 17.9284 6.73598 17.8562C6.96223 17.7461 7.0466 17.7271 7.33421 17.7157C7.64099 17.7005 7.69084 17.7119 7.91326 17.8144C8.04748 17.8752 8.3696 18.0689 8.63036 18.2398C9.30912 18.6918 9.40882 18.726 10.0607 18.7716C11.4106 18.8627 12.1469 18.7791 11.9628 18.5589C11.8439 18.4145 11.3109 18.1145 10.31 17.6207C9.12121 17.0396 9.06369 16.994 8.83361 16.4965C8.30057 15.3456 8.2047 15.2431 7.40707 15.0152C7.18848 14.9544 6.99291 14.8861 6.97374 14.8671C6.91238 14.8063 6.97757 14.6012 7.08495 14.5214C7.223 14.4113 7.81355 14.1948 9.45484 13.6441C11.0578 13.1085 11.656 12.8882 12.074 12.6793C12.7566 12.3375 13.1286 12.3451 14.6893 12.7135C15.5905 12.9262 16.0507 12.987 16.3459 12.9262C16.5684 12.8806 16.8982 12.6945 17.2203 12.4287C17.481 12.2198 17.853 11.9767 18.0831 11.8741C18.3976 11.7298 19.4521 11.5703 20.4031 11.5209L20.9208 11.4943L20.7329 11.4108C20.2152 11.1753 19.3869 11.0234 18.643 11.0234C18.2327 11.0234 18.0831 11.0423 17.5692 11.1601C17.2394 11.2322 16.7716 11.3652 16.53 11.4487C16.2884 11.5323 16.0392 11.6083 15.974 11.6197C15.8436 11.6386 14.9156 11.4601 14.2675 11.2892C14.0259 11.2247 13.5159 11.0955 13.1401 11.0006L12.4498 10.8258L11.4911 10.9094C10.82 10.9626 10.3062 10.9854 9.79997 10.9778L9.07136 10.9664L9.32062 10.7157C9.51236 10.5258 9.62357 10.446 9.79997 10.3777C10.1068 10.2675 10.6244 10.1612 11.0386 10.1308C11.4374 10.1004 12.8371 10.1612 13.8955 10.2523L14.6548 10.3169L15.046 10.2295C15.8551 10.051 17.6421 9.41674 17.6421 9.30659C17.6421 9.26481 17.4657 9.2876 16.6987 9.43193C15.997 9.56107 15.3566 9.62943 15.115 9.59905C14.8696 9.56487 13.8457 9.26101 13.3011 9.05971C12.7796 8.86601 12.469 8.82043 11.6905 8.82043C11.3991 8.82043 11.1613 8.80904 11.1613 8.79005C11.1613 8.77485 11.2035 8.73307 11.2572 8.69509C11.3761 8.61153 11.7864 8.56975 13.0404 8.51658C14.9961 8.43682 15.2914 8.41023 16.0315 8.2735C16.4226 8.20134 16.8023 8.13297 16.879 8.12157C16.9787 8.10258 17.2011 8.14436 17.6383 8.25071C18.5241 8.471 19.3256 8.60014 19.2105 8.50139C19.1415 8.44442 18.2288 7.93167 17.8875 7.75695C17.04 7.32397 16.6642 7.24421 15.6288 7.28218C14.8235 7.30877 13.9914 7.2632 13.6884 7.17584L13.5197 7.12646L13.8265 6.94795C14.1256 6.77324 14.1409 6.76944 14.4592 6.77324C15.1457 6.77324 15.5675 6.83401 16.1082 6.99733C16.8866 7.23661 16.925 7.23661 17.9872 6.96694C19.0571 6.69347 19.3831 6.6403 19.6937 6.66689C20.012 6.70107 20.9438 6.94035 21.2008 7.0543C21.4462 7.16444 21.5267 7.13786 21.4232 6.97834C21.3312 6.8378 20.779 6.4428 20.4377 6.27188C20.2728 6.19212 20.0273 6.09717 19.8893 6.06298C19.6554 6.00601 19.5978 6.00601 19.0725 6.06298C18.758 6.10096 18.34 6.15794 18.1406 6.19592C17.8415 6.25289 17.7035 6.26049 17.366 6.2339C16.7026 6.18073 16.0698 6.0364 16.1504 5.95284C16.1619 5.94144 16.3076 5.89967 16.4725 5.85788C16.7524 5.78572 16.8982 5.78192 18.4896 5.78192C19.7512 5.78192 20.2152 5.77053 20.2344 5.73634C20.2766 5.66798 20.1309 5.57682 19.7551 5.44389C19.5633 5.37552 19.4061 5.30336 19.4061 5.28437C19.4061 5.24259 19.3754 5.24638 20.1155 5.2122C20.453 5.20081 20.7483 5.18562 20.7674 5.18182C20.7905 5.17802 21.1624 5.19321 21.5958 5.2122Z" fill="#B5972C" fill-opacity="0.7" stroke="black" stroke-width="0.4" mask="url(#path-1-inside-1_104_28)"/>
<path d="M13.8921 14.1231L13.8925 14.1231C14.1123 14.0959 14.3932 14.1019 14.6648 14.135C14.9371 14.1681 15.1905 14.2272 15.3579 14.3012C15.4427 14.3399 15.8113 14.5591 16.173 14.7916C16.6365 15.09 17.0244 15.3053 17.4632 15.5014C18.3705 15.9088 18.7671 16.1061 18.9802 16.2552C19.1918 16.4068 19.4374 16.604 19.638 16.7792C19.7384 16.8669 19.8266 16.9482 19.8931 17.0149C19.9264 17.0483 19.9535 17.0773 19.9737 17.101C19.9953 17.1262 20.0046 17.1405 20.0071 17.1454L20.0073 17.1457C20.2075 17.5386 20.3224 18.172 20.38 19.3194C20.3992 19.7533 20.4454 20.2785 20.481 20.4862L20.481 20.4863C20.5309 20.7751 20.5344 20.9441 20.4963 21.0574C20.4619 21.1597 20.388 21.2308 20.2272 21.3052C20.0487 21.3868 19.8875 21.3741 19.7747 21.3068C19.6629 21.2401 19.5828 21.1108 19.5828 20.925C19.5828 20.8202 19.626 20.6457 19.7331 20.3729L19.7332 20.3726C19.8043 20.19 19.8472 20.0695 19.8745 19.9412C19.9017 19.8133 19.9125 19.681 19.924 19.4762M13.8921 14.1231L18.2404 16.4129C18.7581 16.7965 19.4867 17.6131 19.7206 18.065L19.8092 18.0186C19.8092 18.0187 19.8092 18.0188 19.8093 18.0189C19.8418 18.081 19.8658 18.1645 19.884 18.2587C19.9025 18.3546 19.9162 18.4681 19.9253 18.5939C19.9434 18.8455 19.9433 19.1519 19.924 19.4762M13.8921 14.1231C13.1837 14.2081 12.3023 14.5798 11.6156 15.0843M13.8921 14.1231L11.6156 15.0843M19.924 19.4762C19.924 19.4761 19.924 19.476 19.924 19.476L19.8241 19.4704L19.9239 19.4763C19.924 19.4763 19.924 19.4762 19.924 19.4762ZM11.6156 15.0843C11.2901 15.3252 11.1281 15.5102 11.0188 15.7547M11.6156 15.0843L11.0188 15.7547M11.0188 15.7547C10.9638 15.8787 10.9546 15.945 10.9612 15.9775C10.9636 15.9892 10.9678 15.9955 10.9747 16.0013C10.9834 16.0087 11.001 16.0186 11.0346 16.0268C11.0721 16.0352 11.1302 16.0321 11.2147 16.0045C11.2986 15.977 11.4005 15.9281 11.5209 15.8553C11.7617 15.7099 12.0652 15.4761 12.4295 15.153L11.0188 15.7547ZM15.213 14.9683C15.3911 15.1146 15.657 15.314 15.8041 15.4149L12.4295 15.153C12.5862 15.0139 12.8238 14.866 13.0664 14.744C13.3088 14.622 13.5659 14.5209 13.7641 14.4804C14.0142 14.4281 14.2369 14.4323 14.4705 14.5122C14.7009 14.591 14.9351 14.7412 15.2128 14.9681L15.213 14.9683Z" fill="#8C710F" fill-opacity="0.7" stroke="black" stroke-width="0.2"/>
<path d="M22.474 16.7319L22.635 16.3863L23.0415 16.1584C24.0194 15.6153 24.6675 15.3494 25.4843 15.1595C25.9521 15.0532 26.2896 14.9468 26.6731 14.7873C27.2713 14.5366 27.6279 14.4227 28.0421 14.3429L22.474 16.7319ZM22.474 16.7319C22.3819 16.9219 22.2669 17.1953 22.217 17.3397L22.474 16.7319ZM23.9612 16.332C23.8017 16.4152 23.6251 16.5473 23.4696 16.6895C23.3145 16.8315 23.1736 16.9899 23.0901 17.1285L23.0901 17.1285C22.9352 17.3855 22.8688 17.7081 22.7735 18.4936L22.7734 18.4944C22.7189 18.9727 22.7115 19.3057 22.7344 20.7745C22.7402 21.2471 22.7431 21.6824 22.7431 22.0038C22.7431 22.1645 22.7423 22.2964 22.7409 22.39C22.7402 22.4369 22.7393 22.4736 22.7383 22.4993C22.7382 22.5015 22.7381 22.5036 22.738 22.5057C22.7289 22.5023 22.7122 22.4933 22.6881 22.47C22.6533 22.4364 22.6135 22.3829 22.5716 22.3087C22.4879 22.1608 22.4044 21.9464 22.3367 21.6896L22.3367 21.6896C22.2526 21.3708 22.248 21.3339 22.2365 19.4888C22.2365 19.4888 22.2365 19.4888 22.2365 19.4888L22.2251 17.6185L22.3114 17.3728L22.3116 17.3723C22.3598 17.2326 22.4732 16.9629 22.564 16.7756L22.5646 16.7742L22.5646 16.7742L22.7121 16.4578L23.0901 16.2459C23.0901 16.2458 23.0902 16.2458 23.0903 16.2457C24.0624 15.7058 24.7016 15.4442 25.5067 15.257C25.9793 15.1495 26.3222 15.0416 26.7115 14.8796L26.7117 14.8795C27.3059 14.6305 27.6556 14.5192 28.0604 14.4412C28.2398 14.409 28.5674 14.3973 28.8943 14.4054C29.2231 14.4135 29.5319 14.4411 29.6758 14.4811L29.7025 14.3847M23.9612 16.332C23.9611 16.3321 23.9609 16.3322 23.9608 16.3323L24.0079 16.4205L23.9617 16.3318C23.9615 16.3319 23.9614 16.332 23.9612 16.332ZM23.9612 16.332C24.1426 16.2353 24.5798 16.0847 25.0644 15.9392C25.5531 15.7925 26.1026 15.6473 26.5149 15.5629M26.5149 15.5629C26.7263 15.5195 26.8565 15.4859 26.9852 15.4319C27.1148 15.3776 27.2467 15.3009 27.4591 15.1663C27.7562 14.976 28.0023 14.8529 28.2403 14.7912C28.4808 14.7288 28.7072 14.7305 28.9624 14.7803L28.9624 14.7803L28.9633 14.7805C29.3311 14.8557 29.8382 15.0821 30.1972 15.3398M26.5149 15.5629L26.535 15.6609L26.515 15.5629C26.5149 15.5629 26.5149 15.5629 26.5149 15.5629ZM30.1972 15.3398C30.1969 15.3396 30.1966 15.3394 30.1964 15.3392L30.1397 15.4216L30.198 15.3404C30.1978 15.3402 30.1975 15.34 30.1972 15.3398ZM30.1972 15.3398C30.3426 15.44 30.6613 15.7177 30.9095 15.9485L30.9096 15.9484L30.9108 15.9496C31.1777 16.2064 31.352 16.3619 31.475 16.4491C31.6006 16.5381 31.6487 16.5382 31.6726 16.5323C31.6974 16.5262 31.7376 16.4994 31.7814 16.429C31.8236 16.3611 31.8613 16.2645 31.8864 16.1454L31.8864 16.1452C31.9146 16.0133 31.9098 15.9641 31.882 15.9184C31.8656 15.8914 31.8371 15.8596 31.7861 15.8173C31.7353 15.7751 31.6672 15.7265 31.5757 15.6641C31.5755 15.664 31.5753 15.6639 31.5751 15.6638L31.6314 15.5811M31.6314 15.5811C31.4589 15.4672 31.1291 15.2203 30.899 15.0342M31.6314 15.5811C31.9996 15.8318 32.0417 15.8964 31.9842 16.166L31.6314 15.5811ZM30.899 15.0342L30.837 15.1126C30.8368 15.1125 30.8367 15.1124 30.8365 15.1123C30.407 14.7727 30.0774 14.5942 29.6754 14.481L29.7025 14.3847M30.899 15.0342C30.4618 14.6886 30.1205 14.5024 29.7025 14.3847M30.899 15.0342L29.7025 14.3847" fill="#8C710F" fill-opacity="0.7" stroke="black" stroke-width="0.2"/>
<path d="M25.7833 18.612C25.9281 18.6484 26.0632 18.6804 26.1608 18.7025C26.1881 18.7265 26.2084 18.7473 26.22 18.7612C26.2246 18.7667 26.2263 18.7692 26.2263 18.7692C26.2263 18.7692 26.2252 18.7674 26.2238 18.7642C26.2227 18.7616 26.2204 18.756 26.2187 18.7481C26.2175 18.742 26.2156 18.7302 26.218 18.7152C26.2715 18.7269 26.3057 18.7335 26.3125 18.7335C26.3185 18.7335 26.3181 18.728 26.3125 18.7185C26.3041 18.7041 26.2837 18.6807 26.255 18.6532L25.7833 18.612ZM25.7833 18.612C25.4228 18.5208 25.2043 18.4905 24.9512 18.4867L25.7833 18.612ZM26.5762 17.0224C26.6141 17.0037 26.6482 16.9837 26.6738 16.9665C26.6865 16.9581 26.6988 16.9492 26.7089 16.9407C26.7136 16.9367 26.7203 16.9308 26.7266 16.9235C26.7297 16.92 26.7348 16.9138 26.7396 16.9056C26.7431 16.8995 26.7538 16.8804 26.7538 16.8535C26.7538 16.8101 26.728 16.784 26.7166 16.7745C26.7044 16.7644 26.6924 16.7591 26.6866 16.7567C26.6742 16.7517 26.6618 16.749 26.6538 16.7475C26.6361 16.7441 26.6142 16.7417 26.5915 16.74C26.5449 16.7364 26.4828 16.7345 26.416 16.7345H26.4148V16.7345C26.0931 16.7386 25.8595 16.8289 25.4828 17.0777L25.4826 17.0777C24.919 17.4512 24.5725 17.8725 24.5295 18.302L24.5294 18.3032L24.5294 18.3032L24.5141 18.4779L24.5045 18.5867H24.6137H24.9504C25.1934 18.5904 25.404 18.6192 25.7588 18.7089L25.759 18.709C25.8958 18.7433 26.024 18.7739 26.1206 18.7959C26.1689 18.8069 26.2096 18.8158 26.2397 18.8221C26.2547 18.8252 26.2677 18.8277 26.2778 18.8295L26.2787 18.8297C26.2851 18.8309 26.2999 18.8335 26.3125 18.8335C26.3249 18.8335 26.3462 18.8314 26.3681 18.8178C26.3927 18.8026 26.4076 18.7792 26.4136 18.7555C26.4228 18.7194 26.4097 18.6899 26.4068 18.6835L26.4066 18.6831C26.3978 18.6631 26.3836 18.645 26.3733 18.6328C26.35 18.6048 26.315 18.5706 26.2742 18.5362M26.5762 17.0224L26.2072 18.6104C26.208 18.6106 26.2089 18.6108 26.2098 18.611L26.2734 18.5355C26.2736 18.5357 26.2739 18.5359 26.2742 18.5362M26.5762 17.0224C26.5012 17.0614 26.3882 17.1509 26.2805 17.2552C26.1717 17.3606 26.0829 17.4671 26.0486 17.5336C25.978 17.6702 25.9639 17.8603 26.0065 18.0524C26.0489 18.2435 26.1443 18.422 26.2742 18.5362M26.5762 17.0224L26.2098 18.611L26.2749 18.5368C26.2746 18.5366 26.2744 18.5364 26.2742 18.5362M27.1887 18.3616C27.1475 18.4746 27.1151 18.5562 27.0825 18.6068C27.0656 18.633 27.0418 18.6623 27.0062 18.68C26.9664 18.6998 26.9275 18.6978 26.8967 18.6897L26.9222 18.593L26.8972 18.6898C26.8279 18.6719 26.7616 18.6214 26.7174 18.5754C26.6942 18.5513 26.6722 18.5234 26.6567 18.4944C26.6442 18.4711 26.6224 18.4226 26.6388 18.3696L26.6384 18.3695L26.6422 18.3605C26.6494 18.3432 26.6605 18.3296 26.6651 18.324C26.6717 18.316 26.6792 18.3079 26.6868 18.3C26.7021 18.2843 26.7217 18.2658 26.7434 18.2462C26.7869 18.2069 26.8425 18.1598 26.8976 18.1151C26.9526 18.0705 27.0086 18.0272 27.0528 17.9957C27.0745 17.9803 27.0956 17.9662 27.1132 17.9561C27.1214 17.9515 27.1329 17.9453 27.1455 17.9408C27.1514 17.9388 27.163 17.935 27.1777 17.9341C27.1896 17.9334 27.2264 17.9331 27.2572 17.9636L27.2572 17.9636C27.2735 17.9798 27.2803 17.9974 27.2831 18.0067C27.2861 18.0167 27.2871 18.0253 27.2875 18.0305C27.2882 18.0408 27.2873 18.0497 27.2868 18.0546C27.2855 18.0652 27.2832 18.0761 27.281 18.0852C27.2764 18.1043 27.2692 18.1286 27.2606 18.1557C27.2431 18.2104 27.2177 18.2831 27.1887 18.3616ZM27.1887 18.3616C27.1887 18.3616 27.1886 18.3617 27.1886 18.3618L27.0948 18.3271L27.1888 18.3613C27.1887 18.3614 27.1887 18.3615 27.1887 18.3616ZM26.2923 16.5712L26.292 16.5713C25.5454 16.7368 24.8358 17.216 24.4328 17.8274C24.3289 17.9873 24.2241 18.1864 24.145 18.3676C24.1055 18.4582 24.073 18.5429 24.0503 18.615C24.0269 18.6892 24.0164 18.7427 24.0157 18.7736L24.0157 18.7736L24.0157 18.7744L24.0146 18.8131L24.2654 18.8352C24.4515 18.8499 24.7795 18.85 24.9976 18.8351C25.268 18.8142 25.4417 18.8068 25.6149 18.8249C25.788 18.843 25.9566 18.8862 26.2171 18.9602L26.2173 18.9602C26.5352 19.0513 26.7438 19.1026 26.9238 19.1262C27.1013 19.1496 27.2539 19.1463 27.4596 19.1241C28.1839 19.0419 28.6448 18.9085 29.3599 18.5637L29.3605 18.5634C29.7114 18.3972 29.8543 18.3049 29.9713 18.1823C30.1957 17.9448 30.3497 17.7817 30.4532 17.6697C30.4034 17.6978 30.3508 17.7317 30.2981 17.77C30.2112 17.8331 30.1337 17.8802 30.057 17.8958C29.9701 17.9134 29.8984 17.8887 29.8322 17.8452L29.7371 17.7849L29.6337 17.7194L29.7186 17.6311L29.7947 17.5519C29.8352 17.5085 29.9089 17.4019 29.9754 17.2938C29.9779 17.2897 29.9805 17.2855 29.983 17.2814C29.8317 17.3445 29.6509 17.38 29.5019 17.3868C29.4194 17.3906 29.3387 17.386 29.2749 17.368C29.2432 17.3591 29.2084 17.345 29.1796 17.3207C29.1484 17.2943 29.1231 17.2543 29.1231 17.2029C29.1231 17.1839 29.1279 17.1674 29.1306 17.159C29.1338 17.1486 29.138 17.1381 29.1424 17.1283C29.1511 17.1085 29.1628 17.0858 29.1761 17.062C29.2018 17.016 29.2363 16.9607 29.2744 16.9056C29.1665 16.9477 29.0478 16.977 28.9435 16.991C28.8845 16.9989 28.8273 17.0023 28.7775 16.9994C28.7327 16.9968 28.6769 16.9883 28.634 16.9591C28.6047 16.9396 28.5594 16.9036 28.5531 16.8367C28.5505 16.809 28.5556 16.7833 28.5617 16.7624C28.5642 16.7538 28.5671 16.745 28.5704 16.7361C28.544 16.7403 28.5154 16.7452 28.4857 16.7505C28.3736 16.7716 28.2965 16.7831 28.1986 16.7692C28.1073 16.7563 27.9996 16.7213 27.823 16.6637L27.8227 16.6636C27.6564 16.6086 27.5545 16.5786 27.4435 16.5605C27.3318 16.5423 27.2077 16.5356 26.9971 16.5318L26.9971 16.5319L26.9954 16.5318C26.6766 16.5205 26.4488 16.536 26.2923 16.5712ZM28.829 17.29L28.8295 17.2904C29.1187 17.4813 29.3418 17.6482 29.4831 17.7802C29.5528 17.8453 29.6086 17.9074 29.641 17.964C29.6571 17.9922 29.6718 18.0263 29.6744 18.0637C29.6772 18.1051 29.6647 18.1483 29.6309 18.1817C29.6153 18.1972 29.5949 18.2105 29.5783 18.2206C29.5598 18.2317 29.538 18.2435 29.5147 18.2551C29.4682 18.2784 29.4119 18.3033 29.3558 18.3251C29.3415 18.3309 29.323 18.3384 29.3011 18.3472C29.1639 18.4024 28.8917 18.512 28.6479 18.6132L28.6477 18.6133C28.3506 18.7359 28.1334 18.8127 28.0297 18.831C28.0157 18.8335 28.0011 18.8355 27.9869 18.8359C27.9752 18.8363 27.9531 18.8363 27.9301 18.8274C27.9176 18.8226 27.9 18.8133 27.885 18.7955C27.8688 18.7761 27.8607 18.7527 27.86 18.7295C27.859 18.6907 27.879 18.6631 27.8858 18.654C27.9031 18.631 27.9295 18.6097 27.9542 18.5917C27.9814 18.5717 28.0164 18.5488 28.0589 18.5228L28.0589 18.5228L28.0597 18.5223C28.1712 18.4557 28.2426 18.3892 28.2907 18.3103C28.3392 18.2306 28.369 18.13 28.3835 17.9866L28.3836 17.986C28.3929 17.8991 28.3934 17.8504 28.3848 17.8057C28.3761 17.7606 28.3568 17.7122 28.3136 17.6286L28.3135 17.6286L28.312 17.6253C28.2634 17.5222 28.1509 17.3596 28.0703 17.265L27.914 17.0913L27.7638 16.9244H27.9883H28.1149C28.1897 16.9244 28.2731 16.9575 28.3766 17.0125C28.4835 17.0694 28.6277 17.159 28.829 17.29ZM27.7651 17.0542L27.7651 17.0542L27.7661 17.0554C27.7822 17.0748 27.7934 17.0978 27.8012 17.1164C27.8096 17.1365 27.817 17.1588 27.8235 17.1815C27.8364 17.2269 27.8471 17.2791 27.8543 17.3284C27.8614 17.3771 27.8658 17.4273 27.8646 17.4679C27.8641 17.4869 27.8621 17.5113 27.855 17.5338C27.8515 17.5449 27.8444 17.5631 27.8296 17.5801C27.8127 17.5995 27.7843 17.6181 27.7467 17.6181C27.7223 17.6181 27.702 17.6092 27.697 17.6069C27.6968 17.6068 27.6966 17.6067 27.6964 17.6067C27.6875 17.6028 27.6785 17.598 27.6704 17.5935C27.654 17.5842 27.6346 17.5719 27.6141 17.5584C27.5727 17.531 27.5219 17.4948 27.4728 17.4583C27.4237 17.4218 27.3749 17.3839 27.3379 17.3528C27.3196 17.3375 27.3027 17.3226 27.2896 17.3097C27.2834 17.3035 27.2759 17.2957 27.2694 17.2874C27.2662 17.2833 27.2614 17.2768 27.257 17.2686C27.254 17.263 27.2441 17.2441 27.2441 17.2181C27.2441 17.1964 27.2513 17.1793 27.2528 17.1756C27.2529 17.1755 27.2529 17.1754 27.253 17.1753C27.2558 17.1685 27.2589 17.1625 27.2616 17.1578C27.2669 17.1481 27.2736 17.1379 27.2808 17.1278C27.295 17.1079 27.3144 17.0841 27.3373 17.0613C27.3952 16.9993 27.4741 16.968 27.5499 16.9653C27.6259 16.9625 27.7087 16.9885 27.7651 17.0542Z" fill="#8C710F" fill-opacity="0.7" stroke="black" stroke-width="0.2"/>
<path d="M14.8824 16.6095L14.8831 16.6093C15.182 16.5443 15.5636 16.5434 15.9608 16.6101C16.5433 16.7131 16.9775 16.9319 17.4039 17.3432L17.4039 17.3432C17.6104 17.5423 17.8402 17.8489 18.0201 18.1454C18.1097 18.2932 18.1857 18.4363 18.2396 18.5599C18.2949 18.6868 18.3223 18.7827 18.3244 18.8398C18.3262 18.8908 18.3203 18.9057 18.3184 18.9089L18.3181 18.9092C18.3181 18.9092 18.3174 18.9099 18.3154 18.911C18.3112 18.9135 18.3015 18.9178 18.282 18.9216C18.2413 18.9293 18.1763 18.9312 18.0724 18.9248C17.9701 18.9185 17.8375 18.9048 17.665 18.8848L17.6647 18.8848C17.3259 18.8467 17.094 18.8314 16.853 18.8547C16.6127 18.878 16.368 18.9394 16.0031 19.0478C15.7757 19.1146 15.6563 19.1475 15.5358 19.1643C15.4154 19.1812 15.2914 19.1824 15.0544 19.1804L15.0542 19.1804C14.4988 19.1767 14.2035 19.122 13.6578 18.9207L13.6571 18.9205L13.6571 18.9205C13.2459 18.7724 12.9324 18.599 12.5326 18.3002L12.5322 18.2999L12.5322 18.2999C12.4082 18.2082 12.1795 18.0109 11.9797 17.8292C11.9407 17.7937 11.9031 17.7591 11.8678 17.7261C11.8956 17.7411 11.9244 17.7574 11.9536 17.7749L11.9543 17.7753L11.9543 17.7753C12.1065 17.8646 12.2163 17.9234 12.3001 17.9442C12.3454 17.9554 12.3923 17.9581 12.4386 17.9422C12.4846 17.9264 12.5172 17.8966 12.5417 17.8672C12.5418 17.8671 12.5418 17.8671 12.5419 17.867L12.4651 17.803C12.5034 17.7574 12.4881 17.7194 12.3807 17.5979L14.8824 16.6095ZM14.8824 16.6095C14.7615 16.6349 14.5596 16.694 14.4365 16.7383L14.8824 16.6095ZM17.6536 18.9842C16.9786 18.9082 16.76 18.9272 16.0314 19.1437C15.5789 19.2766 15.5252 19.2842 15.0536 19.2804C14.486 19.2766 14.1792 19.2197 13.6232 19.0146L17.6536 18.9842ZM17.6536 18.9842C18.3438 19.0639 18.432 19.0488 18.4243 18.8361L17.6536 18.9842ZM16.5018 16.9445L16.5017 16.9444C16.392 16.8954 16.1968 16.8482 16.0355 16.8204C15.9539 16.8063 15.8756 16.7963 15.8164 16.7938C15.7881 16.7926 15.7576 16.7927 15.7316 16.7975C15.7198 16.7997 15.6983 16.8046 15.6778 16.8183C15.6529 16.8349 15.6227 16.8709 15.6292 16.9227C15.6293 16.923 15.6293 16.9234 15.6294 16.9237L15.7285 16.9104L16.5018 16.9445ZM16.5018 16.9445C16.8143 17.0844 17.0963 17.2846 17.3134 17.5105M16.5018 16.9445L17.3134 17.5105M15.0774 18.2026C15.0716 18.1851 15.0664 18.1673 15.0631 18.1503C15.0603 18.1356 15.0565 18.1105 15.0626 18.0838C15.0659 18.0691 15.0731 18.0496 15.089 18.0318C15.1059 18.0129 15.1274 18.0017 15.149 17.9971C15.1859 17.9892 15.2174 18.0014 15.2313 18.0074C15.2634 18.0213 15.2999 18.0475 15.337 18.077C15.3766 18.1084 15.4256 18.1505 15.4845 18.2031L15.4848 18.2034L15.6957 18.3933L15.7805 18.4696L15.6937 18.5437L15.5839 18.6374M15.0774 18.2026C15.0775 18.2028 15.0776 18.203 15.0777 18.2033L15.1724 18.1714L15.0772 18.2019C15.0773 18.2021 15.0774 18.2024 15.0774 18.2026ZM15.0774 18.2026C15.1292 18.364 15.1704 18.4829 15.2036 18.5636C15.2201 18.6037 15.236 18.6378 15.2517 18.6639C15.2595 18.677 15.2688 18.6908 15.2801 18.7031C15.2903 18.7143 15.3089 18.7319 15.3367 18.7411C15.3741 18.7535 15.4088 18.7436 15.4229 18.7392C15.4422 18.7332 15.4612 18.7241 15.4785 18.7146C15.5128 18.6955 15.5502 18.6684 15.5839 18.6374M15.5839 18.6374L15.5825 18.6386L15.5176 18.5626L15.5855 18.636C15.585 18.6365 15.5844 18.637 15.5839 18.6374ZM15.6288 18.4676L15.5639 18.3916L15.5538 18.4001L15.6288 18.4676ZM15.6288 18.4676L15.5619 18.542L15.5521 18.5331L15.6288 18.4676ZM17.3134 17.5105C17.5295 17.7354 17.6868 17.9916 17.7398 18.2455M17.3134 17.5105L17.7398 18.2455M17.7398 18.2455C17.7544 18.3137 17.765 18.372 17.7695 18.4199M17.7398 18.2455L17.7695 18.4199M17.7695 18.4199C17.7738 18.4646 17.7744 18.5151 17.757 18.5588M17.7695 18.4199L17.757 18.5588M17.757 18.5588C17.7473 18.5831 17.7315 18.6068 17.7071 18.6252M17.757 18.5588L17.7071 18.6252M17.7071 18.6252C17.6831 18.6433 17.6568 18.6517 17.6328 18.6549M17.7071 18.6252L17.6328 18.6549M17.6328 18.6549C17.5899 18.6607 17.5446 18.6512 17.506 18.6405L17.6328 18.6549ZM12.2991 17.3191C12.3443 17.3892 12.4001 17.4661 12.4564 17.5324L13.5158 16.9408C13.4161 16.9484 13.2627 16.918 13.1055 16.8572L13.0704 16.9509C13.0702 16.9508 13.0701 16.9507 13.0699 16.9507C13.0695 16.9505 13.0691 16.9504 13.0686 16.9502C13.1053 17.0077 13.1395 17.0647 13.1649 17.1111C13.1777 17.1345 13.1891 17.1566 13.1975 17.1752C13.2016 17.1845 13.2058 17.1944 13.209 17.2041C13.2113 17.211 13.217 17.2283 13.217 17.2484C13.217 17.2769 13.206 17.2983 13.1989 17.3095C13.1913 17.3217 13.1824 17.3312 13.1754 17.338C13.1612 17.3516 13.1445 17.3631 13.1288 17.3726C13.0969 17.3917 13.0562 17.4099 13.0134 17.4234C12.9111 17.457 12.7846 17.4556 12.6589 17.4339C12.5416 17.4135 12.4169 17.3741 12.2991 17.3191ZM13.5283 17.0402C13.5266 17.0403 13.5248 17.0404 13.5231 17.0405L14.4017 16.6445C14.1447 16.7433 14.1025 16.7471 13.8111 16.7015L13.7974 16.8006C13.7971 16.8005 13.7968 16.8005 13.7965 16.8004C13.7755 16.7975 13.7571 16.795 13.7409 16.7929C13.7445 16.807 13.7476 16.8203 13.7499 16.8323C13.7552 16.8597 13.7629 16.9093 13.7379 16.9553C13.7091 17.0082 13.6571 17.0233 13.6283 17.0292C13.5998 17.0351 13.5638 17.0377 13.5283 17.0402ZM15.9662 17.1003C15.9134 17.0618 15.8643 17.0252 15.8246 16.9945C15.8188 16.9941 15.8132 16.9938 15.8079 16.9936C15.7843 16.9926 15.7721 16.9935 15.7683 16.9941C15.7674 16.9943 15.7672 16.9943 15.7679 16.9942L15.9662 17.1003ZM14.2363 17.3326L14.2363 17.3326L14.2358 17.3332C14.1071 17.4662 14.0259 17.5743 13.9763 17.6762C13.9277 17.7763 13.9073 17.875 13.9073 17.9929C13.9073 18.0459 13.9125 18.1071 13.9214 18.1628C13.9305 18.2205 13.9423 18.2642 13.9522 18.2862L13.9522 18.2862L13.9531 18.2883C13.9742 18.3383 14.0233 18.4039 14.0951 18.4701C14.1653 18.5349 14.2505 18.5942 14.336 18.635C14.3768 18.6531 14.4146 18.676 14.4427 18.701C14.4563 18.7131 14.4728 18.7302 14.4844 18.7519C14.495 18.7717 14.5132 18.8195 14.4834 18.8689L14.4834 18.8689L14.4815 18.8718C14.4462 18.9259 14.3854 18.9411 14.3477 18.9461C14.3045 18.9518 14.2561 18.9487 14.2092 18.9408C14.1156 18.9251 14.007 18.8865 13.9206 18.8282C13.7385 18.7092 13.4558 18.5759 13.0495 18.4291C12.9567 18.3978 12.8711 18.3633 12.8067 18.3332C12.7746 18.3182 12.7459 18.3034 12.7236 18.2898C12.7127 18.2831 12.701 18.2754 12.6907 18.2668C12.6855 18.2626 12.679 18.2567 12.6726 18.2494C12.6671 18.2431 12.6567 18.23 12.6503 18.2109L12.6502 18.2109L12.6499 18.2097C12.6365 18.1684 12.6448 18.1289 12.654 18.1018C12.6638 18.073 12.6795 18.0445 12.6971 18.0177C12.7325 17.9637 12.7848 17.9032 12.8473 17.8406C12.9729 17.7146 13.1507 17.5692 13.3486 17.4353L13.3488 17.4351C13.6226 17.2512 13.8037 17.1346 13.9336 17.0642C14.0634 16.9937 14.1541 16.9623 14.2444 16.9623H14.3556H14.589L14.428 17.1313L14.2363 17.3326ZM14.3328 18.7453C14.3328 18.7453 14.3329 18.7453 14.3329 18.7454C14.3329 18.7453 14.3329 18.7453 14.3329 18.7453C14.3329 18.7453 14.3329 18.7453 14.3328 18.7453ZM14.9859 17.1166L14.986 17.1165L14.9889 17.1197L15.0733 17.2109L15.1482 17.2918L15.0603 17.3585L14.8811 17.4945C14.8288 17.5362 14.7764 17.5732 14.7336 17.6002C14.7122 17.6138 14.692 17.6256 14.6748 17.6344C14.6662 17.6388 14.6569 17.6432 14.6476 17.6467L14.6474 17.6468C14.6415 17.6491 14.6231 17.6561 14.6011 17.6561C14.5286 17.6561 14.4999 17.5952 14.4934 17.5788C14.4843 17.5558 14.481 17.5309 14.4795 17.5116C14.4763 17.4707 14.4791 17.4204 14.485 17.3717C14.491 17.3223 14.5009 17.2695 14.514 17.223C14.5256 17.1814 14.544 17.129 14.5743 17.093C14.6274 17.0291 14.7008 16.9943 14.7843 17.0049C14.8603 17.0145 14.9285 17.0598 14.9859 17.1166ZM15.2541 18.1392C15.2558 18.1348 15.257 18.1309 15.2577 18.1277C15.2601 18.117 15.2591 18.1098 15.2591 18.1098C15.259 18.1098 15.2591 18.1106 15.2595 18.1125C15.2604 18.1172 15.2626 18.1259 15.2672 18.1395L15.2672 18.1395L15.2677 18.1408C15.2689 18.1448 15.2702 18.1487 15.2715 18.1526C15.2674 18.1494 15.2634 18.1464 15.2596 18.1434C15.2592 18.1431 15.2588 18.1428 15.2584 18.1425C15.2569 18.1414 15.2555 18.1403 15.2541 18.1392ZM15.1859 18.2131C15.1839 18.2069 15.1819 18.2006 15.1798 18.1943C15.1662 18.1953 15.1563 18.1926 15.1527 18.1913C15.157 18.1934 15.1674 18.1995 15.1859 18.2131Z" fill="#8C710F" fill-opacity="0.7" stroke="black" stroke-width="0.2"/>
<path d="M19.1739 23.2327L19.1735 23.233C18.8596 23.5129 18.7265 23.9428 18.807 24.4684L18.8491 24.7301L18.8564 24.7757L18.8264 24.8109L18.5964 25.0805C18.5964 25.0805 18.5964 25.0805 18.5964 25.0805C18.4758 25.2221 18.343 25.3939 18.2374 25.541C18.6206 25.2893 18.9376 25.1605 19.2763 25.1362L19.2763 25.1362L19.2776 25.1361C19.3058 25.1345 19.3326 25.1323 19.357 25.1298C19.3267 25.0887 19.2899 25.0404 19.2508 24.9901C19.1622 24.8786 19.1031 24.8034 19.0716 24.7241C19.0384 24.6407 19.0377 24.5584 19.0377 24.4459C19.0377 24.3071 19.0574 24.1027 19.082 23.9849L19.082 23.9849L19.0821 23.9844C19.1024 23.89 19.124 23.8184 19.1778 23.7396C19.2279 23.6663 19.304 23.5898 19.4213 23.4774L19.4213 23.4774L19.4225 23.4763C19.4983 23.4059 19.5519 23.3537 19.5875 23.3126C19.6052 23.2922 19.6165 23.2767 19.6235 23.2651C19.6253 23.262 19.6267 23.2594 19.6277 23.2573C19.6275 23.2571 19.6273 23.257 19.6271 23.2568C19.6104 23.2414 19.5779 23.2212 19.5181 23.1906C19.4138 23.138 19.3661 23.1279 19.3321 23.1322C19.2986 23.1365 19.2573 23.1576 19.1739 23.2327Z" fill="#8C710F" fill-opacity="0.7" stroke="black" stroke-width="0.2"/>
<path d="M19.9579 23.941L19.958 23.9411L19.9544 23.9438C19.8944 23.9903 19.835 24.1031 19.8036 24.2532C19.773 24.3995 19.7747 24.5554 19.8117 24.6689C19.83 24.7232 19.8428 24.7557 19.8546 24.7763C19.86 24.7856 19.8635 24.7897 19.8652 24.7913C19.8679 24.7919 19.8791 24.7934 19.9073 24.788C19.9413 24.7816 19.9871 24.7679 20.0536 24.746L20.0536 24.746L20.054 24.7458L20.2879 24.6698L20.3218 24.6589L20.3549 24.6717L20.5999 24.7665C20.6 24.7665 20.6001 24.7665 20.6001 24.7666C20.6898 24.8008 20.7902 24.8303 20.8839 24.8516C20.6346 24.6898 20.3878 24.4255 20.2106 24.1375L20.2106 24.1375L20.2101 24.1366C20.1577 24.0495 20.1095 23.9786 20.0711 23.9306C20.0576 23.9138 20.0464 23.9011 20.0374 23.8919C20.0335 23.8936 20.0293 23.8955 20.0247 23.8977C20.0022 23.9087 19.9777 23.9242 19.9579 23.941Z" fill="#8C710F" fill-opacity="0.7" stroke="black" stroke-width="0.2"/>
<path d="M22.5391 24.2067L22.6239 24.2596C22.526 24.4168 22.439 24.5336 22.3327 24.6316C22.2437 24.7136 22.1442 24.7796 22.0197 24.8458C22.1107 24.8303 22.2172 24.8043 22.328 24.7686C22.4655 24.7239 22.5571 24.6955 22.6405 24.6861C22.7284 24.6761 22.8027 24.6876 22.904 24.7088C22.9663 24.7209 23.0098 24.7273 23.0421 24.7285C23.0742 24.7296 23.0857 24.725 23.0892 24.7231L23.0892 24.7231C23.091 24.7222 23.0974 24.7188 23.1075 24.6991C23.1187 24.6774 23.1301 24.6442 23.1442 24.5912L23.1442 24.5912L23.1445 24.5902C23.176 24.4761 23.1639 24.3155 23.1182 24.172C23.0958 24.1013 23.0667 24.0397 23.035 23.9937C23.0022 23.946 22.9729 23.9241 22.9536 23.9171L22.9536 23.9171L22.9523 23.9166C22.9194 23.9042 22.898 23.8965 22.8821 23.8922C22.8778 23.8911 22.8745 23.8903 22.872 23.8898C22.8676 23.8939 22.8607 23.9011 22.85 23.9136C22.8228 23.9478 22.7242 24.0992 22.6239 24.2597L22.5391 24.2067ZM22.5391 24.2067C22.3473 24.5143 22.2131 24.6397 21.8987 24.7954C21.8575 24.8158 21.8209 24.8367 21.7919 24.8561L22.5391 24.2067Z" fill="#8C710F" fill-opacity="0.7" stroke="black" stroke-width="0.2"/>
<path d="M23.9786 24.7713C24.0125 24.8092 24.0519 24.8546 24.0944 24.9049C24.2177 25.0511 24.3635 25.234 24.471 25.3815C24.5179 25.448 24.5733 25.5368 24.6244 25.6247C24.3243 25.4231 23.9099 25.2446 23.5706 25.1795C23.5705 25.1795 23.5704 25.1795 23.5703 25.1795L23.9786 24.7713ZM23.9786 24.7713C23.9312 24.9483 23.7694 25.0867 23.5509 25.1756L23.9786 24.7713Z" fill="#8C710F" fill-opacity="0.7" stroke="black" stroke-width="0.2"/>
<path d="M21.1495 26.1364L21.1495 26.1368C21.1708 26.2506 21.1957 26.3376 21.2237 26.4014C21.2519 26.4658 21.2799 26.4989 21.3032 26.5149C21.3368 26.5381 21.4 26.5486 21.543 26.4526C21.6061 26.4081 21.6714 26.3318 21.7211 26.2441C21.7715 26.1551 21.7987 26.067 21.7987 26.0033C21.7987 25.9895 21.7933 25.9592 21.7789 25.9181C21.7652 25.879 21.7462 25.8384 21.7257 25.8056L21.7257 25.8056L21.7252 25.8047C21.6805 25.7316 21.5862 25.6158 21.4944 25.516C21.449 25.4666 21.4064 25.4235 21.3733 25.3934C21.3712 25.3915 21.3692 25.3897 21.3673 25.388C21.3442 25.4099 21.3163 25.4393 21.2885 25.4717C21.1586 25.6263 21.1002 25.8786 21.1495 26.1364Z" fill="#8C710F" fill-opacity="0.7" stroke="black" stroke-width="0.2"/>
<path d="M19.7794 26.8815L19.7789 26.8817C19.3084 27.0175 18.63 27.2465 18.0688 27.4502C17.7882 27.5521 17.5381 27.6472 17.3587 27.7209C17.318 27.7376 17.2813 27.7531 17.2489 27.7672C17.2821 27.7791 17.3191 27.7918 17.3589 27.8049C17.528 27.8605 17.7404 27.9213 17.913 27.9603C18.1971 28.0222 18.3838 28.0475 18.5932 28.0337C18.8054 28.0197 19.0458 27.9653 19.437 27.859C19.4371 27.859 19.4372 27.8589 19.4373 27.8589L19.8585 27.7413L19.8794 27.7355L19.9008 27.7389L20.7056 27.8641L20.7061 27.8642L21.4955 27.9833L22.2087 27.8681L22.2088 27.8681C22.4104 27.8357 22.6017 27.8062 22.7485 27.7848C22.8218 27.7741 22.8844 27.7653 22.9318 27.7592C22.9755 27.7536 23.0143 27.7491 23.0338 27.7491C23.0565 27.7491 23.0908 27.7555 23.1214 27.7618C23.1565 27.769 23.2012 27.7793 23.2522 27.7918C23.3542 27.8168 23.4839 27.8514 23.6172 27.8896C23.9239 27.9764 24.1206 28.017 24.3198 28.0197C24.5197 28.0224 24.7282 27.9869 25.059 27.9111C25.348 27.8438 25.5394 27.7984 25.6651 27.7661C25.5998 27.7414 25.5216 27.713 25.4331 27.6816C25.1571 27.5836 24.785 27.4583 24.4025 27.3336C24.02 27.2089 23.6277 27.085 23.3111 26.9897C23.1528 26.9421 23.0139 26.9017 22.9049 26.8721C22.7947 26.8421 22.7213 26.8248 22.6884 26.8203C22.6245 26.8138 22.58 26.815 22.5226 26.8287C22.4605 26.8436 22.3815 26.8735 22.2492 26.9304C22.0798 27.0051 21.8478 27.1238 21.738 27.1925C21.6758 27.2335 21.6119 27.2669 21.5584 27.2885C21.5319 27.2992 21.5051 27.3082 21.4808 27.3132C21.4688 27.3157 21.4542 27.3178 21.4389 27.3177C21.4276 27.3176 21.4048 27.3162 21.3812 27.3037C21.3725 27.2995 21.3635 27.2942 21.3571 27.2905C21.3469 27.2844 21.334 27.2766 21.3193 27.2674C21.2897 27.249 21.2504 27.224 21.2044 27.1946C21.1743 27.1753 21.1413 27.1542 21.1061 27.1315C21.0329 27.0846 20.9499 27.0314 20.8633 26.9763L20.8633 26.9763L20.8627 26.976C20.7371 26.8949 20.6185 26.8216 20.5294 26.7693C20.4846 26.743 20.4484 26.7227 20.4227 26.7093C20.4182 26.707 20.4142 26.7049 20.4107 26.7032C20.4025 26.7052 20.3924 26.7078 20.3804 26.7109C20.345 26.7201 20.2956 26.7336 20.2354 26.7504C20.1151 26.7839 19.9536 26.8303 19.7794 26.8815Z" fill="#8C710F" fill-opacity="0.7" stroke="black" stroke-width="0.2"/>
<path d="M20.0486 29.3058L20.0486 29.3058L20.0494 29.3065C20.1146 29.3672 20.1746 29.4285 20.2189 29.4789C20.2409 29.504 20.2604 29.5279 20.275 29.5487C20.2823 29.5589 20.2896 29.5703 20.2957 29.582C20.2996 29.5897 20.3114 29.6128 20.3114 29.6418C20.3114 29.662 20.3056 29.6812 20.3032 29.6894C20.2996 29.7012 20.2949 29.7145 20.2896 29.7283C20.2789 29.7562 20.264 29.7912 20.2465 29.8306C20.2113 29.9095 20.1636 30.0099 20.1127 30.1129C20.0135 30.3136 19.8971 30.5345 19.8362 30.6252C19.8607 30.6206 19.89 30.6128 19.924 30.6012C20.0148 30.57 20.1288 30.5149 20.2551 30.4377L20.2552 30.4376C20.6294 30.2095 20.885 30.0719 21.1505 29.9966C21.4171 29.921 21.6867 29.9102 22.0853 29.9216C22.0854 29.9216 22.0855 29.9216 22.0856 29.9216L22.6141 29.933L22.6364 29.9335L22.6564 29.9434L23.1313 30.1786C23.1314 30.1787 23.1315 30.1787 23.1316 30.1787C23.2185 30.2211 23.2998 30.2606 23.37 30.2943C23.3663 30.2869 23.3625 30.2794 23.3587 30.2718L23.3585 30.2714C23.263 30.0803 23.2077 29.9259 23.2158 29.7668C23.2239 29.6076 23.2946 29.46 23.4098 29.2802L23.4097 29.2802L23.411 29.2783C23.4396 29.2359 23.4653 29.1951 23.487 29.1585C23.4167 29.1715 23.33 29.1897 23.2368 29.2112C22.51 29.3826 21.982 29.4715 21.5746 29.4947L21.5742 29.4948C21.3549 29.5064 21.1946 29.5028 20.9991 29.4609C20.8071 29.4197 20.5838 29.342 20.2374 29.2112L20.2374 29.2112L20.2369 29.211C20.0447 29.1372 19.9532 29.1049 19.9016 29.0961C19.8892 29.094 19.8826 29.0939 19.8798 29.0941C19.8781 29.0954 19.8743 29.0985 19.8676 29.1051C19.8647 29.1081 19.8623 29.1105 19.8605 29.1126C19.8681 29.1253 19.8836 29.1455 19.9132 29.1765C19.9454 29.2102 19.9895 29.2519 20.0486 29.3058Z" fill="#8C710F" fill-opacity="0.7" stroke="black" stroke-width="0.2"/>
</g>
<defs>
<filter id="filter0_d_104_28" x="0" y="0" width="55.2316" height="48" filterUnits="userSpaceOnUse" color-interpolation-filters="sRGB">
<feFlood flood-opacity="0" result="BackgroundImageFix"/>
<feColorMatrix in="SourceAlpha" type="matrix" values="0 0 0 0 0 0 0 0 0 0 0 0 0 0 0 0 0 0 127 0" result="hardAlpha"/>
<feOffset dy="4"/>
<feGaussianBlur stdDeviation="2"/>
<feComposite in2="hardAlpha" operator="out"/>
<feColorMatrix type="matrix" values="0 0 0 0 0 0 0 0 0 0 0 0 0 0 0 0 0 0 0.75 0"/>
<feBlend mode="normal" in2="BackgroundImageFix" result="effect1_dropShadow_104_28"/>
<feBlend mode="normal" in="SourceGraphic" in2="effect1_dropShadow_104_28" result="shape"/>
</filter>
</defs>
</svg>
